<svg width="15" height="14" viewBox="0 0 15 14" fill="none" xmlns="http://www.w3.org/2000/svg">
<mask id="path-1-outside-1_509_28317" maskUnits="userSpaceOnUse" x="-0.730713" y="-0.375" width="15" height="14" fill="black">
<rect fill="white" x="-0.730713" y="-0.375" width="15" height="14"/>
<path d="M12.5288 0.625H1.74043C1.3502 0.625 0.976082 0.779994 0.700123 1.05584C0.424282 1.33179 0.269287 1.70591 0.269287 2.09615V3.56729C0.270163 3.87083 0.364847 4.1666 0.540421 4.4142C0.715995 4.6618 0.963915 4.84899 1.25005 4.95023V11.9039C1.25005 12.2941 1.40504 12.6682 1.68088 12.9442C1.95683 13.22 2.33096 13.375 2.72119 13.375H11.5481C11.9383 13.375 12.3124 13.22 12.5884 12.9442C12.8642 12.6682 13.0192 12.2941 13.0192 11.9039V4.95023C13.3054 4.84898 13.5533 4.6618 13.7289 4.4142C13.9044 4.1666 13.9991 3.87083 14 3.56729V2.09615C14 1.70591 13.845 1.3318 13.5691 1.05584C13.2932 0.779994 12.9191 0.625 12.5288 0.625H12.5288ZM12.0385 11.9038C12.0385 12.0338 11.9868 12.1586 11.8949 12.2506C11.8029 12.3425 11.6781 12.3942 11.5481 12.3942H2.7212C2.59116 12.3942 2.46637 12.3425 2.37443 12.2506C2.28248 12.1586 2.23082 12.0338 2.23082 11.9038V5.03844H12.0385V11.9038ZM13.0192 3.56729C13.0192 3.69733 12.9676 3.82212 12.8756 3.91407C12.7837 4.00601 12.6589 4.05768 12.5288 4.05768H1.74043C1.6104 4.05768 1.48561 4.00601 1.39366 3.91407C1.30172 3.82212 1.25005 3.69733 1.25005 3.56729V2.09615C1.25005 1.96611 1.30172 1.84132 1.39366 1.74938C1.48561 1.65743 1.6104 1.60576 1.74043 1.60576H12.5288C12.6589 1.60576 12.7837 1.65743 12.8756 1.74938C12.9676 1.84132 13.0192 1.96611 13.0192 2.09615V3.56729Z"/>
</mask>
<path d="M12.5288 0.625H1.74043C1.3502 0.625 0.976082 0.779994 0.700123 1.05584C0.424282 1.33179 0.269287 1.70591 0.269287 2.09615V3.56729C0.270163 3.87083 0.364847 4.1666 0.540421 4.4142C0.715995 4.6618 0.963915 4.84899 1.25005 4.95023V11.9039C1.25005 12.2941 1.40504 12.6682 1.68088 12.9442C1.95683 13.22 2.33096 13.375 2.72119 13.375H11.5481C11.9383 13.375 12.3124 13.22 12.5884 12.9442C12.8642 12.6682 13.0192 12.2941 13.0192 11.9039V4.95023C13.3054 4.84898 13.5533 4.6618 13.7289 4.4142C13.9044 4.1666 13.9991 3.87083 14 3.56729V2.09615C14 1.70591 13.845 1.3318 13.5691 1.05584C13.2932 0.779994 12.9191 0.625 12.5288 0.625H12.5288ZM12.0385 11.9038C12.0385 12.0338 11.9868 12.1586 11.8949 12.2506C11.8029 12.3425 11.6781 12.3942 11.5481 12.3942H2.7212C2.59116 12.3942 2.46637 12.3425 2.37443 12.2506C2.28248 12.1586 2.23082 12.0338 2.23082 11.9038V5.03844H12.0385V11.9038ZM13.0192 3.56729C13.0192 3.69733 12.9676 3.82212 12.8756 3.91407C12.7837 4.00601 12.6589 4.05768 12.5288 4.05768H1.74043C1.6104 4.05768 1.48561 4.00601 1.39366 3.91407C1.30172 3.82212 1.25005 3.69733 1.25005 3.56729V2.09615C1.25005 1.96611 1.30172 1.84132 1.39366 1.74938C1.48561 1.65743 1.6104 1.60576 1.74043 1.60576H12.5288C12.6589 1.60576 12.7837 1.65743 12.8756 1.74938C12.9676 1.84132 13.0192 1.96611 13.0192 2.09615V3.56729Z" fill="#5634CF"/>
<path d="M0.700123 1.05584L0.523384 0.879022L0.523311 0.879094L0.700123 1.05584ZM0.269287 3.56729L0.0192861 3.56729L0.0192881 3.56802L0.269287 3.56729ZM0.540421 4.4142L0.336488 4.55881L0.336489 4.55881L0.540421 4.4142ZM1.25005 4.95023H1.50005V4.7735L1.33344 4.71455L1.25005 4.95023ZM1.68088 12.9442L1.50407 13.1209L1.50414 13.121L1.68088 12.9442ZM12.5884 12.9442L12.7651 13.121L12.7652 13.1209L12.5884 12.9442ZM13.0192 4.95023L12.9358 4.71455L12.7692 4.7735V4.95023H13.0192ZM13.7289 4.4142L13.5249 4.26959L13.5249 4.2696L13.7289 4.4142ZM14 3.56729L14.25 3.56802V3.56729H14ZM13.5691 1.05584L13.746 0.879097L13.7459 0.879024L13.5691 1.05584ZM2.23082 5.03844V4.78844H1.98082V5.03844H2.23082ZM12.0385 5.03844H12.2885V4.78844H12.0385V5.03844ZM12.5288 0.375H1.74043V0.875H12.5288V0.375ZM1.74043 0.375C1.28389 0.375 0.846204 0.556339 0.523384 0.879022L0.876862 1.23265C1.10596 1.00365 1.41652 0.875 1.74043 0.875V0.375ZM0.523311 0.879094C0.200625 1.20191 0.0192871 1.6396 0.0192871 2.09615H0.519287C0.519287 1.77223 0.647938 1.46166 0.876935 1.23258L0.523311 0.879094ZM0.0192871 2.09615V3.56729H0.519287V2.09615H0.0192871ZM0.0192881 3.56802C0.0203126 3.92311 0.131085 4.26914 0.336488 4.55881L0.744353 4.26959C0.59861 4.06406 0.520013 3.81855 0.519286 3.56657L0.0192881 3.56802ZM0.336489 4.55881C0.541922 4.84851 0.831966 5.06749 1.16665 5.18591L1.33344 4.71455C1.09586 4.63049 0.890067 4.47508 0.744353 4.26959L0.336489 4.55881ZM1.00005 4.95023V11.9039H1.50005V4.95023H1.00005ZM1.00005 11.9039C1.00005 12.3604 1.18139 12.7981 1.50407 13.1209L1.8577 12.7674C1.6287 12.5383 1.50005 12.2278 1.50005 11.9039H1.00005ZM1.50414 13.121C1.82696 13.4437 2.26465 13.625 2.72119 13.625V13.125C2.39727 13.125 2.08671 12.9963 1.85762 12.7674L1.50414 13.121ZM2.72119 13.625H11.5481V13.125H2.72119V13.625ZM11.5481 13.625C12.0046 13.625 12.4423 13.4437 12.7651 13.121L12.4117 12.7673C12.1826 12.9963 11.872 13.125 11.5481 13.125V13.625ZM12.7652 13.1209C13.0879 12.7981 13.2692 12.3604 13.2692 11.9039H12.7692C12.7692 12.2278 12.6406 12.5383 12.4116 12.7674L12.7652 13.1209ZM13.2692 11.9039V4.95023H12.7692V11.9039H13.2692ZM13.1026 5.18591C13.4373 5.06748 13.7274 4.84853 13.9328 4.5588L13.5249 4.2696C13.3792 4.47507 13.1734 4.63048 12.9358 4.71455L13.1026 5.18591ZM13.9328 4.55881C14.1382 4.26914 14.249 3.92311 14.25 3.56802L13.75 3.56657C13.7493 3.81855 13.6707 4.06406 13.5249 4.26959L13.9328 4.55881ZM14.25 3.56729V2.09615H13.75V3.56729H14.25ZM14.25 2.09615C14.25 1.6396 14.0686 1.20192 13.746 0.879097L13.3923 1.23257C13.6213 1.46167 13.75 1.77223 13.75 2.09615H14.25ZM13.7459 0.879024C13.4231 0.556338 12.9854 0.375 12.5288 0.375V0.875C12.8528 0.875 13.1633 1.00365 13.3924 1.23265L13.7459 0.879024ZM12.5288 0.875H12.5288V0.375H12.5288V0.875ZM11.7885 11.9038C11.7885 11.9676 11.7631 12.0288 11.7181 12.0738L12.0716 12.4273C12.2105 12.2885 12.2885 12.1001 12.2885 11.9038H11.7885ZM11.7181 12.0738C11.673 12.1188 11.6118 12.1442 11.5481 12.1442V12.6442C11.7444 12.6442 11.9328 12.5662 12.0716 12.4273L11.7181 12.0738ZM11.5481 12.1442H2.7212V12.6442H11.5481V12.1442ZM2.7212 12.1442C2.65743 12.1442 2.59625 12.1188 2.55121 12.0738L2.19765 12.4273C2.3365 12.5662 2.52489 12.6442 2.7212 12.6442V12.1442ZM2.55121 12.0738C2.50617 12.0288 2.48082 11.9676 2.48082 11.9038H1.98082C1.98082 12.1001 2.0588 12.2885 2.19765 12.4273L2.55121 12.0738ZM2.48082 11.9038V5.03844H1.98082V11.9038H2.48082ZM2.23082 5.28844H12.0385V4.78844H2.23082V5.28844ZM11.7885 5.03844V11.9038H12.2885V5.03844H11.7885ZM12.7692 3.56729C12.7692 3.63106 12.7439 3.69225 12.6988 3.73729L13.0524 4.09084C13.1912 3.95199 13.2692 3.76361 13.2692 3.56729H12.7692ZM12.6988 3.73729C12.6538 3.78233 12.5926 3.80768 12.5288 3.80768V4.30768C12.7252 4.30768 12.9135 4.22969 13.0524 4.09084L12.6988 3.73729ZM12.5288 3.80768H1.74043V4.30768H12.5288V3.80768ZM1.74043 3.80768C1.67667 3.80768 1.61548 3.78233 1.57044 3.73729L1.21689 4.09084C1.35574 4.22969 1.54412 4.30768 1.74043 4.30768V3.80768ZM1.57044 3.73729C1.5254 3.69225 1.50005 3.63106 1.50005 3.56729H1.00005C1.00005 3.76361 1.07804 3.95199 1.21689 4.09084L1.57044 3.73729ZM1.50005 3.56729V2.09615H1.00005V3.56729H1.50005ZM1.50005 2.09615C1.50005 2.03238 1.5254 1.97119 1.57044 1.92615L1.21689 1.5726C1.07804 1.71145 1.00005 1.89984 1.00005 2.09615H1.50005ZM1.57044 1.92615C1.61548 1.88111 1.67667 1.85576 1.74043 1.85576V1.35576C1.54412 1.35576 1.35574 1.43375 1.21689 1.5726L1.57044 1.92615ZM1.74043 1.85576H12.5288V1.35576H1.74043V1.85576ZM12.5288 1.85576C12.5926 1.85576 12.6538 1.88111 12.6988 1.92615L13.0524 1.5726C12.9135 1.43375 12.7252 1.35576 12.5288 1.35576V1.85576ZM12.6988 1.92615C12.7439 1.97119 12.7692 2.03238 12.7692 2.09615H13.2692C13.2692 1.89984 13.1912 1.71145 13.0524 1.5726L12.6988 1.92615ZM12.7692 2.09615V3.56729H13.2692V2.09615H12.7692Z" fill="#5634CF" mask="url(#path-1-outside-1_509_28317)"/>
</svg>
