<svg width="64" height="60" viewBox="0 0 64 60" fill="none" xmlns="http://www.w3.org/2000/svg">
<g clip-path="url(#clip0_3244_65593)">
<path d="M50.0818 31.3691C42.3937 31.3691 36.1623 37.6005 36.1623 45.2873C36.1623 52.9749 42.3937 59.2075 50.0818 59.2075C57.7688 59.2075 64.0001 52.9749 64.0001 45.2873C64.0001 37.6005 57.7688 31.3691 50.0818 31.3691ZM13.9189 31.3698C6.23201 31.3705 0 37.6005 0 45.288C0 52.9749 6.23201 59.2069 13.9189 59.2069C21.6064 59.2069 27.8385 52.9749 27.8385 45.288C27.8385 37.6004 21.6064 31.3698 13.9182 31.3698H13.9189ZM45.919 13.9705C45.919 21.6574 39.6877 27.8907 32.0008 27.8907C24.3126 27.8907 18.0812 21.6574 18.0812 13.9705C18.0812 6.28363 24.3126 0.0516357 32.0007 0.0516357C39.6876 0.0516357 45.9183 6.28363 45.9183 13.9705H45.919Z" fill="url(#paint0_radial_3244_65593)"/>
</g>
<defs>
<radialGradient id="paint0_radial_3244_65593" cx="0" cy="0" r="1" gradientUnits="userSpaceOnUse" gradientTransform="translate(32.0087 32.4185) scale(42.4321 39.2204)">
<stop stop-color="#FFB900"/>
<stop offset="0.6" stop-color="#F95D8F"/>
<stop offset="0.999" stop-color="#F95353"/>
</radialGradient>
<clipPath id="clip0_3244_65593">
<rect width="64" height="59.1616" fill="white" transform="translate(0 0.0488281)"/>
</clipPath>
</defs>
</svg>
