<svg width="17" height="10" viewBox="0 0 17 10" fill="none" xmlns="http://www.w3.org/2000/svg">
<path d="M1 5.00004V5.00004C1 6.98826 2.61177 8.60004 4.6 8.60004H13.6" stroke="#A1A1AA"/>
<path d="M3.3999 5.00001V5.00001C3.3999 5.66275 3.93716 6.20001 4.5999 6.20001H8.7999" stroke="#A1A1AA"/>
<path d="M3.3999 5.00005V5.00005C3.3999 4.33731 3.93716 3.80005 4.5999 3.80005H13.5999" stroke="#A1A1AA"/>
<path d="M1 5.00002V5.00002C1 3.0118 2.61177 1.40002 4.6 1.40002H8.8" stroke="#A1A1AA"/>
<path d="M16 3.80002V3.80002C16 2.47454 14.9255 1.40002 13.6 1.40002H8.8" stroke="#A1A1AA"/>
<path d="M16 3.80001V3.80001C16 5.1255 14.9255 6.20001 13.6 6.20001H8.8" stroke="#A1A1AA"/>
</svg>
