<svg width="19" height="19" viewBox="0 0 19 19" fill="none" xmlns="http://www.w3.org/2000/svg">
<path fill-rule="evenodd" clip-rule="evenodd" d="M5.93741 8.3125L13.9899 8.3125L11.9826 6.30521C11.6734 5.99604 11.6734 5.49478 11.9826 5.18562C12.2918 4.87645 12.793 4.87646 13.1022 5.18562L17.0208 9.10417L13.1022 13.0227C12.793 13.3319 12.2918 13.3319 11.9826 13.0227C11.6734 12.7136 11.6734 12.2123 11.9826 11.9031L13.9899 9.89584L5.93741 9.89584C5.50019 9.89584 5.14575 9.54139 5.14575 9.10417C5.14575 8.66694 5.50019 8.3125 5.93741 8.3125ZM3.56242 14.6458C3.56242 15.0831 3.20798 15.4375 2.77075 15.4375C2.33353 15.4375 1.97909 15.0831 1.97909 14.6458L1.97909 3.5625C1.97909 3.12527 2.33353 2.77083 2.77075 2.77083C3.20798 2.77083 3.56242 3.12527 3.56242 3.5625L3.56242 14.6458Z" fill="#52525B"/>
</svg>
