<svg width="17" height="14" viewBox="0 0 17 14" fill="none" xmlns="http://www.w3.org/2000/svg">
<path fill-rule="evenodd" clip-rule="evenodd" d="M12.0625 6.3125L4.00997 6.3125L6.01726 4.30521C6.32643 3.99604 6.32643 3.49478 6.01726 3.18562C5.7081 2.87645 5.20684 2.87646 4.89768 3.18562L0.979126 7.10417L4.89768 11.0227C5.20684 11.3319 5.7081 11.3319 6.01726 11.0227C6.32643 10.7136 6.32643 10.2123 6.01726 9.90313L4.00997 7.89584L12.0625 7.89584C12.4997 7.89584 12.8541 7.54139 12.8541 7.10417C12.8541 6.66694 12.4997 6.3125 12.0625 6.3125ZM14.4375 12.6458C14.4375 13.0831 14.7919 13.4375 15.2291 13.4375C15.6663 13.4375 16.0208 13.0831 16.0208 12.6458L16.0208 1.5625C16.0208 1.12527 15.6663 0.770833 15.2291 0.770833C14.7919 0.770833 14.4375 1.12527 14.4375 1.5625L14.4375 12.6458Z" fill="#52525B"/>
</svg>
