<svg width="14" height="17" viewBox="0 0 14 17" fill="none" xmlns="http://www.w3.org/2000/svg">
<g clip-path="url(#clip0_615_4445)">
<path d="M3.5 0.20813C3.775 0.20813 4 0.432005 4 0.70813V2.20813H10V0.70813C10 0.432005 10.225 0.20813 10.5 0.20813C10.775 0.20813 11 0.432005 11 0.70813V2.20813H12C13.1031 2.20813 14 3.10344 14 4.20813V14.2081C14 15.3113 13.1031 16.2081 12 16.2081H2C0.895313 16.2081 0 15.3113 0 14.2081V4.20813C0 3.10344 0.895313 2.20813 2 2.20813H3V0.70813C3 0.432005 3.225 0.20813 3.5 0.20813ZM13 6.20813H1V14.2081C1 14.7613 1.44781 15.2081 2 15.2081H12C12.5531 15.2081 13 14.7613 13 14.2081V6.20813ZM12 3.20813H2C1.44781 3.20813 1 3.65501 1 4.20813V5.20813H13V4.20813C13 3.65501 12.5531 3.20813 12 3.20813Z" fill="#717179"/>
</g>
<defs>
<clipPath id="clip0_615_4445">
<rect width="14" height="16" fill="white" transform="translate(0 0.20813)"/>
</clipPath>
</defs>
</svg>
