<svg width="8" height="8" viewBox="0 0 8 8" fill="none" xmlns="http://www.w3.org/2000/svg">
<path d="M6.73097 2.90433C6.71205 2.85865 6.68001 2.8196 6.63889 2.79213C6.59778 2.76466 6.54945 2.75 6.5 2.75H1.5C1.45056 2.75 1.40222 2.76466 1.36111 2.79213C1.31999 2.8196 1.28795 2.85865 1.26903 2.90433C1.25011 2.95001 1.24516 3.00028 1.2548 3.04878C1.26445 3.09727 1.28826 3.14182 1.32323 3.17678L3.82323 5.67677C3.84644 5.69999 3.874 5.71841 3.90433 5.73097C3.93466 5.74353 3.96717 5.75 4 5.75C4.03283 5.75 4.06534 5.74353 4.09567 5.73097C4.126 5.71841 4.15356 5.69999 4.17677 5.67677L6.67677 3.17678C6.71174 3.14182 6.73555 3.09727 6.7452 3.04877C6.75485 3.00028 6.7499 2.95001 6.73097 2.90433Z" fill="#3F3F46"/>
</svg>
