<svg width="32" height="32" viewBox="0 0 32 32" fill="none" xmlns="http://www.w3.org/2000/svg">
<path d="M4.68629 27.3137C3.27029 25.8977 4.20947 22.9249 3.48873 21.1829C2.7416 19.3772 0 17.9238 0 15.9999C0 14.0761 2.74161 12.6228 3.48874 10.817C4.20948 9.07512 3.27029 6.10229 4.68629 4.68629C6.10229 3.27029 9.07513 4.20947 10.8171 3.48873C12.6228 2.7416 14.0762 0 16.0001 0C17.9239 0 19.3772 2.74161 21.183 3.48874C22.9249 4.20948 25.8977 3.27029 27.3137 4.68629C28.7297 6.10229 27.7905 9.07513 28.5113 10.8171C29.2584 12.6228 32 14.0762 32 16.0001C32 17.9239 29.2584 19.3772 28.5113 21.183C27.7905 22.9249 28.7297 25.8977 27.3137 27.3137C25.8977 28.7297 22.9249 27.7905 21.1829 28.5113C19.3772 29.2584 17.9238 32 15.9999 32C14.0761 32 12.6228 29.2584 10.817 28.5113C9.07512 27.7905 6.10229 28.7297 4.68629 27.3137Z" fill="#E1D7FD"/>
<path d="M22.7694 12.3076L13.7437 20.923L9.23096 16.6153" stroke="#5C31D7" stroke-width="1.5" stroke-linecap="round" stroke-linejoin="round"/>
</svg>
