<svg width="15" height="13" viewBox="0 0 15 13" fill="none" xmlns="http://www.w3.org/2000/svg">
<path d="M2.5 9V11.875H14.5V3.25H11.5" stroke="#717179" stroke-width="0.7" stroke-linejoin="round"/>
<g clip-path="url(#clip0_64_3340)">
<path d="M6.98281 0.611217L4.73281 7.86106C4.65781 8.0595 4.46094 8.16887 4.26406 8.10794C4.06562 8.03294 3.95469 7.83606 4.01719 7.63919L6.26719 0.38903C6.32812 0.191155 6.53906 0.080561 6.73594 0.141952C6.93438 0.203342 7.04531 0.413405 6.98281 0.611217ZM8.38125 1.97669L10.3813 3.85169C10.4578 3.922 10.5 4.022 10.5 4.11106C10.5 4.22825 10.4578 4.31419 10.3813 4.39856L8.38125 6.27356C8.22969 6.41575 7.99375 6.40794 7.85156 6.25637C7.70937 6.10481 7.71719 5.86887 7.86875 5.72669L9.57656 4.11106L7.86875 2.52356C7.71719 2.38137 7.70937 2.14544 7.85156 1.99387C7.99375 1.84231 8.22969 1.8345 8.38125 1.97669ZM3.13125 2.52356L1.42328 4.11106L3.13125 5.72669C3.28281 5.86887 3.29063 6.10481 3.14844 6.25637C3.00625 6.40794 2.77031 6.41575 2.61875 6.27356L0.618516 4.39856C0.542906 4.31419 0.5 4.22825 0.5 4.11106C0.5 4.022 0.542906 3.922 0.618516 3.85169L2.61875 1.97669C2.77031 1.8345 3.00625 1.84231 3.14844 1.99387C3.29063 2.14544 3.28281 2.38137 3.13125 2.52356Z" fill="#717179"/>
</g>
<defs>
<clipPath id="clip0_64_3340">
<rect width="10" height="8" fill="white" transform="translate(0.5 0.125)"/>
</clipPath>
</defs>
</svg>
