<svg width="13" height="13" viewBox="0 0 13 13" fill="none" xmlns="http://www.w3.org/2000/svg">
<path d="M10.2882 8.83335V1.83335C10.2882 1.52393 10.1653 1.22719 9.94652 1.0084C9.72773 0.789603 9.43098 0.666687 9.12156 0.666687H2.12156C1.81214 0.666687 1.5154 0.789603 1.2966 1.0084C1.07781 1.22719 0.954895 1.52393 0.954895 1.83335V8.83335C0.954895 9.14277 1.07781 9.43952 1.2966 9.65831C1.5154 9.8771 1.81214 10 2.12156 10H9.12156C9.43098 10 9.72773 9.8771 9.94652 9.65831C10.1653 9.43952 10.2882 9.14277 10.2882 8.83335ZM2.12156 1.83335H9.12156V8.83335H2.12156V1.83335ZM11.4549 3.00002V10C11.4549 10.3094 11.332 10.6062 11.1132 10.825C10.8944 11.0438 10.5976 11.1667 10.2882 11.1667H3.28823C3.28823 11.4761 3.41114 11.7729 3.62994 11.9916C3.84873 12.2104 4.14548 12.3334 4.4549 12.3334H10.2882C10.9071 12.3334 11.5006 12.0875 11.9381 11.6499C12.3757 11.2124 12.6216 10.6189 12.6216 10V4.16669C12.6216 3.85727 12.4986 3.56052 12.2799 3.34173C12.0611 3.12294 11.7643 3.00002 11.4549 3.00002Z" fill="#5C31D7"/>
</svg>
