<svg width="7" height="11" viewBox="0 0 7 11" fill="none" xmlns="http://www.w3.org/2000/svg">
<path d="M2.875 9.25C2.875 9.9375 2.3125 10.5 1.625 10.5C0.9375 10.5 0.375 9.9375 0.375 9.25C0.375 8.5625 0.9375 8 1.625 8C2.3125 8 2.875 8.5625 2.875 9.25ZM1.625 4.25C0.9375 4.25 0.375 4.8125 0.375 5.5C0.375 6.1875 0.9375 6.75 1.625 6.75C2.3125 6.75 2.875 6.1875 2.875 5.5C2.875 4.8125 2.3125 4.25 1.625 4.25ZM1.625 0.5C0.9375 0.5 0.375 1.0625 0.375 1.75C0.375 2.4375 0.9375 3 1.625 3C2.3125 3 2.875 2.4375 2.875 1.75C2.875 1.0625 2.3125 0.5 1.625 0.5ZM5.375 3C6.0625 3 6.625 2.4375 6.625 1.75C6.625 1.0625 6.0625 0.5 5.375 0.5C4.6875 0.5 4.125 1.0625 4.125 1.75C4.125 2.4375 4.6875 3 5.375 3ZM5.375 4.25C4.6875 4.25 4.125 4.8125 4.125 5.5C4.125 6.1875 4.6875 6.75 5.375 6.75C6.0625 6.75 6.625 6.1875 6.625 5.5C6.625 4.8125 6.0625 4.25 5.375 4.25ZM5.375 8C4.6875 8 4.125 8.5625 4.125 9.25C4.125 9.9375 4.6875 10.5 5.375 10.5C6.0625 10.5 6.625 9.9375 6.625 9.25C6.625 8.5625 6.0625 8 5.375 8Z" fill="#CCCCCC"/>
</svg>
