<svg width="14" height="15" viewBox="0 0 14 15" fill="none" xmlns="http://www.w3.org/2000/svg">
<path d="M8.5 1.41626C8.225 1.41626 8 1.19251 8 0.91626C8 0.64001 8.225 0.41626 8.5 0.41626H13.5C13.775 0.41626 14 0.64001 14 0.91626V5.91626C14 6.19126 13.775 6.41626 13.5 6.41626C13.225 6.41626 13 6.19126 13 5.91626V2.12345L5.85313 9.26939C5.65938 9.46626 5.34062 9.46626 5.14687 9.26939C4.95 9.07563 4.95 8.75689 5.14687 8.56314L12.2937 1.41626H8.5ZM0 2.91626C0 2.08782 0.671562 1.41626 1.5 1.41626H5.5C5.775 1.41626 6 1.64001 6 1.91626C6 2.19251 5.775 2.41626 5.5 2.41626H1.5C1.22375 2.41626 1 2.64126 1 2.91626V12.9163C1 13.1913 1.22375 13.4163 1.5 13.4163H11.5C11.775 13.4163 12 13.1913 12 12.9163V8.91626C12 8.64126 12.225 8.41626 12.5 8.41626C12.775 8.41626 13 8.64126 13 8.91626V12.9163C13 13.7444 12.3281 14.4163 11.5 14.4163H1.5C0.671562 14.4163 0 13.7444 0 12.9163V2.91626Z" fill="black"/>
</svg>
