<svg width="14" height="15" viewBox="0 0 14 15" fill="none" xmlns="http://www.w3.org/2000/svg">
<path d="M11.6667 6.83293C11.512 6.83293 11.3636 6.89438 11.2542 7.00378C11.1448 7.11318 11.0833 7.26155 11.0833 7.41626V10.9163C11.0833 11.071 11.0219 11.2193 10.9125 11.3287C10.8031 11.4381 10.6547 11.4996 10.5 11.4996H3.5C3.34529 11.4996 3.19692 11.4381 3.08752 11.3287C2.97812 11.2193 2.91667 11.071 2.91667 10.9163V3.91626C2.91667 3.76155 2.97812 3.61318 3.08752 3.50378C3.19692 3.39438 3.34529 3.33293 3.5 3.33293H7C7.15471 3.33293 7.30308 3.27147 7.41248 3.16207C7.52187 3.05268 7.58333 2.9043 7.58333 2.74959C7.58333 2.59488 7.52187 2.44651 7.41248 2.33711C7.30308 2.22772 7.15471 2.16626 7 2.16626H3.5C3.03587 2.16626 2.59075 2.35063 2.26256 2.67882C1.93437 3.00701 1.75 3.45213 1.75 3.91626V10.9163C1.75 11.3804 1.93437 11.8255 2.26256 12.1537C2.59075 12.4819 3.03587 12.6663 3.5 12.6663H10.5C10.9641 12.6663 11.4092 12.4819 11.7374 12.1537C12.0656 11.8255 12.25 11.3804 12.25 10.9163V7.41626C12.25 7.26155 12.1885 7.11318 12.0791 7.00378C11.9697 6.89438 11.8214 6.83293 11.6667 6.83293Z" fill="#3F3F46"/>
<path d="M9.33332 3.33293H10.255L6.58582 6.99626C6.53114 7.05049 6.48775 7.11501 6.45813 7.18609C6.42852 7.25717 6.41327 7.33342 6.41327 7.41043C6.41327 7.48743 6.42852 7.56368 6.45813 7.63476C6.48775 7.70585 6.53114 7.77036 6.58582 7.82459C6.64005 7.87927 6.70456 7.92266 6.77565 7.95228C6.84673 7.98189 6.92298 7.99714 6.99998 7.99714C7.07699 7.99714 7.15324 7.98189 7.22432 7.95228C7.29541 7.92266 7.35992 7.87927 7.41415 7.82459L11.0833 4.16126V5.08293C11.0833 5.23764 11.1448 5.38601 11.2542 5.49541C11.3636 5.6048 11.5119 5.66626 11.6667 5.66626C11.8214 5.66626 11.9697 5.6048 12.0791 5.49541C12.1885 5.38601 12.25 5.23764 12.25 5.08293V2.74959C12.25 2.59488 12.1885 2.44651 12.0791 2.33711C11.9697 2.22772 11.8214 2.16626 11.6667 2.16626H9.33332C9.17861 2.16626 9.03024 2.22772 8.92084 2.33711C8.81144 2.44651 8.74998 2.59488 8.74998 2.74959C8.74998 2.9043 8.81144 3.05268 8.92084 3.16207C9.03024 3.27147 9.17861 3.33293 9.33332 3.33293Z" fill="#3F3F46"/>
</svg>
