<svg width="14" height="17" viewBox="0 0 14 17" fill="none" xmlns="http://www.w3.org/2000/svg">
<path d="M8.5 2.41626C8.225 2.41626 8 2.19251 8 1.91626C8 1.64001 8.225 1.41626 8.5 1.41626H13.5C13.775 1.41626 14 1.64001 14 1.91626V6.91626C14 7.19126 13.775 7.41626 13.5 7.41626C13.225 7.41626 13 7.19126 13 6.91626V3.12345L5.85313 10.2694C5.65938 10.4663 5.34062 10.4663 5.14687 10.2694C4.95 10.0756 4.95 9.75689 5.14687 9.56314L12.2937 2.41626H8.5ZM0 3.91626C0 3.08782 0.671562 2.41626 1.5 2.41626H5.5C5.775 2.41626 6 2.64001 6 2.91626C6 3.19251 5.775 3.41626 5.5 3.41626H1.5C1.22375 3.41626 1 3.64126 1 3.91626V13.9163C1 14.1913 1.22375 14.4163 1.5 14.4163H11.5C11.775 14.4163 12 14.1913 12 13.9163V9.91626C12 9.64126 12.225 9.41626 12.5 9.41626C12.775 9.41626 13 9.64126 13 9.91626V13.9163C13 14.7444 12.3281 15.4163 11.5 15.4163H1.5C0.671562 15.4163 0 14.7444 0 13.9163V3.91626Z" fill="#717179"/>
</svg>
