<svg width="252" height="252" viewBox="0 0 252 252" fill="none" xmlns="http://www.w3.org/2000/svg">
<path fill-rule="evenodd" clip-rule="evenodd" d="M193.495 41.3452C194.284 40.8993 195.246 40.8845 196.049 41.3059L223.572 55.7555C224.45 56.2166 225 57.1266 225 58.1185V88.394C225 89.3473 224.492 90.2282 223.666 90.705L197.477 105.833V164.771C197.477 165.726 196.966 166.608 196.138 167.085L168.615 182.91C167.826 183.364 166.859 183.384 166.052 182.964L142.43 170.656V196.423C142.43 197.37 141.928 198.247 141.11 198.726L112.899 215.24C112.074 215.722 111.055 215.727 110.226 215.254L28.3447 168.464C27.5132 167.989 27 167.105 27 166.147V75.3205C27 74.3286 27.5501 73.4186 28.4283 72.9575L55.9515 58.5079C56.7391 58.0943 57.681 58.1005 58.4632 58.5241L111.88 87.458L193.495 41.3452ZM117.419 90.4588L139.723 102.54L216.792 58.2248L194.855 46.7077L117.419 90.4588ZM219.662 62.7317L142.43 107.14V131.466L165.95 117.88C166.776 117.403 167.793 117.403 168.619 117.88C169.445 118.356 169.954 119.237 169.954 120.191V175.984L192.139 163.227V104.293C192.139 103.339 192.648 102.458 193.473 101.982L219.662 86.8536V62.7317ZM164.616 176.197V124.815L142.43 137.63V164.637L164.616 176.197ZM137.093 134.549V110.153L114.219 122.985V147.762L137.093 134.549ZM114.219 153.926L137.093 140.713V194.892L114.219 208.282V153.926ZM108.881 147.794V122.982L32.3377 79.8859V164.598L108.881 208.338V153.937L59.8609 126.014V150.153L86.0456 165.21C87.3234 165.944 87.7636 167.576 87.0289 168.854C86.2941 170.131 84.6627 170.572 83.3849 169.837L55.8617 154.011C55.0336 153.535 54.5232 152.653 54.5232 151.697V121.422C54.5232 120.471 55.0289 119.592 55.8509 119.114C56.6729 118.637 57.6869 118.632 58.513 119.103L108.881 147.794ZM35.2543 75.4025L111.553 118.36L134.234 105.637L57.1724 63.8954L35.2543 75.4025Z" fill="#070A07"/>
</svg>
