<svg width="27" height="24" viewBox="0 0 27 24" fill="none" xmlns="http://www.w3.org/2000/svg">
<g filter="url(#filter0_d_4213_1719)">
<path d="M23.7871 4.81133C22.1698 3.19619 19.5475 3.19619 17.9301 4.81134L5.99337 16.7316C5.86549 16.8593 5.86549 17.0664 5.99337 17.1941L9.17498 20.3713C10.5247 21.7192 12.713 21.7192 14.0627 20.3713L23.7871 10.6603C25.4045 9.04515 25.4045 6.42648 23.7871 4.81133Z" fill="url(#paint0_linear_4213_1719)"/>
<g filter="url(#filter1_d_4213_1719)">
<path d="M9.28866 8.77754C7.66712 7.15602 5.0379 7.15602 3.41635 8.77754C1.79481 10.3991 1.79481 13.0281 3.41635 14.6496L9.3571 20.59C10.6071 21.6023 12.5438 21.7344 14.036 20.4579L16.928 17.566C16.9516 17.5424 16.9736 17.5177 16.9937 17.492L20.9447 13.5412C19.1522 15.3265 16.1403 15.2576 13.9775 13.4663L9.28866 8.77754Z" fill="url(#paint1_linear_4213_1719)"/>
<path d="M9.28866 8.77754C7.66712 7.15602 5.0379 7.15602 3.41635 8.77754C1.79481 10.3991 1.79481 13.0281 3.41635 14.6496L9.3571 20.59C10.6071 21.6023 12.5438 21.7344 14.036 20.4579L16.928 17.566C16.9516 17.5424 16.9736 17.5177 16.9937 17.492L20.9447 13.5412C19.1522 15.3265 16.1403 15.2576 13.9775 13.4663L9.28866 8.77754Z" fill="url(#paint2_linear_4213_1719)"/>
</g>
</g>
<defs>
<filter id="filter0_d_4213_1719" x="0.439577" y="2.19148" width="26.321" height="21.3035" filterUnits="userSpaceOnUse" color-interpolation-filters="sRGB">
<feFlood flood-opacity="0" result="BackgroundImageFix"/>
<feColorMatrix in="SourceAlpha" type="matrix" values="0 0 0 0 0 0 0 0 0 0 0 0 0 0 0 0 0 0 127 0" result="hardAlpha"/>
<feOffset dy="0.352124"/>
<feGaussianBlur stdDeviation="0.880309"/>
<feComposite in2="hardAlpha" operator="out"/>
<feColorMatrix type="matrix" values="0 0 0 0 0.166667 0 0 0 0 0.166667 0 0 0 0 0.166667 0 0 0 0.08 0"/>
<feBlend mode="normal" in2="BackgroundImageFix" result="effect1_dropShadow_4213_1719"/>
<feBlend mode="normal" in="SourceGraphic" in2="effect1_dropShadow_4213_1719" result="shape"/>
</filter>
<filter id="filter1_d_4213_1719" x="0.439577" y="6.15291" width="22.2659" height="17.342" filterUnits="userSpaceOnUse" color-interpolation-filters="sRGB">
<feFlood flood-opacity="0" result="BackgroundImageFix"/>
<feColorMatrix in="SourceAlpha" type="matrix" values="0 0 0 0 0 0 0 0 0 0 0 0 0 0 0 0 0 0 127 0" result="hardAlpha"/>
<feOffset dy="0.352124"/>
<feGaussianBlur stdDeviation="0.880309"/>
<feComposite in2="hardAlpha" operator="out"/>
<feColorMatrix type="matrix" values="0 0 0 0 1 0 0 0 0 1 0 0 0 0 1 0 0 0 0.08 0"/>
<feBlend mode="normal" in2="BackgroundImageFix" result="effect1_dropShadow_4213_1719"/>
<feBlend mode="normal" in="SourceGraphic" in2="effect1_dropShadow_4213_1719" result="shape"/>
</filter>
<linearGradient id="paint0_linear_4213_1719" x1="15.4488" y1="3.59998" x2="15.4488" y2="21.3822" gradientUnits="userSpaceOnUse">
<stop stop-color="#5C31D7"/>
<stop offset="1" stop-color="#9A80E4"/>
</linearGradient>
<linearGradient id="paint1_linear_4213_1719" x1="12.7734" y1="12.3931" x2="11.5687" y2="22.5258" gradientUnits="userSpaceOnUse">
<stop stop-color="#B897FF"/>
<stop offset="1" stop-color="#FFD37C" stop-opacity="0.67"/>
</linearGradient>
<linearGradient id="paint2_linear_4213_1719" x1="3.06152" y1="14.2857" x2="14.1604" y2="17.0808" gradientUnits="userSpaceOnUse">
<stop stop-color="#D1E4FF"/>
<stop offset="1" stop-color="white" stop-opacity="0"/>
</linearGradient>
</defs>
</svg>
