<svg width="16" height="16" viewBox="0 0 16 16" fill="none" xmlns="http://www.w3.org/2000/svg">
<path d="M8 15.5C12.1303 15.5 15.5 12.1602 15.5 8C15.5 3.86839 12.1316 0.5 8 0.5C3.83977 0.5 0.5 3.86966 0.5 8C0.5 12.159 3.84105 15.5 8 15.5ZM9.96875 7.84375C10.0034 7.84375 10.0431 7.85857 10.0766 7.89213C10.1102 7.92569 10.125 7.96538 10.125 8C10.125 8.05506 10.1054 8.09012 10.0818 8.11304C10.0561 8.13801 10.0172 8.15625 9.96875 8.15625H6.03125C5.96214 8.15625 5.92852 8.13352 5.91312 8.11813C5.89773 8.10273 5.875 8.06911 5.875 8C5.875 7.95151 5.89324 7.91267 5.91821 7.88697C5.94113 7.86337 5.97619 7.84375 6.03125 7.84375H9.96875Z" fill="#41802E" stroke="#CFDFCB"/>
</svg>
