<svg width="16" height="16" viewBox="0 0 16 16" fill="none" xmlns="http://www.w3.org/2000/svg">
<path d="M3.25 8C3.25 6.86449 3.63785 5.82776 4.29674 5.02848L7.29159 8.00131L4.2999 10.993C3.63734 10.1735 3.25 9.13442 3.25 8ZM11.6779 5.02919C12.345 5.83192 12.75 6.86973 12.75 8C12.75 9.12927 12.3455 10.1692 11.6748 10.9923L8.7058 8.0013L11.6779 5.02919ZM8 15.5C12.1303 15.5 15.5 12.1602 15.5 8C15.5 3.86839 12.1316 0.5 8 0.5C3.83977 0.5 0.5 3.86966 0.5 8C0.5 12.159 3.84105 15.5 8 15.5Z" fill="#717179" stroke="#DADADA"/>
</svg>
