<svg width="74" height="72" viewBox="0 0 74 72" fill="none" xmlns="http://www.w3.org/2000/svg">
<g clip-path="url(#clip0_3245_65694)">
<path d="M36.5995 0C16.3887 0 0 16.3231 0 36.4592C0 52.5681 10.4868 66.2345 25.029 71.0555C26.8581 71.3929 27.5298 70.2646 27.5298 69.3015C27.5298 68.4323 27.4956 65.56 27.4801 62.5135C17.2978 64.719 15.1493 58.2118 15.1493 58.2118C13.4844 53.9976 11.0856 52.8772 11.0856 52.8772C7.7651 50.6143 11.3359 50.6606 11.3359 50.6606C15.0112 50.918 16.9465 54.4179 16.9465 54.4179C20.2107 59.9918 25.5084 58.3802 27.5969 57.4489C27.9253 55.0922 28.874 53.484 29.9205 52.5736C21.7915 51.6514 13.2456 48.5252 13.2456 34.5551C13.2456 30.5748 14.6754 27.3222 17.0168 24.769C16.6368 23.8505 15.3841 20.1424 17.3713 15.1204C17.3713 15.1204 20.4447 14.1405 27.4388 18.8577C30.358 18.0496 33.4891 17.6447 36.5995 17.631C39.7099 17.6447 42.8432 18.0496 45.7682 18.8577C52.754 14.1405 55.8231 15.1204 55.8231 15.1204C57.8151 20.1424 56.5619 23.8505 56.1819 24.769C58.5284 27.3222 59.9485 30.5745 59.9485 34.5551C59.9485 48.5583 51.3865 51.642 43.2368 52.5444C44.5494 53.6759 45.7191 55.8948 45.7191 59.2961C45.7191 64.1743 45.6767 68.1006 45.6767 69.3015C45.6767 70.2718 46.3354 71.4087 48.1909 71.0507C62.725 66.2242 73.1987 52.5627 73.1987 36.4592C73.1987 16.3231 56.8122 0 36.5995 0Z" fill="#161614"/>
<path d="M13.7077 51.937C13.6274 52.118 13.3409 52.1724 13.0806 52.0483C12.815 51.9293 12.6658 51.6823 12.7519 51.5004C12.8308 51.314 13.1173 51.2619 13.3822 51.3872C13.6483 51.5058 13.7999 51.7552 13.7077 51.937ZM15.5081 53.5372C15.3336 53.6984 14.9923 53.6235 14.7606 53.3688C14.5212 53.1146 14.4765 52.7749 14.6536 52.611C14.8335 52.45 15.1645 52.5252 15.4045 52.7797C15.6439 53.0368 15.6904 53.3745 15.5078 53.5375L15.5081 53.5372ZM16.7432 55.5845C16.5188 55.7398 16.1519 55.5943 15.9254 55.27C15.7013 54.946 15.7013 54.5571 15.9303 54.4013C16.1577 54.2455 16.5188 54.3856 16.7484 54.7073C16.9723 55.037 16.9723 55.4258 16.7429 55.5848L16.7432 55.5845ZM18.8318 57.9559C18.6311 58.176 18.204 58.1171 17.8911 57.8163C17.5714 57.5224 17.4821 57.1052 17.6833 56.8847C17.8862 56.664 18.3159 56.726 18.6311 57.0243C18.9489 57.3176 19.0459 57.738 18.8321 57.9559H18.8318ZM21.5311 58.7565C21.443 59.0419 21.0314 59.1717 20.6169 59.0504C20.203 58.9255 19.932 58.5909 20.0155 58.3024C20.1016 58.015 20.515 57.8798 20.9326 58.0096C21.346 58.134 21.6175 58.466 21.5314 58.7565H21.5311ZM24.6036 59.0959C24.614 59.3967 24.2623 59.6461 23.8272 59.6515C23.3894 59.6609 23.0355 59.4176 23.0309 59.1219C23.0309 58.8183 23.3745 58.5712 23.812 58.5641C24.2471 58.5555 24.6036 58.7971 24.6036 59.0959ZM27.6216 58.9807C27.6739 59.2741 27.3713 59.5754 26.9393 59.6555C26.5145 59.7327 26.1212 59.5517 26.067 59.2609C26.0142 58.9601 26.3225 58.659 26.7464 58.5809C27.1793 58.506 27.5665 58.6824 27.6216 58.9807Z" fill="#161614"/>
</g>
<defs>
<clipPath id="clip0_3245_65694">
<rect width="73.4831" height="71.2104" fill="white"/>
</clipPath>
</defs>
</svg>
