<svg width="16" height="16" viewBox="0 0 16 16" fill="none" xmlns="http://www.w3.org/2000/svg">
<path d="M9.21386 1.08505L9.18212 1.04796L9.14381 1.01771L8.83398 1.41016C9.14381 1.01771 9.14375 1.01767 9.14369 1.01762L9.14357 1.01753L9.14328 1.0173L9.14255 1.01673L9.14053 1.01514L9.13425 1.01025L9.11314 0.994091C9.09548 0.980702 9.07069 0.96221 9.04026 0.940302C8.97991 0.896851 8.89492 0.838174 8.7977 0.778652C8.70193 0.72002 8.58552 0.655138 8.46335 0.603514C8.35011 0.555669 8.18818 0.5 8.01367 0.5C7.51376 0.5 7.08483 0.748887 6.79231 1.07797L6.79223 1.0779L6.78539 1.08592L1.7604 6.98483C1.22958 7.56538 1.24695 8.44825 1.7554 9.03664L6.78539 14.9414L6.78531 14.9415L6.79231 14.9494C7.1046 15.3007 7.54072 15.5 8.01367 15.5C8.46584 15.5 8.8999 15.2956 9.20769 14.9494L9.20777 14.9494L9.21461 14.9414L14.2446 9.03664C14.761 8.43903 14.7609 7.56041 14.2442 6.96293C14.2438 6.96249 14.2435 6.96204 14.2431 6.9616L9.21386 1.08505Z" fill="#E24858" stroke="#F6C8CD"/>
</svg>
