<svg width="16" height="16" viewBox="0 0 16 16" fill="none" xmlns="http://www.w3.org/2000/svg">
<path d="M0.842211 6.72028L0.842188 6.72026L0.839643 6.72477C0.389287 7.52155 0.383205 8.47259 0.842887 9.2527L3.32101 13.5612C3.32133 13.5618 3.32166 13.5624 3.32198 13.5629C3.78134 14.3742 4.62795 14.8303 5.50453 14.8303H10.4955C11.4042 14.8303 12.2206 14.3709 12.678 13.5629C12.6783 13.5624 12.6787 13.5618 12.679 13.5612L15.1571 9.25271C15.6168 8.47259 15.6107 7.52155 15.1604 6.72477L15.1604 6.72475L15.1578 6.72028L12.6776 2.4364C12.2201 1.62889 11.4039 1.16969 10.4955 1.16969H5.50453C4.59608 1.16969 3.77985 1.62889 3.32235 2.4364L0.842211 6.72028Z" fill="#FFBA0D" stroke="#FFEAB6"/>
</svg>
