<svg width="64" height="65" viewBox="0 0 64 65" fill="none" xmlns="http://www.w3.org/2000/svg">
<path d="M4.36375 57.0126H14.5455V32.2852L0 21.376V52.6491C0 55.06 1.95275 57.0129 4.36375 57.0129V57.0126Z" fill="#4285F4"/>
<path d="M49.4545 57.0124H59.6363C62.0471 57.0124 63.9999 55.0596 63.9999 52.6487V21.376L49.4545 32.2851V57.0124Z" fill="#34A853"/>
<path d="M49.4545 13.3759V32.2848L63.9999 21.3758V15.5578C63.9999 10.1651 57.8437 7.08511 53.5272 10.3215L49.4545 13.3759Z" fill="#FBBC04"/>
<path fill-rule="evenodd" clip-rule="evenodd" d="M14.5455 32.2851V13.376L32 26.467L49.4545 13.376V32.2851L32 45.376L14.5455 32.2851Z" fill="#EA4335"/>
<path d="M0 15.5578V21.3759L14.5455 32.2849V13.3759L10.4727 10.3215C6.15625 7.08511 0 10.1651 0 15.5575V15.5578Z" fill="#C5221F"/>
</svg>
