<?xml version="1.0" encoding="UTF-8"?><!DOCTYPE svg PUBLIC "-//W3C//DTD SVG 1.1//EN" "http://www.w3.org/Graphics/SVG/1.1/DTD/svg11.dtd"><svg xmlns="http://www.w3.org/2000/svg" xmlns:xlink="http://www.w3.org/1999/xlink" version="1.1" id="Layer_1" x="0px" y="0px" width="64px" height="64px" viewBox="0 0 64 64" xml:space="preserve"><path fill="#FF7976" d="M32.709.835c-9.453 0-17.881 4.146-23.591 10.719a31.082 31.082 0 0 0-4.417 6.641l10.501 8.021a18.416 18.416 0 0 1 6.64-9.104 18.38 18.38 0 0 1 10.866-3.527c4.398 0 8.37 1.559 11.491 4.109l9.079-9.066C47.747 3.81 40.654.835 32.709.835z"/><path fill="#E3443A" d="M4.702 18.194l10.501 8.021a18.416 18.416 0 0 1 6.64-9.104 18.38 18.38 0 0 1 10.866-3.527c4.398 0 8.37 1.559 11.491 4.109l9.079-9.066C47.746 3.811 40.654.835 32.709.835"/><path fill="#F4D72C" d="M14.268 32c0-.287.021-.57.034-.854.082-1.716.387-3.37.901-4.931L4.702 18.194c-1.931 3.917-3.051 8.303-3.177 12.952-.008.285-.025.568-.025.854 0 .287.017.571.024.856.126 4.643 1.246 9.027 3.172 12.94l10.498-8.036a18.523 18.523 0 0 1-.892-4.905c-.013-.284-.034-.567-.034-.855z"/><path fill="#F7B92B" d="M4.697 45.796l10.498-8.036a18.523 18.523 0 0 1-.892-4.905c-.013-.285-.034-.568-.034-.856 0-.287.021-.57.034-.854.082-1.716.387-3.37.901-4.931l-10.502-8.02"/><path fill="#59C96E" d="M43.074 47.691c-2.813 1.772-6.356 2.725-10.365 2.725a18.436 18.436 0 0 1-10.867-3.544 18.367 18.367 0 0 1-6.64-9.086l-10.501 8.02a31.046 31.046 0 0 0 4.409 6.631c5.71 6.58 14.144 10.729 23.599 10.729 2.86 0 5.671-.382 8.355-1.126 4.462-1.238 8.574-3.479 11.979-6.641l-9.969-7.708z"/><path fill="#40A557" d="M4.702 45.806a31.046 31.046 0 0 0 4.409 6.631c5.71 6.58 14.144 10.729 23.599 10.729 2.86 0 5.671-.382 8.355-1.126 4.462-1.238 8.574-3.479 11.979-6.641l-9.97-7.707c-2.813 1.772-6.356 2.725-10.365 2.725a18.436 18.436 0 0 1-10.867-3.544"/><path fill="#0FAEF4" d="M61.791 26H33v12h16.449c-.837 4-3.115 7.636-6.375 9.691l9.97 7.707c2.734-2.538 5.005-5.723 6.639-9.407 1.792-4.036 2.817-8.87 2.817-14.182 0-1.84-.283-3.809-.709-5.809z"/><path fill="#4087ED" d="M53.044 55.398c2.734-2.538 5.025-5.759 6.659-9.443 1.792-4.036 2.807-8.852 2.807-14.163 0-1.841-.293-3.792-.719-5.792H60"/><path fill="#4087ED" d="M33 31v7h16"/><metadata><rdf:RDF xmlns:rdf="http://www.w3.org/1999/02/22-rdf-syntax-ns#" xmlns:rdfs="http://www.w3.org/2000/01/rdf-schema#" xmlns:dc="http://purl.org/dc/elements/1.1/"><rdf:Description about="https://iconscout.com/legal#licenses" dc:title="google" dc:description="google" dc:publisher="Iconscout" dc:date="2018-01-30" dc:format="image/svg+xml" dc:language="en"><dc:creator><rdf:Bag><rdf:li>Roundicons.com</rdf:li></rdf:Bag></dc:creator></rdf:Description></rdf:RDF></metadata></svg>