<svg width="142" height="22" viewBox="0 0 142 22" fill="none" xmlns="http://www.w3.org/2000/svg">
<path d="M10.5655 0L13.0496 7.14644L20.6139 7.30059L14.5849 11.8715L16.7758 19.1132L10.5655 14.7917L4.35526 19.1132L6.54615 11.8715L0.517113 7.30059L8.08141 7.14644L10.5655 0Z" fill="#B6FF9C"/>
<path d="M40.5655 0L43.0496 7.14644L50.6139 7.30059L44.5849 11.8715L46.7758 19.1132L40.5655 14.7917L34.3553 19.1132L36.5462 11.8715L30.5171 7.30059L38.0814 7.14644L40.5655 0Z" fill="#B6FF9C"/>
<path d="M70.5655 0L73.0496 7.14644L80.6139 7.30059L74.5849 11.8715L76.7758 19.1132L70.5655 14.7917L64.3553 19.1132L66.5462 11.8715L60.5171 7.30059L68.0814 7.14644L70.5655 0Z" fill="#B6FF9C"/>
<path d="M100.566 0L103.05 7.14644L110.614 7.30059L104.585 11.8715L106.776 19.1132L100.566 14.7917L94.3553 19.1132L96.5462 11.8715L90.5171 7.30059L98.0814 7.14644L100.566 0Z" fill="#B6FF9C"/>
<path d="M130.566 0L133.05 7.14644L140.614 7.30059L134.585 11.8715L136.776 19.1132L130.566 14.7917L124.355 19.1132L126.546 11.8715L120.517 7.30059L128.081 7.14644L130.566 0Z" fill="#B6FF9C"/>
</svg>
