<svg width="165" height="30" viewBox="0 0 165 30" fill="none" xmlns="http://www.w3.org/2000/svg">
<path d="M52.8176 26.8012C50.4427 26.8012 48.3432 26.3347 46.5191 25.4018C44.6951 24.4473 43.285 23.1006 42.2882 21.3616C41.2915 19.6226 40.7932 17.5761 40.7932 15.222C40.7932 12.868 41.2915 10.8214 42.2882 9.08244C43.285 7.32217 44.6951 5.97552 46.5191 5.04238C48.3432 4.08804 50.4427 3.61084 52.8176 3.61084C54.4296 3.61084 55.8505 3.78053 57.0804 4.11985C58.332 4.43797 59.477 4.94693 60.5159 5.6468V10.2594C59.583 9.49595 58.5122 8.94457 57.3033 8.60524C56.1156 8.2447 54.7585 8.06446 53.2315 8.06446C51.8106 8.06446 50.5271 8.36136 49.3821 8.95517C48.2582 9.52777 47.3676 10.3549 46.7101 11.4365C46.0527 12.518 45.7237 13.7799 45.7237 15.222C45.7237 16.6853 46.0208 17.9684 46.6144 19.0712C47.2296 20.1528 48.0884 20.9905 49.1911 21.5843C50.2939 22.1781 51.5666 22.475 53.0086 22.475C54.3235 22.475 55.4685 22.2417 56.4441 21.7751V17.4806H52.8495V13.9178H61.1203V24.6383C59.0209 26.0804 56.2536 26.8012 52.8176 26.8012Z" fill="white"/>
<path d="M62.2374 11.0546H66.8817V13.2496C67.4969 12.5074 68.3557 11.9453 69.4584 11.5636C70.5612 11.1607 71.8127 10.9592 73.2121 10.9592V14.6175C71.7489 14.6175 70.4552 14.8402 69.3313 15.2856C68.2285 15.7309 67.465 16.4096 67.0408 17.3215V26.3243H62.2374V11.0546Z" fill="white"/>
<path d="M82.4431 26.8012C79.5163 26.8012 77.2151 26.1016 75.5398 24.7017C73.8645 23.281 73.0269 21.2981 73.0269 18.7531C73.0269 16.2294 73.7692 14.2359 75.2535 12.7726C76.7594 11.3093 78.9011 10.5776 81.6797 10.5776C83.5032 10.5776 85.0513 10.917 86.324 11.5956C87.5962 12.2742 88.5614 13.218 89.2189 14.4268C89.8763 15.6144 90.2048 16.9611 90.2048 18.4668V20.4074H77.6078C77.9471 22.3585 79.7707 23.334 83.079 23.334C84.0546 23.334 85.0621 23.2492 86.1011 23.0795C87.1405 22.9099 88.042 22.6765 88.8055 22.3796V25.7515C88.0631 26.0697 87.1086 26.3245 85.942 26.515C84.7759 26.706 83.6093 26.8012 82.4431 26.8012ZM85.6557 17.2898C85.5924 16.2719 85.2104 15.4872 84.5107 14.9358C83.8111 14.3632 82.8458 14.0769 81.6158 14.0769C80.407 14.0769 79.4525 14.3632 78.7528 14.9358C78.0532 15.5084 77.6712 16.2931 77.6078 17.2898H85.6557Z" fill="white"/>
<path d="M100.051 26.8012C97.1251 26.8012 94.8239 26.1016 93.1486 24.7017C91.4733 23.281 90.6352 21.2981 90.6352 18.7531C90.6352 16.2294 91.3776 14.2359 92.8623 12.7726C94.3677 11.3093 96.5099 10.5776 99.288 10.5776C101.112 10.5776 102.66 10.917 103.933 11.5956C105.205 12.2742 106.17 13.218 106.827 14.4268C107.485 15.6144 107.814 16.9611 107.814 18.4668V20.4074H95.2162C95.5554 22.3585 97.3795 23.334 100.688 23.334C101.663 23.334 102.671 23.2492 103.71 23.0795C104.749 22.9099 105.65 22.6765 106.414 22.3796V25.7515C105.671 26.0697 104.717 26.3245 103.551 26.515C102.384 26.706 101.218 26.8012 100.051 26.8012ZM103.265 17.2898C103.201 16.2719 102.819 15.4872 102.12 14.9358C101.419 14.3632 100.455 14.0769 99.2246 14.0769C98.0158 14.0769 97.0613 14.3632 96.3616 14.9358C95.6615 15.5084 95.28 16.2931 95.2162 17.2898H103.265Z" fill="white"/>
<path d="M108.88 11.0548H113.524V12.9317C114.224 12.147 115.051 11.5638 116.006 11.182C116.981 10.7791 117.999 10.5776 119.06 10.5776C121.138 10.5776 122.686 11.1396 123.704 12.2636C124.743 13.3664 125.263 14.8616 125.263 16.749V26.3245H120.459V17.2898C120.459 15.3175 119.547 14.3314 117.723 14.3314C116.917 14.3314 116.165 14.5328 115.465 14.9358C114.765 15.3175 114.171 15.8902 113.683 16.6536V26.3245H108.88V11.0548Z" fill="white"/>
<path d="M129.501 8.70055C128.759 8.70055 128.133 8.45668 127.624 7.96887C127.115 7.48112 126.86 6.8661 126.86 6.12381C126.86 5.40278 127.115 4.79837 127.624 4.31057C128.133 3.8016 128.759 3.54712 129.501 3.54712C130.243 3.54712 130.868 3.8016 131.378 4.31057C131.887 4.79837 132.141 5.40278 132.141 6.12381C132.141 6.8661 131.887 7.48112 131.378 7.96887C130.868 8.45668 130.243 8.70055 129.501 8.70055ZM127.083 11.0546H131.919V26.3243H127.083V11.0546Z" fill="white"/>
<path d="M140.11 26.8012C138.965 26.8012 137.735 26.6741 136.42 26.4197C135.127 26.1865 134.109 25.8472 133.366 25.4019V21.648C134.215 22.157 135.233 22.5705 136.42 22.8886C137.608 23.2068 138.711 23.3658 139.729 23.3658C140.598 23.3658 141.235 23.2916 141.637 23.1431C142.04 22.9946 142.242 22.719 142.242 22.316C142.242 21.9979 142.125 21.7434 141.892 21.5525C141.659 21.3405 141.298 21.1602 140.81 21.0118C140.344 20.8421 139.559 20.5982 138.456 20.2801C137.163 19.8984 136.145 19.5166 135.403 19.1349C134.681 18.7319 134.13 18.2336 133.748 17.6398C133.388 17.046 133.207 16.2825 133.207 15.3493C133.207 13.7587 133.833 12.5711 135.084 11.7865C136.357 10.9805 138.075 10.5776 140.238 10.5776C141.298 10.5776 142.39 10.6942 143.514 10.9276C144.659 11.1396 145.54 11.4259 146.155 11.7865V15.4448C145.54 15.0418 144.734 14.7131 143.737 14.4586C142.762 14.2041 141.807 14.0769 140.874 14.0769C140.004 14.0769 139.326 14.1617 138.838 14.3314C138.372 14.501 138.138 14.8191 138.138 15.2857C138.138 15.6886 138.361 15.9962 138.806 16.2083C139.273 16.4203 140.132 16.6854 141.383 17.0035L142.019 17.1626C143.355 17.5231 144.394 17.9261 145.137 18.3714C145.879 18.7956 146.398 19.3151 146.696 19.9302C147.014 20.524 147.173 21.2769 147.173 22.1888C147.173 23.5886 146.568 24.7125 145.36 25.561C144.151 26.3878 142.401 26.8012 140.11 26.8012Z" fill="white"/>
<path d="M148.284 2.81543H153.087V12.8042C153.808 12.0619 154.625 11.5106 155.537 11.15C156.448 10.7683 157.424 10.5774 158.463 10.5774C160.542 10.5774 162.09 11.1394 163.108 12.2634C164.147 13.3662 164.667 14.8613 164.667 16.7488V26.3243H159.863V17.2896C159.863 15.3173 158.951 14.3312 157.127 14.3312C156.321 14.3312 155.568 14.5326 154.869 14.9356C154.169 15.3173 153.575 15.8899 153.087 16.6534V26.3243H148.284V2.81543Z" fill="white"/>
<path fill-rule="evenodd" clip-rule="evenodd" d="M24.3886 7.31661C24.3886 11.3575 21.1131 14.6332 17.0722 14.6332C13.0313 14.6332 9.75557 11.3575 9.75557 7.31661C9.75557 3.27576 13.0313 0 17.0722 0C21.1131 0 24.3886 3.27576 24.3886 7.31661ZM0.0531691 14.1015C8.02445 13.5642 14.9717 19.5323 15.6188 27.5206C15.6858 28.3484 15.6826 29.1654 15.6141 29.9664C7.64285 30.5037 0.695642 24.5356 0.0485237 16.5474C-0.0184875 15.7196 -0.0152969 14.9023 0.0531691 14.1015ZM20.7717 29.6867C28.7598 29.0396 34.7279 22.0923 34.1906 14.1211C33.3896 14.0526 32.5726 14.0494 31.7448 14.1165C23.7565 14.7635 17.7885 21.7107 18.3258 29.682C19.1267 29.7505 19.9439 29.7538 20.7717 29.6867Z" fill="white"/>
</svg>
