<?xml version="1.0" encoding="UTF-8"?>
<svg width="85px" height="69px" viewBox="0 0 85 69" version="1.1" xmlns="http://www.w3.org/2000/svg" xmlns:xlink="http://www.w3.org/1999/xlink">
    <title>gt-logo-single-color</title>
    <g id="Page-1" stroke="none" stroke-width="1" fill="none" fill-rule="evenodd">
        <g id="gt-logo-single-color">
            <polygon id="Rectangle" fill="#FFFFFF" transform="translate(28.169297, 42.333430) rotate(30.000000) translate(-28.169297, -42.333430) " points="4.40249954 28.6995558 35.2695665 28.5064512 51.9360936 56.1604083 20.0180058 55.746406"></polygon>
            <polygon id="Rectangle" fill="#FFFFFF" transform="translate(66.014745, 26.369277) rotate(30.000000) translate(-66.014745, -26.369277) " points="55.3911716 36.3336155 71.3857498 8.10539406 76.6383186 17.2031102 60.1829161 44.6331604"></polygon>
            <polygon id="Rectangle" fill="#FFFFFF" transform="translate(65.737701, 40.859809) rotate(30.000000) translate(-65.737701, -40.859809) " points="57.715693 36.8578506 62.8739427 27.8598092 73.7597082 46.9454175 68.3572472 53.8598092"></polygon>
            <polygon id="Rectangle" fill="#FFFFFF" transform="translate(60.777556, 18.950391) rotate(30.000000) translate(-60.777556, -18.950391) " points="48.0903411 32.4238021 63.5962341 5.06365022 73.4647701 4.80348778 57.6837999 32.339793 58.1211434 33.0972943"></polygon>
            <polygon id="Rectangle" fill="#FFFFFF" transform="translate(46.832637, 47.367598) rotate(30.000000) translate(-46.832637, -47.367598) " points="36.0794835 38.0353411 42.3220957 29.5558029 57.5857897 55.9932964 51.7511098 65.1793941"></polygon>
            <polygon id="Rectangle" fill="#FFFFFF" transform="translate(33.352538, 24.436151) rotate(30.000000) translate(-33.352538, -24.436151) " points="20.4489874 20.5100819 52.7432014 19.3648418 46.0791555 29.507461 13.9618752 28.7486076"></polygon>
            <polygon id="Rectangle" fill="#FFFFFF" transform="translate(58.491116, 42.831766) rotate(30.000000) translate(-58.491116, -42.831766) " points="51.4633987 43.0607584 56.1206315 33.5042987 65.5188339 51.9957778 56.7164059 52.1592336"></polygon>
            <path d="M70.1078,7.2858 C70.3772,7.1336 70.7053,7.1286 70.9792,7.2723 L80.3721,12.2036 C80.6718,12.3609 80.8595,12.6715 80.8595,13.01 L80.8595,23.3421 C80.8595,23.6675 80.686,23.9681 80.4043,24.1308 L71.4667,29.2935 L71.4667,49.4072 C71.4667,49.7332 71.2925,50.0343 71.0099,50.1968 L61.6171,55.5977 C61.3476,55.7526 61.0178,55.7595 60.7422,55.6159 L52.681,51.4157 L52.681,60.209 C52.681,60.5325 52.5095,60.8316 52.2303,60.995 L42.6027,66.6307 C42.3214,66.7954 41.9736,66.7972 41.6907,66.6355 L13.747,50.6677 C13.46322,50.5055 13.28809,50.2037 13.28809,49.8769 L13.28809,18.8805 C13.28809,18.542 13.47581,18.2315 13.77551,18.0741 L23.1683,13.1429 C23.4371,13.0018 23.7586,13.0038 24.0255,13.1484 L42.2549,23.0227 L70.1078,7.2858 Z M44.1455,24.0468 L51.757,28.1696 L78.0584,13.0463 L70.5719,9.1159 L44.1455,24.0468 Z M79.0379,14.5843 L52.681,29.7396 L52.681,38.0412 L60.7075,33.4048 C60.9893,33.242 61.3365,33.242 61.6184,33.4047 C61.9002,33.5673 62.0738,33.868 62.0738,34.1935 L62.0738,53.2338 L69.6451,48.8803 L69.6451,28.7678 C69.6451,28.4425 69.8186,28.1419 70.1003,27.9791 L79.0379,22.8164 L79.0379,14.5843 Z M60.2522,53.3066 L60.2522,35.7714 L52.681,40.1449 L52.681,49.3616 L60.2522,53.3066 Z M50.8594,39.0934 L50.8594,30.7679 L43.0534,35.1469 L43.0534,43.6025 L50.8594,39.0934 Z M43.0534,45.7062 L50.8594,41.1971 L50.8594,59.6868 L43.0534,64.2562 L43.0534,45.7062 Z M41.2318,43.6135 L41.2318,35.146 L15.1097,20.4386 L15.1097,49.3483 L41.2318,64.2752 L41.2318,45.7099 L24.5025,36.1805 L24.5025,44.4187 L33.4386,49.557 C33.8746,49.8077 34.0249,50.3645 33.7741,50.8005 C33.5234,51.2366 32.9666,51.3868 32.5305,51.1361 L23.1377,45.7352 C22.8551,45.5727 22.6809,45.2716 22.6809,44.9456 L22.6809,34.6135 C22.6809,34.2891 22.8535,33.9891 23.134,33.8261 C23.4145,33.663 23.7606,33.6615 24.0425,33.8221 L41.2318,43.6135 Z M16.105,18.9085 L42.1434,33.5687 L49.8837,29.2266 L23.585,14.9815 L16.105,18.9085 Z" id="Shape" fill="#222721"></path>
        </g>
    </g>
</svg>