<svg width="144" height="60" viewBox="0 0 144 60" fill="none" xmlns="http://www.w3.org/2000/svg">
<path fill-rule="evenodd" clip-rule="evenodd" d="M48.5986 7.10589C48.7789 7.00065 48.9986 6.99715 49.182 7.0966L55.4695 10.5069C55.6702 10.6158 55.7958 10.8305 55.7958 11.0646V18.2101C55.7958 18.4351 55.6797 18.643 55.4911 18.7556L49.5082 22.326L49.5082 36.2362C49.5082 36.4616 49.3916 36.6699 49.2025 36.7823L42.9149 40.5174C42.7346 40.6245 42.5138 40.6293 42.3293 40.53L36.9331 37.6252L36.9331 43.7065C36.9331 43.9302 36.8183 44.1371 36.6314 44.2501L30.1867 48.1476C29.9984 48.2615 29.7656 48.2627 29.5762 48.1509L10.8707 37.1079C10.6807 36.9958 10.5635 36.787 10.5635 36.561L10.5635 15.1246C10.5635 14.8905 10.6891 14.6757 10.8898 14.5669L17.1773 11.1565C17.3573 11.0589 17.5724 11.0604 17.7511 11.1604L29.9539 17.9892L48.5986 7.10589Z" fill="white"/>
<path fill-rule="evenodd" clip-rule="evenodd" d="M48.5986 7.10589C48.7789 7.00065 48.9986 6.99715 49.182 7.0966L55.4695 10.5069C55.6702 10.6158 55.7958 10.8305 55.7958 11.0646V18.2101C55.7958 18.4351 55.6797 18.643 55.4911 18.7556L49.5082 22.326L49.5082 36.2362C49.5082 36.4616 49.3916 36.6699 49.2025 36.7823L42.9149 40.5174C42.7346 40.6245 42.5138 40.6293 42.3293 40.53L36.9331 37.6252L36.9331 43.7065C36.9331 43.9302 36.8183 44.1371 36.6314 44.2501L30.1867 48.1476C29.9984 48.2615 29.7656 48.2627 29.5762 48.1509L10.8707 37.1079C10.6807 36.9958 10.5635 36.787 10.5635 36.561L10.5635 15.1246C10.5635 14.8905 10.6891 14.6757 10.8898 14.5669L17.1773 11.1565C17.3573 11.0589 17.5724 11.0604 17.7511 11.1604L29.9539 17.9892L48.5986 7.10589ZM31.2194 18.6974L36.3146 21.5487L53.9208 11.0897L48.9093 8.37153L31.2194 18.6974ZM54.5764 12.1534L36.9331 22.6345V28.3757L42.306 25.1693C42.4947 25.0567 42.7271 25.0566 42.9158 25.1692C43.1045 25.2817 43.2207 25.4896 43.2207 25.7147L43.2207 38.8826L48.2889 35.8718L48.2889 21.9624C48.2889 21.7374 48.405 21.5295 48.5936 21.417L54.5764 17.8465V12.1534ZM42.0013 38.9329V26.806L36.9331 29.8305V36.2047L42.0013 38.9329ZM35.7137 29.1034V23.3456L30.4884 26.3741V32.2218L35.7137 29.1034ZM30.4884 33.6766L35.7137 30.5582L35.7137 43.3453L30.4884 46.5054L30.4884 33.6766ZM29.269 32.2294V26.3734L11.7829 16.2021L11.7829 36.1955L29.269 46.5186L29.269 33.6792L18.0704 27.0889V32.7863L24.0522 36.3397C24.3441 36.5132 24.4447 36.8982 24.2768 37.1998C24.109 37.5014 23.7363 37.6053 23.4444 37.4319L17.1568 33.6967C16.9677 33.5843 16.851 33.3761 16.851 33.1507V26.0052C16.851 25.7808 16.9666 25.5734 17.1544 25.4606C17.3421 25.3479 17.5738 25.3468 17.7625 25.4579L29.269 32.2294ZM12.4491 15.1439L29.8792 25.2826L35.0606 22.2797L17.4562 12.4281L12.4491 15.1439Z" fill="#222721"/>
<path d="M61.0165 26.3535H66.4C66.4 26.9262 66.377 27.4465 66.3308 27.9143C66.2847 28.382 66.1925 28.8164 66.0541 29.2173C65.8603 29.7805 65.5974 30.2817 65.2652 30.7208C64.9331 31.1504 64.541 31.5131 64.0889 31.8091C63.646 32.0954 63.157 32.315 62.6219 32.4677C62.0868 32.6205 61.524 32.6968 60.9335 32.6968C60.1216 32.6968 59.3789 32.5584 58.7053 32.2816C58.041 32.0048 57.469 31.6181 56.9893 31.1217C56.5095 30.6158 56.1358 30.0144 55.8683 29.3175C55.6007 28.6111 55.4669 27.8331 55.4669 26.9835C55.4669 26.1435 55.5961 25.375 55.8544 24.6781C56.122 23.9717 56.4956 23.3703 56.9754 22.8739C57.4644 22.3775 58.0503 21.9909 58.733 21.7141C59.4158 21.4372 60.1769 21.2988 61.0165 21.2988C62.1052 21.2988 63.0601 21.5423 63.8813 22.0291C64.7024 22.516 65.3529 23.2701 65.8326 24.2915L63.2585 25.3941C63.0186 24.8022 62.7049 24.3774 62.3174 24.1197C61.9391 23.8619 61.5055 23.7331 61.0165 23.7331C60.6106 23.7331 60.2415 23.8142 59.9094 23.9765C59.5772 24.1292 59.2912 24.3536 59.0513 24.6495C58.8207 24.9359 58.6361 25.2843 58.4977 25.6948C58.3686 26.1053 58.304 26.5635 58.304 27.0694C58.304 27.5276 58.3594 27.9524 58.4701 28.3438C58.59 28.7352 58.7653 29.0741 58.996 29.3605C59.2266 29.6469 59.5126 29.8712 59.854 30.0335C60.1954 30.1862 60.5921 30.2626 61.0442 30.2626C61.3118 30.2626 61.5701 30.234 61.8192 30.1767C62.0683 30.1099 62.2897 30.0096 62.4835 29.876C62.6865 29.7328 62.8525 29.5514 62.9817 29.3319C63.1109 29.1123 63.1985 28.845 63.2447 28.53H61.0165V26.3535Z" fill="#222721"/>
<path d="M75.4124 23.9765H72.1878V25.7807H75.2325V28.1577H72.1878V30.0192H75.4124V32.3961H69.4753V21.5995H75.4124V23.9765Z" fill="#222721"/>
<path d="M79.098 32.3961V21.5995H81.8105L86.8204 28.2006V21.5995L89.5191 21.5995V32.3961H86.8204L81.8105 25.795V32.3961H79.098Z" fill="#222721"/>
<path d="M99.3746 23.9765H96.15V25.7807H99.1947V28.1577H96.15V30.0192H99.3746V32.3961H93.4375V21.5995H99.3746V23.9765Z" fill="#222721"/>
<path d="M105.773 26.4251H106.285C106.82 26.4251 107.23 26.3105 107.516 26.0814C107.802 25.8523 107.945 25.523 107.945 25.0934C107.945 24.6638 107.802 24.3345 107.516 24.1054C107.23 23.8763 106.82 23.7617 106.285 23.7617H105.773V26.4251ZM111.737 32.3961H108.361L105.773 28.2436V32.3961H103.06V21.5995H107.281C107.862 21.5995 108.37 21.6902 108.804 21.8716C109.237 22.0434 109.592 22.2821 109.869 22.5875C110.155 22.893 110.367 23.2462 110.506 23.6472C110.653 24.0481 110.727 24.4777 110.727 24.9359C110.727 25.7568 110.533 26.4251 110.146 26.9406C109.768 27.4465 109.205 27.7902 108.458 27.9715L111.737 32.3961Z" fill="#222721"/>
<path d="M119.722 28.3868L118.505 24.7927L117.287 28.3868H119.722ZM120.442 30.5203H116.567L115.944 32.3961H113.052L117.024 21.5995H119.985L123.957 32.3961H121.065L120.442 30.5203Z" fill="#222721"/>
<path d="M129.587 21.5995V30.0192H132.839V32.3961H126.874V21.5995H129.587Z" fill="#222721"/>
<path d="M60.4492 39.6995L60.4492 48.1191H57.7367L57.7367 39.6995H55.5085V37.3225H62.6773V39.6995H60.4492Z" fill="#222721"/>
<path d="M70.8014 44.1097L69.5835 40.5156L68.3657 44.1097H70.8014ZM71.521 46.2433H67.646L67.0232 48.1191H64.1308L68.1027 37.3225H71.0643L75.0363 48.1191H72.1438L71.521 46.2433Z" fill="#222721"/>
<path d="M82.8529 40.0861C82.5576 39.8379 82.2624 39.6565 81.9671 39.5419C81.6719 39.4178 81.3859 39.3558 81.1091 39.3558C80.7585 39.3558 80.4725 39.4417 80.2511 39.6135C80.0296 39.7854 79.9189 40.0097 79.9189 40.2865C79.9189 40.4775 79.9743 40.635 80.085 40.7591C80.1957 40.8832 80.3387 40.9929 80.514 41.0884C80.6985 41.1743 80.9015 41.2507 81.1229 41.3175C81.3536 41.3843 81.5796 41.4559 81.8011 41.5323C82.6868 41.8378 83.3326 42.2483 83.7386 42.7637C84.1538 43.2697 84.3614 43.9331 84.3614 44.7541C84.3614 45.3078 84.2691 45.8089 84.0846 46.2576C83.9093 46.7063 83.6463 47.0929 83.2957 47.4175C82.9543 47.7325 82.5299 47.9759 82.0225 48.1477C81.5243 48.3291 80.9569 48.4198 80.3202 48.4198C79.0009 48.4198 77.7784 48.0141 76.6528 47.2027L77.8153 44.9402C78.2213 45.3125 78.6226 45.5894 79.0193 45.7708C79.4161 45.9521 79.8082 46.0428 80.1957 46.0428C80.6386 46.0428 80.9661 45.9378 81.1783 45.7278C81.3997 45.5178 81.5104 45.2791 81.5104 45.0118C81.5104 44.8496 81.4828 44.7111 81.4274 44.5966C81.372 44.4725 81.2798 44.3627 81.1506 44.2673C81.0214 44.1622 80.8508 44.0668 80.6386 43.9809C80.4356 43.895 80.1865 43.7995 79.8912 43.6945C79.5406 43.5799 79.1946 43.4558 78.8533 43.3222C78.5211 43.179 78.2213 42.9929 77.9537 42.7637C77.6954 42.5346 77.4832 42.2483 77.3171 41.9046C77.1603 41.5514 77.0818 41.1075 77.0818 40.5729C77.0818 40.0383 77.1649 39.5563 77.3309 39.1267C77.5062 38.6876 77.7461 38.3153 78.0506 38.0098C78.3643 37.6948 78.7426 37.4514 79.1854 37.2795C79.6375 37.1077 80.1403 37.0218 80.6939 37.0218C81.2106 37.0218 81.7503 37.0981 82.3131 37.2509C82.8759 37.3941 83.4157 37.6089 83.9323 37.8952L82.8529 40.0861Z" fill="#222721"/>
<path d="M90.1436 41.7757L93.4512 37.3225H96.8004L92.6624 42.4344L97.1879 48.1191H93.6727L90.1436 43.4367V48.1191L87.4311 48.1191V37.3225L90.1436 37.3225V41.7757Z" fill="#222721"/>
</svg>
