<svg width="193" height="78" viewBox="0 0 193 78" fill="none" xmlns="http://www.w3.org/2000/svg">
<path fill-rule="evenodd" clip-rule="evenodd" d="M66.4271 9.09365C66.6969 8.94147 67.0257 8.93641 67.3 9.08021L76.7094 14.0114C77.0096 14.1687 77.1977 14.4793 77.1977 14.8178V25.1498C77.1977 25.4751 77.0239 25.7757 76.7417 25.9384L67.7883 31.1011V51.2145C67.7883 51.5405 67.6138 51.8416 67.3307 52.0041L57.9214 57.4049C57.6515 57.5598 57.3211 57.5666 57.045 57.423L48.9696 53.2229V62.0161C48.9696 62.3396 48.7977 62.6387 48.5181 62.8021L38.8735 68.4378C38.5918 68.6024 38.2434 68.6042 37.9599 68.4425L9.96705 52.4749C9.68277 52.3128 9.50732 52.011 9.50732 51.6842L9.50732 20.6882C9.50732 20.3497 9.69538 20.0392 9.99561 19.8818L19.405 14.9506C19.6742 14.8095 19.9962 14.8116 20.2637 14.9562L38.5251 24.8303L66.4271 9.09365ZM40.4191 25.8544L48.0439 29.9772L74.3917 14.8541L66.8919 10.9237L40.4191 25.8544ZM75.3729 16.3921L48.9696 31.5471V39.8486L57.0102 35.2123C57.2925 35.0495 57.6403 35.0495 57.9227 35.2121C58.205 35.3748 58.379 35.6755 58.379 36.001V55.041L65.9635 50.6876V30.5754C65.9635 30.25 66.1373 29.9494 66.4196 29.7867L75.3729 24.624V16.3921ZM56.5542 55.1138V37.5789L48.9696 41.9523V51.1689L56.5542 55.1138ZM47.1448 40.9008V32.5754L39.325 36.9544L39.325 45.4099L47.1448 40.9008ZM39.325 47.5135L47.1448 43.0045V61.4939L39.325 66.0633L39.325 47.5135ZM37.5002 45.4208L37.5002 36.9534L11.3321 22.2462L11.3321 51.1556L37.5002 66.0823L37.5002 47.5172L20.7415 37.988V46.2261L29.6933 51.3642C30.1301 51.615 30.2806 52.1717 30.0294 52.6078C29.7782 53.0438 29.2205 53.1941 28.7837 52.9433L19.3743 47.5425C19.0912 47.3801 18.9167 47.0789 18.9167 46.753L18.9167 36.421C18.9167 36.0966 19.0896 35.7966 19.3706 35.6336C19.6516 35.4705 19.9983 35.469 20.2807 35.6296L37.5002 45.4208ZM12.3292 20.7162L38.4134 35.3762L46.1674 31.0342L19.8224 16.7892L12.3292 20.7162Z" fill="#222721"/>
<path d="M85.0101 36.9243H93.0665C93.0665 37.7525 93.032 38.5048 92.963 39.1812C92.8939 39.8575 92.7559 40.4856 92.5488 41.0653C92.2588 41.8797 91.8653 42.6043 91.3683 43.2393C90.8712 43.8604 90.2844 44.3849 89.6078 44.8128C88.9451 45.2269 88.2133 45.5444 87.4125 45.7652C86.6117 45.9861 85.7695 46.0965 84.8858 46.0965C83.6708 46.0965 82.5593 45.8964 81.5514 45.4961C80.5573 45.0958 79.7012 44.5368 78.9833 43.819C78.2653 43.0874 77.7061 42.2178 77.3057 41.2102C76.9053 40.1888 76.7051 39.0638 76.7051 37.8354C76.7051 36.6207 76.8984 35.5095 77.285 34.5019C77.6854 33.4805 78.2446 32.6109 78.9625 31.8931C79.6943 31.1754 80.5711 30.6163 81.5928 30.216C82.6145 29.8157 83.7536 29.6156 85.0101 29.6156C86.6393 29.6156 88.0684 29.9676 89.2972 30.6715C90.526 31.3755 91.4994 32.4659 92.2174 33.9429L88.3652 35.5371C88.0062 34.6813 87.5368 34.0671 86.9569 33.6944C86.3908 33.3217 85.7419 33.1354 85.0101 33.1354C84.4026 33.1354 83.8503 33.2527 83.3532 33.4874C82.8562 33.7082 82.4281 34.0326 82.0692 34.4605C81.724 34.8746 81.4478 35.3784 81.2407 35.9719C81.0474 36.5655 80.9508 37.228 80.9508 37.9596C80.9508 38.6221 81.0336 39.2364 81.1993 39.8023C81.3788 40.3682 81.6411 40.8582 81.9863 41.2723C82.3315 41.6864 82.7595 42.0108 83.2704 42.2455C83.7812 42.4663 84.3749 42.5767 85.0515 42.5767C85.4519 42.5767 85.8385 42.5353 86.2113 42.4525C86.5841 42.3559 86.9155 42.2109 87.2054 42.0177C87.5092 41.8107 87.7577 41.5484 87.951 41.2309C88.1443 40.9134 88.2755 40.527 88.3445 40.0715H85.0101V36.9243Z" fill="#222721"/>
<path d="M106.554 33.4874H101.728V36.0962H106.284V39.5331L101.728 39.5331V42.2247L106.554 42.2247V45.6617H97.6687V30.0504H106.554V33.4874Z" fill="#222721"/>
<path d="M112.069 45.6617V30.0504H116.128L123.626 39.5953V30.0504H127.664V45.6617H123.626L116.128 36.1169V45.6617H112.069Z" fill="#222721"/>
<path d="M142.413 33.4874L137.587 33.4874V36.0962L142.144 36.0962V39.5331H137.587V42.2247H142.413V45.6617H133.528V30.0504H142.413V33.4874Z" fill="#222721"/>
<path d="M151.988 37.0279H152.754C153.555 37.0279 154.169 36.8622 154.597 36.531C155.025 36.1997 155.239 35.7235 155.239 35.1023C155.239 34.4812 155.025 34.005 154.597 33.6737C154.169 33.3424 153.555 33.1768 152.754 33.1768H151.988V37.0279ZM160.914 45.6617H155.861L151.988 39.6574V45.6617H147.929V30.0504L154.245 30.0504C155.115 30.0504 155.875 30.1815 156.524 30.4438C157.172 30.6922 157.704 31.0373 158.118 31.479C158.546 31.9207 158.864 32.4314 159.071 33.0112C159.292 33.5909 159.402 34.212 159.402 34.8746C159.402 36.0617 159.112 37.0279 158.532 37.7732C157.966 38.5048 157.124 39.0017 156.006 39.264L160.914 45.6617Z" fill="#222721"/>
<path d="M172.864 39.8644L171.041 34.6675L169.219 39.8644H172.864ZM173.941 42.9494H168.142L167.21 45.6617H162.881L168.825 30.0504H173.257L179.201 45.6617H174.873L173.941 42.9494Z" fill="#222721"/>
<path d="M187.626 30.0504V42.2247H192.493V45.6617H183.566V30.0504H187.626Z" fill="#222721"/>
<path d="M84.1611 56.2219V68.3963H80.1018V56.2219H76.7674V52.7849H87.4955V56.2219H84.1611Z" fill="#222721"/>
<path d="M99.6532 62.599L97.8306 57.4021L96.0081 62.599L99.6532 62.599ZM100.73 65.6839H94.9311L93.9992 68.3963H89.6706L95.6146 52.7849H100.047L105.991 68.3963H101.662L100.73 65.6839Z" fill="#222721"/>
<path d="M117.688 56.7809C117.246 56.4221 116.805 56.1598 116.363 55.9942C115.921 55.8147 115.493 55.725 115.079 55.725C114.554 55.725 114.126 55.8492 113.795 56.0977C113.463 56.3461 113.298 56.6705 113.298 57.0708C113.298 57.3469 113.38 57.5746 113.546 57.7541C113.712 57.9335 113.926 58.0922 114.188 58.2303C114.464 58.3545 114.768 58.4649 115.099 58.5615C115.445 58.6582 115.783 58.7617 116.114 58.8721C117.44 59.3138 118.406 59.9073 119.014 60.6527C119.635 61.3843 119.946 62.3436 119.946 63.5307C119.946 64.3312 119.808 65.0559 119.531 65.7047C119.269 66.3534 118.876 66.9124 118.351 67.3817C117.84 67.8372 117.205 68.1892 116.446 68.4377C115.7 68.6999 114.851 68.8311 113.898 68.8311C111.924 68.8311 110.094 68.2444 108.41 67.0712L110.15 63.7998C110.757 64.3381 111.358 64.7384 111.951 65.0007C112.545 65.263 113.132 65.3941 113.712 65.3941C114.375 65.3941 114.865 65.2423 115.182 64.9386C115.514 64.6349 115.679 64.2898 115.679 63.9034C115.679 63.6687 115.638 63.4686 115.555 63.3029C115.472 63.1235 115.334 62.9647 115.141 62.8267C114.948 62.6749 114.692 62.5368 114.375 62.4126C114.071 62.2884 113.698 62.1504 113.256 61.9985C112.731 61.8329 112.214 61.6534 111.703 61.4602C111.206 61.2532 110.757 60.984 110.357 60.6527C109.97 60.3214 109.652 59.9073 109.404 59.4104C109.169 58.8997 109.052 58.2579 109.052 57.4849C109.052 56.7119 109.176 56.0149 109.425 55.3937C109.687 54.7588 110.046 54.2205 110.502 53.7788C110.971 53.3233 111.537 52.9713 112.2 52.7228C112.876 52.4744 113.629 52.3501 114.457 52.3501C115.231 52.3501 116.038 52.4606 116.881 52.6814C117.723 52.8885 118.53 53.199 119.304 53.6131L117.688 56.7809Z" fill="#222721"/>
<path d="M128.599 59.2241L133.549 52.7849H138.561L132.368 60.1765L139.141 68.3963H133.88L128.599 61.6258V68.3963H124.54V52.7849H128.599V59.2241Z" fill="#222721"/>
</svg>
