<svg width="16" height="16" viewBox="0 0 16 16" fill="none" xmlns="http://www.w3.org/2000/svg">
<path d="M12.8333 7.83332L11.7763 4.1337C11.6127 3.56129 11.0896 3.16666 10.4943 3.16666H5.50572C4.91042 3.16666 4.38724 3.5613 4.22369 4.1337L3.16666 7.83332" stroke="#5C31D7" stroke-linecap="round" stroke-linejoin="round"/>
<path d="M6.80946 8.24594C6.6374 8.02181 6.39644 7.83334 6.11389 7.83334H3.16666V11.5C3.16666 12.2364 3.76361 12.8333 4.49999 12.8333H11.5C12.2364 12.8333 12.8333 12.2364 12.8333 11.5V7.83334H9.88606C9.60352 7.83334 9.36259 8.02181 9.19052 8.24594C8.91632 8.60308 8.48506 8.83334 7.99999 8.83334C7.51492 8.83334 7.08366 8.60308 6.80946 8.24594Z" stroke="#5C31D7" stroke-linecap="round" stroke-linejoin="round"/>
</svg>
