<svg width="16" height="16" viewBox="0 0 16 16" fill="none" xmlns="http://www.w3.org/2000/svg">
<path d="M12.8333 7.83317L11.7762 4.13354C11.6127 3.56114 11.0896 3.1665 10.4942 3.1665H5.50569C4.91039 3.1665 4.38721 3.56114 4.22366 4.13354L3.16663 7.83317" stroke="#71717A" stroke-width="1.5" stroke-linecap="round" stroke-linejoin="round"/>
<path d="M6.80943 8.2461C6.63737 8.02196 6.39641 7.8335 6.11386 7.8335H3.16663V11.5002C3.16663 12.2366 3.76358 12.8335 4.49996 12.8335H11.5C12.2364 12.8335 12.8333 12.2366 12.8333 11.5002V7.8335H9.88603C9.60349 7.8335 9.36256 8.02196 9.19049 8.2461C8.91629 8.60323 8.48503 8.8335 7.99996 8.8335C7.51489 8.8335 7.08363 8.60323 6.80943 8.2461Z" stroke="#71717A" stroke-width="1.5" stroke-linecap="round" stroke-linejoin="round"/>
</svg>
