<svg width="16" height="16" viewBox="0 0 16 16" fill="none" xmlns="http://www.w3.org/2000/svg">
<path d="M12.8332 7.83329L11.7761 4.13367C11.6126 3.56126 11.0894 3.16663 10.4941 3.16663H5.50557C4.91026 3.16663 4.38708 3.56127 4.22354 4.13367L3.1665 7.83329" stroke="#5C31D7" stroke-width="1.5" stroke-linecap="round" stroke-linejoin="round"/>
<path d="M6.8093 8.24597C6.63724 8.02184 6.39628 7.83337 6.11374 7.83337H3.1665V11.5C3.1665 12.2364 3.76346 12.8334 4.49984 12.8334H11.4998C12.2362 12.8334 12.8332 12.2364 12.8332 11.5V7.83337H9.8859C9.60337 7.83337 9.36244 8.02184 9.19037 8.24597C8.91617 8.60311 8.4849 8.83337 7.99984 8.83337C7.51477 8.83337 7.0835 8.60311 6.8093 8.24597Z" stroke="#5C31D7" stroke-width="1.5" stroke-linecap="round" stroke-linejoin="round"/>
</svg>
