<svg width="16" height="16" viewBox="0 0 16 16" fill="none" xmlns="http://www.w3.org/2000/svg">
<path d="M11.5871 11.8021L14 8L11.5871 4.19791C11.5485 4.13703 11.4962 4.08711 11.4347 4.05259C11.3733 4.01806 11.3048 4 11.2351 4H3.42308C3.31087 4 3.20326 4.04683 3.12392 4.13017C3.04457 4.21352 3 4.32657 3 4.44444V11.5556C3 11.6734 3.04457 11.7865 3.12392 11.8698C3.20326 11.9532 3.31087 12 3.42308 12H11.2351C11.3048 12 11.3733 11.9819 11.4347 11.9474C11.4962 11.9129 11.5485 11.863 11.5871 11.8021V11.8021Z" stroke="#A1A1AA" stroke-width="1.5" stroke-linecap="round" stroke-linejoin="round"/>
</svg>
