<svg width="16" height="16" viewBox="0 0 16 16" fill="none" xmlns="http://www.w3.org/2000/svg">
<g clip-path="url(#clip0_7_13672)">
<path d="M15.9313 9.04445L13.6662 8.7496C13.7312 8.2519 13.7312 7.74786 13.6662 7.25017L15.9325 6.95531C16.0231 7.64874 16.0231 8.35102 15.9325 9.04445H15.9313ZM15.3942 4.93703C15.1261 4.29162 14.7745 3.68416 14.3485 3.13017L12.5359 4.52217C12.8387 4.91645 13.0902 5.3496 13.2822 5.8136L15.3942 4.93703ZM12.8719 1.65245L11.4776 3.46503C11.082 3.1609 10.6482 2.90999 10.1873 2.71874L11.0627 0.605597C11.713 0.875311 12.3199 1.22845 12.8707 1.65131L12.8719 1.65245ZM9.04331 0.0684539L8.74845 2.33474C8.25076 2.26972 7.74672 2.26972 7.24902 2.33474L6.95531 0.0684539C7.64875 -0.0220042 8.35101 -0.0220042 9.04445 0.0684539H9.04331ZM4.93703 0.60674L5.8136 2.71874C5.35232 2.90993 4.91814 3.16083 4.52217 3.46503L3.13131 1.65245C3.68493 1.22647 4.29201 0.874899 4.93703 0.60674ZM1.65245 3.13131L3.46503 4.52331C3.16083 4.91928 2.90993 5.35347 2.71874 5.81474L0.605597 4.93703C0.875311 4.28674 1.22845 3.67988 1.65131 3.13017L1.65245 3.13131ZM0.0684539 6.95531C-0.0220042 7.64875 -0.0220042 8.35101 0.0684539 9.04445L2.33474 8.7496C2.26972 8.2519 2.26972 7.74786 2.33474 7.25017L0.0684539 6.95531ZM0.60674 11.0627L2.71874 10.1862C2.91074 10.6502 3.16217 11.0833 3.46503 11.4776L1.65245 12.8707C1.22629 12.3164 0.874721 11.7086 0.60674 11.0627ZM3.13017 14.3473L4.52217 12.5347C4.91645 12.8376 5.3496 13.089 5.8136 13.281L4.93703 15.3942C4.29162 15.1261 3.68416 14.7745 3.13017 14.3485V14.3473ZM6.95531 15.9325L7.25017 13.6662C7.74786 13.7312 8.2519 13.7312 8.7496 13.6662L9.04445 15.9325C8.35102 16.0231 7.64874 16.0231 6.95531 15.9325ZM11.0627 15.393L10.1862 13.281C10.6474 13.0898 11.0816 12.8389 11.4776 12.5347L12.8707 14.3473C12.3164 14.7734 11.7085 15.125 11.0627 15.393ZM14.3473 12.8707L12.5347 11.4765C12.8376 11.0833 13.089 10.6502 13.281 10.1862L15.393 11.0627C15.1233 11.713 14.7702 12.3199 14.3473 12.8707Z" fill="#9D9D9D"/>
<path d="M6.59808 6.36603C6.59808 5.98113 7.01474 5.74056 7.34808 5.93301L10.3481 7.66506C10.6814 7.85751 10.6814 8.33864 10.3481 8.53109L7.34808 10.2631C7.01474 10.4556 6.59808 10.215 6.59808 9.83013L6.59808 6.36603Z" fill="#6C6F75"/>
</g>
<defs>
<clipPath id="clip0_7_13672">
<rect width="16" height="16" fill="white"/>
</clipPath>
</defs>
</svg>
