<svg width="13" height="13" viewBox="0 0 13 13" fill="none" xmlns="http://www.w3.org/2000/svg">
<path d="M0.747094 10.9001C0.747094 10.5818 0.873489 10.2765 1.09857 10.0515C1.32364 9.82648 1.62881 9.69998 1.94707 9.69998C2.26533 9.69998 2.57059 9.82647 2.79566 10.0515C3.02064 10.2765 3.14714 10.5818 3.14714 10.9001C3.14714 11.2183 3.02065 11.5236 2.79566 11.7486C2.57059 11.9736 2.26535 12.1 1.94707 12.1C1.62881 12.1 1.32364 11.9736 1.09857 11.7486C0.873496 11.5236 0.747094 11.2183 0.747094 10.9001ZM1.94704 3.30007C2.26531 3.30007 2.57057 3.17358 2.79564 2.94859C3.02062 2.72352 3.14711 2.41828 3.14711 2.1C3.14711 1.78174 3.02063 1.47648 2.79564 1.2515C2.57056 1.02643 2.26533 0.900024 1.94704 0.900024C1.62878 0.900024 1.32362 1.02642 1.09855 1.2515C0.873472 1.47648 0.74707 1.78174 0.74707 2.1C0.74707 2.41826 0.873465 2.72352 1.09855 2.94859C1.32362 3.17357 1.62878 3.30007 1.94704 3.30007ZM1.94704 7.70006V7.69997C2.26531 7.69997 2.57057 7.57357 2.79564 7.34849C3.02062 7.12351 3.14711 6.81825 3.14711 6.49999C3.14711 6.18173 3.02063 5.87647 2.79564 5.65149C2.57056 5.42642 2.26533 5.30002 1.94704 5.30002C1.62878 5.30002 1.32362 5.42641 1.09855 5.65149C0.873472 5.87647 0.74707 6.18173 0.74707 6.49999C0.74707 6.81825 0.873465 7.12351 1.09855 7.34849C1.32362 7.57356 1.62878 7.69997 1.94704 7.69997V7.70006ZM5.94704 2.90007H11.947C12.2328 2.90007 12.497 2.74754 12.6399 2.50005C12.7828 2.25255 12.7828 1.94759 12.6399 1.7C12.497 1.4525 12.2328 1.30007 11.947 1.30007H5.94704C5.66123 1.30007 5.39718 1.45251 5.25423 1.7C5.11137 1.94757 5.11137 2.25255 5.25423 2.50005C5.39718 2.74754 5.66123 2.90007 5.94704 2.90007ZM5.94704 7.30006H11.947C12.2328 7.30006 12.497 7.14753 12.6399 6.90004C12.7828 6.65247 12.7828 6.34758 12.6399 6.09999C12.497 5.85249 12.2328 5.69997 11.947 5.69997H5.94704C5.66123 5.69997 5.39718 5.8525 5.25423 6.09999C5.11137 6.34756 5.11137 6.65244 5.25423 6.90004C5.39718 7.14754 5.66123 7.30006 5.94704 7.30006ZM5.94704 11.7001L11.947 11.7C12.2328 11.7 12.497 11.5475 12.6399 11.3C12.7828 11.0525 12.7828 10.7475 12.6399 10.5C12.497 10.2525 12.2328 10.1 11.947 10.1H5.94704C5.66123 10.1 5.39718 10.2525 5.25423 10.5C5.11137 10.7475 5.11137 11.0524 5.25423 11.3C5.39718 11.5475 5.66123 11.7 5.94704 11.7V11.7001Z" fill="#A1A1AA"/>
</svg>
