<svg width="27" height="22" viewBox="0 0 27 22" fill="none" xmlns="http://www.w3.org/2000/svg">
<g filter="url(#filter0_d_1140_28758)">
<path d="M23.787 2.81137C22.1696 1.19622 19.5473 1.19622 17.93 2.81137L5.99322 14.7317C5.86534 14.8594 5.86534 15.0664 5.99322 15.1941L9.17483 18.3714C10.5245 19.7192 12.7129 19.7192 14.0626 18.3714L23.787 8.66032C25.4044 7.04518 25.4044 4.42651 23.787 2.81137Z" fill="url(#paint0_linear_1140_28758)"/>
<g filter="url(#filter1_d_1140_28758)">
<path d="M9.28847 6.77751C7.66692 5.15599 5.0377 5.15599 3.41616 6.77751C1.79461 8.39902 1.79461 11.028 3.41616 12.6495L9.3569 18.5899C10.6069 19.6023 12.5436 19.7343 14.0358 18.4579L16.9278 15.566C16.9514 15.5424 16.9734 15.5177 16.9935 15.492L20.9445 11.5411C19.152 13.3264 16.1401 13.2575 13.9773 11.4662L9.28847 6.77751Z" fill="url(#paint1_linear_1140_28758)"/>
<path d="M9.28847 6.77751C7.66692 5.15599 5.0377 5.15599 3.41616 6.77751C1.79461 8.39902 1.79461 11.028 3.41616 12.6495L9.3569 18.5899C10.6069 19.6023 12.5436 19.7343 14.0358 18.4579L16.9278 15.566C16.9514 15.5424 16.9734 15.5177 16.9935 15.492L20.9445 11.5411C19.152 13.3264 16.1401 13.2575 13.9773 11.4662L9.28847 6.77751Z" fill="url(#paint2_linear_1140_28758)"/>
</g>
</g>
<defs>
<filter id="filter0_d_1140_28758" x="0.439379" y="0.191511" width="26.3212" height="21.3035" filterUnits="userSpaceOnUse" color-interpolation-filters="sRGB">
<feFlood flood-opacity="0" result="BackgroundImageFix"/>
<feColorMatrix in="SourceAlpha" type="matrix" values="0 0 0 0 0 0 0 0 0 0 0 0 0 0 0 0 0 0 127 0" result="hardAlpha"/>
<feOffset dy="0.352124"/>
<feGaussianBlur stdDeviation="0.880309"/>
<feComposite in2="hardAlpha" operator="out"/>
<feColorMatrix type="matrix" values="0 0 0 0 0.166667 0 0 0 0 0.166667 0 0 0 0 0.166667 0 0 0 0.08 0"/>
<feBlend mode="normal" in2="BackgroundImageFix" result="effect1_dropShadow_1140_28758"/>
<feBlend mode="normal" in="SourceGraphic" in2="effect1_dropShadow_1140_28758" result="shape"/>
</filter>
<filter id="filter1_d_1140_28758" x="0.439379" y="4.15288" width="22.2657" height="17.3421" filterUnits="userSpaceOnUse" color-interpolation-filters="sRGB">
<feFlood flood-opacity="0" result="BackgroundImageFix"/>
<feColorMatrix in="SourceAlpha" type="matrix" values="0 0 0 0 0 0 0 0 0 0 0 0 0 0 0 0 0 0 127 0" result="hardAlpha"/>
<feOffset dy="0.352124"/>
<feGaussianBlur stdDeviation="0.880309"/>
<feComposite in2="hardAlpha" operator="out"/>
<feColorMatrix type="matrix" values="0 0 0 0 1 0 0 0 0 1 0 0 0 0 1 0 0 0 0.08 0"/>
<feBlend mode="normal" in2="BackgroundImageFix" result="effect1_dropShadow_1140_28758"/>
<feBlend mode="normal" in="SourceGraphic" in2="effect1_dropShadow_1140_28758" result="shape"/>
</filter>
<linearGradient id="paint0_linear_1140_28758" x1="15.4487" y1="1.60001" x2="15.4487" y2="19.3822" gradientUnits="userSpaceOnUse">
<stop stop-color="#5C31D7"/>
<stop offset="1" stop-color="#9A80E4"/>
</linearGradient>
<linearGradient id="paint1_linear_1140_28758" x1="12.7732" y1="10.3931" x2="11.5685" y2="20.5258" gradientUnits="userSpaceOnUse">
<stop stop-color="#B897FF"/>
<stop offset="1" stop-color="#FFD37C" stop-opacity="0.67"/>
</linearGradient>
<linearGradient id="paint2_linear_1140_28758" x1="3.06133" y1="12.2856" x2="14.1602" y2="15.0807" gradientUnits="userSpaceOnUse">
<stop stop-color="#D1E4FF"/>
<stop offset="1" stop-color="white" stop-opacity="0"/>
</linearGradient>
</defs>
</svg>
