<svg width="31" height="30" viewBox="0 0 31 30" fill="none" xmlns="http://www.w3.org/2000/svg">
<path d="M3.8183 3.34064C5.92895 1.32549 8.79493 0.149288 11.6997 0.00298339C12.6938 0.00298339 13.6909 0.00894814 14.6851 0C14.6343 1.06579 14.6851 2.13456 14.6552 3.2003C14.5149 5.58263 13.6342 7.91121 12.1505 9.78006C10.2219 12.2938 7.27239 13.9805 4.14074 14.4164C2.77345 14.6373 1.38522 14.4969 0.00897608 14.5358C0.0328378 13.3625 -0.0417812 12.1863 0.050784 11.016C0.319481 8.11424 1.68976 5.33486 3.8183 3.34064Z" fill="white" fill-opacity="0.6"/>
<path d="M15.6057 0C16.6715 0.0119308 17.7373 -0.005966 18.8061 0.00596485C21.466 0.194027 24.0902 1.21503 26.0932 2.98539C28.3024 4.88108 29.816 7.59181 30.2043 10.4876C30.3741 11.831 30.267 13.1894 30.3327 14.5387C29.401 14.5358 28.4728 14.5328 27.5411 14.5387C25.2514 14.4761 23.0005 13.7357 21.0839 12.4878C20.2002 11.8549 19.2926 11.2131 18.6299 10.3354C17.176 8.71134 16.1879 6.67233 15.8147 4.52285C15.5341 3.03013 15.6475 1.50763 15.6057 0Z" fill="white"/>
<path d="M0.0110298 15.3926C0.957409 15.4463 1.90677 15.3478 2.85012 15.4523C6.88931 15.5388 10.8092 17.8077 12.9019 21.2618C14.102 23.1963 14.7468 25.4892 14.6633 27.7671C14.6602 28.5133 14.6722 29.2565 14.6513 30.0001C13.1527 29.9551 11.6391 30.0775 10.1553 29.7878C6.85949 29.2327 3.82936 27.2712 2.00525 24.4711C0.623041 22.4351 -0.0665726 19.9482 0.00506301 17.4913C0.00506301 16.7897 0.00506436 16.0911 0.0110298 15.3926Z" fill="white"/>
<path d="M25.2889 15.7088C26.9132 15.3475 28.5876 15.4072 30.2387 15.4072L30.3104 15.4789C30.2746 17.0403 30.3969 18.6195 30.0835 20.163C29.4237 23.626 27.1311 26.7191 24.0471 28.4177C22.1275 29.4864 19.9242 30.0117 17.73 29.9879C17.0284 29.9909 16.3239 29.9758 15.6223 29.997C15.6223 28.7043 15.5686 27.4056 15.7149 26.119C16.0552 23.005 17.7389 20.1062 20.1601 18.1479C21.6587 16.9656 23.4201 16.1088 25.2889 15.7088Z" fill="white" fill-opacity="0.3"/>
</svg>
