<svg width="16" height="14" viewBox="0 0 16 14" fill="none" xmlns="http://www.w3.org/2000/svg">
<path d="M15.0499 1.98771C14.8306 1.50027 14.4636 1.10699 14.0087 0.872063C13.7067 0.712246 13.3748 0.627804 13.038 0.625H2.62558C2.29338 0.625934 1.96554 0.706242 1.66607 0.860056C1.21111 1.09498 0.844034 1.48837 0.624763 1.97571C0.475719 2.29921 0.396904 2.65474 0.394287 3.01558V10.9844C0.394287 11.6183 0.629369 12.2264 1.04773 12.6748C1.46623 13.1231 2.03377 13.375 2.62557 13.375H13.038C13.6298 13.375 14.1973 13.1231 14.6158 12.6748C15.0342 12.2264 15.2693 11.6183 15.2693 10.9844V3.01558C15.2685 2.65979 15.1936 2.30857 15.0499 1.98771ZM12.7293 2.21877L8.35603 6.90431C8.21669 7.05279 8.02819 7.13603 7.83171 7.13603C7.63523 7.13603 7.44671 7.05279 7.30739 6.90431L2.93408 2.21877H12.7293ZM13.038 11.7811H2.62557C2.42822 11.7811 2.23908 11.6972 2.09963 11.5476C1.96017 11.3982 1.88173 11.1956 1.88173 10.9843V3.34638L6.25504 8.03192C6.67341 8.47961 7.24044 8.7311 7.83176 8.7311C8.42308 8.7311 8.99011 8.47963 9.40848 8.03192L13.7818 3.34638V10.9843C13.7818 11.1956 13.7033 11.3982 13.5639 11.5476C13.4244 11.6972 13.2353 11.7811 13.038 11.7811Z" fill="#5634CF"/>
</svg>
