<svg width="14" height="17" viewBox="0 0 14 17" fill="none" xmlns="http://www.w3.org/2000/svg">
<path d="M6.99986 0L0.383097 5.18641C0.141263 5.37596 0 5.66618 0 5.97345V13.8839C0 15.1209 0.767091 16.1273 1.70998 16.1273H12.2898C13.2327 16.1273 13.9998 15.1209 13.9998 13.8839L14 5.97347C14 5.66619 13.8587 5.37596 13.6169 5.1864L6.99986 0ZM12.2012 5.78163L7.06817 9.98071L7.04167 9.9994C7.03734 10.0022 7.03338 10.0051 7.02761 10.0079L7.02148 10.0098C7.00705 10.0145 7.00002 10.0148 7.00002 10.0148C7.00002 10.0148 6.99317 10.0145 6.97514 10.0089L6.9719 10.0079C6.96721 10.0055 6.96216 10.0022 6.95549 9.99798C6.94828 9.99254 6.94089 9.98733 6.93332 9.98213L1.79938 5.78166L7.00024 1.70514L12.2012 5.78163ZM12.2899 14.6644H1.71002C1.38226 14.6644 1.11563 14.3144 1.11563 13.8846V6.9479L6.3571 11.2356C6.37621 11.2515 6.3955 11.2657 6.41587 11.2794C6.42687 11.2872 6.43769 11.2948 6.44778 11.3014C6.52927 11.3565 6.6122 11.3984 6.69044 11.4253L6.73353 11.4388C6.82384 11.4655 6.91327 11.4792 7.00052 11.4792C7.08724 11.4792 7.1772 11.4653 7.26806 11.4381L7.3052 11.427C7.38759 11.3988 7.4707 11.3567 7.55038 11.3026C7.56192 11.295 7.57328 11.2872 7.58518 11.2787L12.8843 6.94741L12.8847 13.8847C12.8847 14.3147 12.6178 14.6644 12.2899 14.6644Z" fill="#5634CF"/>
</svg>
