<svg width="16" height="16" viewBox="0 0 16 16" fill="none" xmlns="http://www.w3.org/2000/svg">
<path d="M8.25001 13.4995H2.97917C2.85208 13.4995 2.73021 13.449 2.64034 13.3592C2.55048 13.2693 2.5 13.1474 2.5 13.0203V7.7495C2.5 6.9944 2.64873 6.2467 2.93769 5.54907C3.22666 4.85145 3.6502 4.21758 4.18413 3.68364C4.71807 3.14971 5.35194 2.72617 6.04956 2.4372C6.74718 2.14824 7.49489 1.99951 8.24999 1.99951H8.25C9.0051 1.99951 9.75281 2.14824 10.4504 2.4372C11.1481 2.72617 11.7819 3.14971 12.3159 3.68365C12.8498 4.21758 13.2733 4.85146 13.5623 5.54908C13.8513 6.2467 14 6.99441 14 7.74951V7.74952C14 9.27452 13.3942 10.737 12.3159 11.8154C11.2375 12.8937 9.775 13.4995 8.25001 13.4995Z" stroke="#5C31D7" stroke-linecap="round" stroke-linejoin="round"/>
<path d="M8.25 8.75C8.66421 8.75 9 8.41421 9 8C9 7.58579 8.66421 7.25 8.25 7.25C7.83579 7.25 7.5 7.58579 7.5 8C7.5 8.41421 7.83579 8.75 8.25 8.75Z" fill="#5C31D7"/>
<path d="M5.25 8.75C5.66421 8.75 6 8.41421 6 8C6 7.58579 5.66421 7.25 5.25 7.25C4.83579 7.25 4.5 7.58579 4.5 8C4.5 8.41421 4.83579 8.75 5.25 8.75Z" fill="#5C31D7"/>
<path d="M11.25 8.75C11.6642 8.75 12 8.41421 12 8C12 7.58579 11.6642 7.25 11.25 7.25C10.8358 7.25 10.5 7.58579 10.5 8C10.5 8.41421 10.8358 8.75 11.25 8.75Z" fill="#5C31D7"/>
</svg>
