<svg width="20" height="18" viewBox="0 0 20 18" fill="none" xmlns="http://www.w3.org/2000/svg">
<path d="M7.5 5H11.9688V6.75C11.9688 7.0625 12.125 7.34375 12.4062 7.46875C12.6875 7.5625 13.0312 7.5 13.25 7.28125L15.75 4.78125C16.0312 4.5 16.0312 4.03125 15.75 3.75L13.25 1.25C13.0312 1.03125 12.6875 0.96875 12.4062 1.0625C12.125 1.1875 11.9688 1.46875 11.9688 1.75V3.5H7.5C4.4375 3.5 2 5.96875 2 9C2 9.4375 2.3125 9.75 2.75 9.75C3.15625 9.75 3.5 9.4375 3.5 9C3.5 6.8125 5.28125 5 7.5 5ZM17.25 8.25C16.8125 8.25 16.5 8.59375 16.5 9C16.5 11.2188 14.6875 13 12.5 13H8V11.25C8 10.9688 7.8125 10.6875 7.53125 10.5625C7.25 10.4688 6.90625 10.5312 6.71875 10.7188L4.1875 13.2188C3.90625 13.5312 3.90625 14 4.1875 14.2812L6.71875 16.7812C6.90625 17 7.25 17.0625 7.53125 16.9688C7.8125 16.8438 8 16.5625 8 16.25V14.5H12.5C15.5312 14.5 18 12.0625 18 9C18 8.59375 17.6562 8.25 17.25 8.25Z" fill="#41802E"/>
</svg>
