<svg width="16" height="16" viewBox="0 0 16 16" fill="none" xmlns="http://www.w3.org/2000/svg">
<path d="M11.0105 6.2323H14.0105V3.2323" stroke="#A1A1AA" stroke-width="1.5" stroke-linecap="round" stroke-linejoin="round"/>
<path d="M4.11096 4.11091C4.62168 3.60019 5.228 3.19506 5.89529 2.91866C6.56258 2.64226 7.27778 2.5 8.00005 2.5C8.72232 2.5 9.43752 2.64226 10.1048 2.91866C10.7721 3.19506 11.3784 3.60019 11.8891 4.11091L14.0105 6.23223" stroke="#A1A1AA" stroke-width="1.5" stroke-linecap="round" stroke-linejoin="round"/>
<path d="M4.9895 9.7677H1.9895L1.9895 12.7677" stroke="#A1A1AA" stroke-width="1.5" stroke-linecap="round" stroke-linejoin="round"/>
<path d="M11.8891 11.8891C11.3784 12.3999 10.7721 12.805 10.1048 13.0814C9.4375 13.3578 8.7223 13.5001 8.00003 13.5001C7.27776 13.5001 6.56256 13.3578 5.89527 13.0814C5.22798 12.805 4.62167 12.3999 4.11094 11.8891L1.98962 9.76782" stroke="#A1A1AA" stroke-width="1.5" stroke-linecap="round" stroke-linejoin="round"/>
</svg>
