<svg width="14" height="16" viewBox="0 0 14 16" fill="none" xmlns="http://www.w3.org/2000/svg">
<mask id="path-1-inside-1_683_21522" fill="white">
<path fill-rule="evenodd" clip-rule="evenodd" d="M12.4491 3.46505C12.4493 3.46504 12.4488 3.46757 12.4468 3.47266C12.4478 3.4676 12.4488 3.46506 12.4491 3.46505ZM12.4326 3.5C12.416 3.47221 12.3837 3.42776 12.323 3.36634C12.1526 3.19367 11.8326 2.96992 11.318 2.7494C10.2928 2.31003 8.76742 2 7 2C5.23255 2 3.70722 2.31003 2.68203 2.7494C2.16746 2.96992 1.84735 3.19367 1.67693 3.36634C1.61632 3.42776 1.58401 3.4722 1.56735 3.5C1.58401 3.5278 1.61632 3.57224 1.67693 3.63366C1.84735 3.80633 2.16746 4.03008 2.68203 4.2506C3.70722 4.68997 5.23255 5 7 5C8.76742 5 10.2928 4.68997 11.318 4.2506C11.8326 4.03008 12.1526 3.80633 12.323 3.63366C12.3837 3.57224 12.416 3.5278 12.4326 3.5ZM1.5509 3.46505C1.55117 3.46505 1.55219 3.4676 1.55321 3.47266C1.55116 3.46757 1.55065 3.46504 1.5509 3.46505ZM7 6.5C9.19901 6.5 11.1611 6.06544 12.4444 5.38578V5.38856V5.40699V5.42548V5.44403V5.46265V5.48132V5.50006V5.51886V5.53772V5.55664V5.57562V5.59466V5.61376V5.63293V5.65214V5.67141V5.69075V5.71014V5.72959V5.74909V5.76865V5.78826V5.80794V5.82766V5.84745V5.86728V5.88717V5.90711V5.9271V5.94715V5.96725V5.9874V6.0076V6.02785V6.04815V6.0685V6.08891V6.10936V6.12986V6.15041V6.17101V6.19165V6.21235V6.23308V6.25386V6.27469V6.29557V6.3165V6.33746V6.35847V6.37953V6.40063V6.42177V6.44295V6.46418V6.48544V6.50675V6.52813V6.5495V6.57095V6.5924V6.61392V6.63545V6.65705V6.67865V6.70033V6.72207V6.74382V6.76558V6.7874V6.80923V6.83112V6.85303V6.875V6.89697V6.91902V6.94108V6.96313V6.98525V7.00745V7.02965V7.05185V7.07413V7.0964V7.11867V7.14103V7.16337V7.1858V7.20822V7.23065V7.25315V7.27565V7.29822V7.3208V7.34338V7.36602V7.3886V7.41133V7.43398V7.4567V7.47942V7.50222V7.52503V7.54783V7.57062V7.5935V7.61637V7.63925V7.6622V7.68515V7.7081V7.73105V7.75408V7.7771V7.80012V7.82315V7.84625V7.86935V7.89245V7.91555V7.93865V7.96182V7.985V8.00817V8.03135V8.0546V8.07778V8.10102V8.10582C12.4367 8.11333 12.4286 8.12105 12.42 8.129C12.2845 8.25545 12.0408 8.44775 11.6447 8.64882C10.854 9.05007 9.42791 9.5 7 9.5C4.57207 9.5 3.146 9.05007 2.35531 8.64882C1.95919 8.44775 1.71547 8.25545 1.57995 8.129C1.57141 8.12105 1.56328 8.11333 1.55556 8.10582V5.38578C2.83886 6.06544 4.80101 6.5 7 6.5ZM1.55556 9.9374V12.4636C1.55899 12.478 1.56728 12.5069 1.58574 12.5469C1.62821 12.6391 1.73779 12.8193 2.02222 13.025C2.60602 13.4473 3.96368 14 7 14C10.0363 14 11.394 13.4473 11.9778 13.025C12.2622 12.8193 12.3718 12.6391 12.4143 12.5469C12.4327 12.5069 12.441 12.478 12.4444 12.4636V12.447V12.4291V12.4113V12.3933V12.3753V12.3572V12.3391V12.3208V12.3026V12.2842V12.2659V12.2473V12.2288V12.2102V12.1916V12.1729V12.1541V12.1353V12.1164V12.0974V12.0784V12.0593V12.0401V12.021V12.0017V11.9823V11.963V11.9436V11.9241V11.9046V11.8849V11.8653V11.8455V11.8258V11.806V11.7861V11.7662V11.7463V11.7262V11.7061V11.686V11.6658V11.6456V11.6253V11.6049V11.5845V11.5641V11.5437V11.5231V11.5025V11.4819V11.4613V11.4405V11.4197V11.3989V11.3781V11.3572V11.3362V11.3152V11.2942V11.2731V11.2519V11.2308V11.2095V11.1883V11.167V11.1457V11.1243V11.1029V11.0815V11.0599V11.0384V11.0168V10.9952V10.9735V10.9518V10.9301V10.9083V10.8865V10.8647V10.8429V10.8209V10.799V10.777V10.755V10.7329V10.7109V10.6888V10.6666V10.6444V10.6222V10.6V10.5778V10.5554V10.5331V10.5107V10.4883V10.4659V10.4435V10.421V10.3985V10.376V10.3534V10.3308V10.3082V10.2856V10.2629V10.2403V10.2175V10.1948V10.172V10.1493V10.1265V10.1036V10.0808V10.0579V10.035V10.0121V9.98915V9.9662V9.94325V9.9374C12.4197 9.9503 12.3947 9.96327 12.3692 9.97618C11.3127 10.5124 9.62764 11 7 11C4.37238 11 2.68733 10.5124 1.63081 9.97618C1.60534 9.96327 1.58026 9.9503 1.55556 9.9374ZM14 3.50028V3.50007V3.5C14 1.84314 10.866 0.5 7 0.5C3.13401 0.5 0 1.84314 0 3.5V12.5H0.777778C0 12.5 0 12.501 0 12.5019L7.78834e-06 12.504L4.673e-05 12.5082L0.000194523 12.5175C0.000342301 12.5239 0.000567716 12.531 0.000909938 12.5387C0.00159438 12.554 0.00273787 12.5717 0.00457342 12.5917C0.00825231 12.6315 0.0147155 12.6805 0.0258922 12.737C0.0482688 12.8503 0.0894367 12.9939 0.164259 13.1562C0.316237 13.4859 0.595545 13.8682 1.08889 14.225C2.06064 14.9277 3.8141 15.5 7 15.5C10.1859 15.5 11.9394 14.9277 12.9111 14.225C13.4045 13.8682 13.6838 13.4859 13.8357 13.1562C13.9106 12.9939 13.9517 12.8503 13.9741 12.737C13.9853 12.6805 13.9918 12.6315 13.9954 12.5917C13.9973 12.5717 13.9984 12.554 13.9991 12.5387L13.9996 12.5238L13.9998 12.5175L13.9999 12.5082L14 12.504V12.5019C14 12.501 14 12.5 13.2222 12.5H14V12.4824V12.4647V12.447V12.4291V12.4113V12.3933V12.3753V12.3572V12.3391V12.3208V12.3026V12.2842V12.2659V12.2473V12.2288V12.2102V12.1916V12.1729V12.1541V12.1353V12.1164V12.0974V12.0784V12.0593V12.0401V12.021V12.0017V11.9823V11.963V11.9436V11.9241V11.9046V11.8849V11.8653V11.8455V11.8258V11.806V11.7861V11.7662V11.7463V11.7262V11.7061V11.686V11.6658V11.6456V11.6253V11.6049V11.5845V11.5641V11.5437V11.5231V11.5025V11.4819V11.4613V11.4405V11.4197V11.3989V11.3781V11.3572V11.3362V11.3152V11.2942V11.2731V11.2519V11.2308V11.2095V11.1883V11.167V11.1457V11.1243V11.1029V11.0815V11.0599V11.0384V11.0168V10.9952V10.9735V10.9518V10.9301V10.9083V10.8865V10.8647V10.8429V10.8209V10.799V10.777V10.755V10.7329V10.7109V10.6888V10.6666V10.6444V10.6222V10.6V10.5778V10.5554V10.5331V10.5107V10.4883V10.4659V10.4435V10.421V10.3985V10.376V10.3534V10.3308V10.3082V10.2856V10.2629V10.2403V10.2175V10.1948V10.172V10.1493V10.1265V10.1036V10.0808V10.0579V10.035V10.0121V9.98915V9.9662V9.94325V9.9203V9.89727V9.87425V9.85122V9.82812V9.80503V9.78193V9.75883V9.73572V9.71255V9.68937V9.6662V9.64302V9.61985V9.5966V9.57343V9.55017V9.52693V9.5036V9.48035V9.45703V9.43377V9.41045V9.38713V9.3638V9.34048V9.31715V9.29375V9.27042V9.24702V9.22363V9.2003V9.1769V9.1535V9.1301V9.1067V9.08323V9.05982V9.03642V9.01303V8.98955V8.96615V8.94267V8.91928V8.8958V8.8724V8.84892V8.82553V8.80205V8.77865V8.75517V8.73178V8.70837V8.6849V8.6615V8.63803V8.61462V8.59122V8.56783V8.54443V8.52102V8.49762V8.47423V8.45082V8.42742V8.40403V8.3807V8.3573V8.33397V8.31065V8.28732V8.264V8.24067V8.21735V8.1941V8.17078V8.14752V8.12428V8.10102V8.07778V8.0546V8.03135V8.00817V7.985V7.96182V7.93865V7.91555V7.89245V7.86935V7.84625V7.82315V7.80012V7.7771V7.75408V7.73105V7.7081V7.68515V7.6622V7.63925V7.61637V7.5935V7.57062V7.54783V7.52503V7.50222V7.47942V7.4567V7.43398V7.41133V7.3886V7.36602V7.34338V7.3208V7.29822V7.27565V7.25315V7.23065V7.20822V7.1858V7.16337V7.14103V7.11867V7.0964V7.07413V7.05185V7.02965V7.00745V6.98525V6.96313V6.94108V6.91902V6.89697V6.875V6.85303V6.83112V6.80923V6.7874V6.76558V6.74382V6.72207V6.70033V6.67865V6.65705V6.63545V6.61392V6.5924V6.57095V6.5495V6.52813V6.50675V6.48544V6.46418V6.44295V6.42177V6.40063V6.37953V6.35847V6.33746V6.3165V6.29557V6.27469V6.25386V6.23308V6.21235V6.19165V6.17101V6.15041V6.12986V6.10936V6.08891V6.0685V6.04815V6.02785V6.0076V5.9874V5.96725V5.94715V5.9271V5.90711V5.88717V5.86728V5.84745V5.82766V5.80794V5.78826V5.76865V5.74909V5.72959V5.71014V5.69075V5.67141V5.65214V5.63293V5.61376V5.59466V5.57562V5.55664V5.53772V5.51886V5.50006V5.48132V5.46265V5.44403V5.42548V5.40699V5.38856V5.3702V5.3519V5.33367V5.3155V5.29739V5.27935V5.26138V5.24348V5.22564V5.20787V5.19016V5.17253V5.15497V5.13747V5.12004V5.10267V5.08539V5.06818V5.05102V5.03395V5.01694V5.00002V4.98316V4.96637V4.94965V4.93302V4.91645V4.89996V4.88355V4.8672V4.85094V4.83475V4.81864V4.80261V4.78665V4.77077V4.75497V4.73925V4.7236V4.70804V4.69255V4.67715V4.66183V4.64658V4.63142V4.61634V4.60135V4.58643V4.5716V4.55685V4.54218V4.52761V4.51311V4.4987V4.48438V4.47013V4.45598V4.44192V4.42794V4.41405V4.40024V4.38652V4.37289V4.35936V4.34591V4.33255V4.31928V4.30611V4.29302V4.28002V4.26712V4.25431V4.24159V4.22896V4.21643V4.204V4.19165V4.1794V4.16724V4.15519V4.14323V4.13136V4.11959V4.10792V4.09634V4.08487V4.07349V4.06221V4.05103V4.03994V4.02896V4.01808V4.0073V3.99662V3.98604V3.97557V3.96519V3.95492V3.94475V3.93469V3.92473V3.91487V3.90512V3.89547V3.88593V3.8765V3.86717V3.85795V3.84883V3.83983V3.83093V3.82214V3.81346V3.80488V3.79642V3.78807V3.77982V3.77169V3.76367V3.75576V3.74796V3.74028V3.73271V3.72525V3.71791V3.71068V3.70356V3.69655V3.68967V3.68289V3.67624V3.6697V3.66328V3.65698V3.65079V3.64472V3.63876V3.63294V3.62722V3.62163V3.61615V3.61081V3.60557V3.60046V3.59547V3.59061V3.58586V3.58124V3.57674V3.57237V3.56811V3.56399V3.55998V3.55612V3.55236V3.54874V3.54524V3.54186V3.53862V3.5355V3.53252V3.52966V3.52693V3.52433V3.52185V3.51952V3.5173V3.51522V3.51328V3.51146V3.50977V3.50822V3.5068V3.50551V3.50436V3.50335V3.50246V3.50171V3.5011V3.50062V3.50028Z"/>
</mask>
<path fill-rule="evenodd" clip-rule="evenodd" d="M12.4491 3.46505C12.4493 3.46504 12.4488 3.46757 12.4468 3.47266C12.4478 3.4676 12.4488 3.46506 12.4491 3.46505ZM12.4326 3.5C12.416 3.47221 12.3837 3.42776 12.323 3.36634C12.1526 3.19367 11.8326 2.96992 11.318 2.7494C10.2928 2.31003 8.76742 2 7 2C5.23255 2 3.70722 2.31003 2.68203 2.7494C2.16746 2.96992 1.84735 3.19367 1.67693 3.36634C1.61632 3.42776 1.58401 3.4722 1.56735 3.5C1.58401 3.5278 1.61632 3.57224 1.67693 3.63366C1.84735 3.80633 2.16746 4.03008 2.68203 4.2506C3.70722 4.68997 5.23255 5 7 5C8.76742 5 10.2928 4.68997 11.318 4.2506C11.8326 4.03008 12.1526 3.80633 12.323 3.63366C12.3837 3.57224 12.416 3.5278 12.4326 3.5ZM1.5509 3.46505C1.55117 3.46505 1.55219 3.4676 1.55321 3.47266C1.55116 3.46757 1.55065 3.46504 1.5509 3.46505ZM7 6.5C9.19901 6.5 11.1611 6.06544 12.4444 5.38578V5.38856V5.40699V5.42548V5.44403V5.46265V5.48132V5.50006V5.51886V5.53772V5.55664V5.57562V5.59466V5.61376V5.63293V5.65214V5.67141V5.69075V5.71014V5.72959V5.74909V5.76865V5.78826V5.80794V5.82766V5.84745V5.86728V5.88717V5.90711V5.9271V5.94715V5.96725V5.9874V6.0076V6.02785V6.04815V6.0685V6.08891V6.10936V6.12986V6.15041V6.17101V6.19165V6.21235V6.23308V6.25386V6.27469V6.29557V6.3165V6.33746V6.35847V6.37953V6.40063V6.42177V6.44295V6.46418V6.48544V6.50675V6.52813V6.5495V6.57095V6.5924V6.61392V6.63545V6.65705V6.67865V6.70033V6.72207V6.74382V6.76558V6.7874V6.80923V6.83112V6.85303V6.875V6.89697V6.91902V6.94108V6.96313V6.98525V7.00745V7.02965V7.05185V7.07413V7.0964V7.11867V7.14103V7.16337V7.1858V7.20822V7.23065V7.25315V7.27565V7.29822V7.3208V7.34338V7.36602V7.3886V7.41133V7.43398V7.4567V7.47942V7.50222V7.52503V7.54783V7.57062V7.5935V7.61637V7.63925V7.6622V7.68515V7.7081V7.73105V7.75408V7.7771V7.80012V7.82315V7.84625V7.86935V7.89245V7.91555V7.93865V7.96182V7.985V8.00817V8.03135V8.0546V8.07778V8.10102V8.10582C12.4367 8.11333 12.4286 8.12105 12.42 8.129C12.2845 8.25545 12.0408 8.44775 11.6447 8.64882C10.854 9.05007 9.42791 9.5 7 9.5C4.57207 9.5 3.146 9.05007 2.35531 8.64882C1.95919 8.44775 1.71547 8.25545 1.57995 8.129C1.57141 8.12105 1.56328 8.11333 1.55556 8.10582V5.38578C2.83886 6.06544 4.80101 6.5 7 6.5ZM1.55556 9.9374V12.4636C1.55899 12.478 1.56728 12.5069 1.58574 12.5469C1.62821 12.6391 1.73779 12.8193 2.02222 13.025C2.60602 13.4473 3.96368 14 7 14C10.0363 14 11.394 13.4473 11.9778 13.025C12.2622 12.8193 12.3718 12.6391 12.4143 12.5469C12.4327 12.5069 12.441 12.478 12.4444 12.4636V12.447V12.4291V12.4113V12.3933V12.3753V12.3572V12.3391V12.3208V12.3026V12.2842V12.2659V12.2473V12.2288V12.2102V12.1916V12.1729V12.1541V12.1353V12.1164V12.0974V12.0784V12.0593V12.0401V12.021V12.0017V11.9823V11.963V11.9436V11.9241V11.9046V11.8849V11.8653V11.8455V11.8258V11.806V11.7861V11.7662V11.7463V11.7262V11.7061V11.686V11.6658V11.6456V11.6253V11.6049V11.5845V11.5641V11.5437V11.5231V11.5025V11.4819V11.4613V11.4405V11.4197V11.3989V11.3781V11.3572V11.3362V11.3152V11.2942V11.2731V11.2519V11.2308V11.2095V11.1883V11.167V11.1457V11.1243V11.1029V11.0815V11.0599V11.0384V11.0168V10.9952V10.9735V10.9518V10.9301V10.9083V10.8865V10.8647V10.8429V10.8209V10.799V10.777V10.755V10.7329V10.7109V10.6888V10.6666V10.6444V10.6222V10.6V10.5778V10.5554V10.5331V10.5107V10.4883V10.4659V10.4435V10.421V10.3985V10.376V10.3534V10.3308V10.3082V10.2856V10.2629V10.2403V10.2175V10.1948V10.172V10.1493V10.1265V10.1036V10.0808V10.0579V10.035V10.0121V9.98915V9.9662V9.94325V9.9374C12.4197 9.9503 12.3947 9.96327 12.3692 9.97618C11.3127 10.5124 9.62764 11 7 11C4.37238 11 2.68733 10.5124 1.63081 9.97618C1.60534 9.96327 1.58026 9.9503 1.55556 9.9374ZM14 3.50028V3.50007V3.5C14 1.84314 10.866 0.5 7 0.5C3.13401 0.5 0 1.84314 0 3.5V12.5H0.777778C0 12.5 0 12.501 0 12.5019L7.78834e-06 12.504L4.673e-05 12.5082L0.000194523 12.5175C0.000342301 12.5239 0.000567716 12.531 0.000909938 12.5387C0.00159438 12.554 0.00273787 12.5717 0.00457342 12.5917C0.00825231 12.6315 0.0147155 12.6805 0.0258922 12.737C0.0482688 12.8503 0.0894367 12.9939 0.164259 13.1562C0.316237 13.4859 0.595545 13.8682 1.08889 14.225C2.06064 14.9277 3.8141 15.5 7 15.5C10.1859 15.5 11.9394 14.9277 12.9111 14.225C13.4045 13.8682 13.6838 13.4859 13.8357 13.1562C13.9106 12.9939 13.9517 12.8503 13.9741 12.737C13.9853 12.6805 13.9918 12.6315 13.9954 12.5917C13.9973 12.5717 13.9984 12.554 13.9991 12.5387L13.9996 12.5238L13.9998 12.5175L13.9999 12.5082L14 12.504V12.5019C14 12.501 14 12.5 13.2222 12.5H14V12.4824V12.4647V12.447V12.4291V12.4113V12.3933V12.3753V12.3572V12.3391V12.3208V12.3026V12.2842V12.2659V12.2473V12.2288V12.2102V12.1916V12.1729V12.1541V12.1353V12.1164V12.0974V12.0784V12.0593V12.0401V12.021V12.0017V11.9823V11.963V11.9436V11.9241V11.9046V11.8849V11.8653V11.8455V11.8258V11.806V11.7861V11.7662V11.7463V11.7262V11.7061V11.686V11.6658V11.6456V11.6253V11.6049V11.5845V11.5641V11.5437V11.5231V11.5025V11.4819V11.4613V11.4405V11.4197V11.3989V11.3781V11.3572V11.3362V11.3152V11.2942V11.2731V11.2519V11.2308V11.2095V11.1883V11.167V11.1457V11.1243V11.1029V11.0815V11.0599V11.0384V11.0168V10.9952V10.9735V10.9518V10.9301V10.9083V10.8865V10.8647V10.8429V10.8209V10.799V10.777V10.755V10.7329V10.7109V10.6888V10.6666V10.6444V10.6222V10.6V10.5778V10.5554V10.5331V10.5107V10.4883V10.4659V10.4435V10.421V10.3985V10.376V10.3534V10.3308V10.3082V10.2856V10.2629V10.2403V10.2175V10.1948V10.172V10.1493V10.1265V10.1036V10.0808V10.0579V10.035V10.0121V9.98915V9.9662V9.94325V9.9203V9.89727V9.87425V9.85122V9.82812V9.80503V9.78193V9.75883V9.73572V9.71255V9.68937V9.6662V9.64302V9.61985V9.5966V9.57343V9.55017V9.52693V9.5036V9.48035V9.45703V9.43377V9.41045V9.38713V9.3638V9.34048V9.31715V9.29375V9.27042V9.24702V9.22363V9.2003V9.1769V9.1535V9.1301V9.1067V9.08323V9.05982V9.03642V9.01303V8.98955V8.96615V8.94267V8.91928V8.8958V8.8724V8.84892V8.82553V8.80205V8.77865V8.75517V8.73178V8.70837V8.6849V8.6615V8.63803V8.61462V8.59122V8.56783V8.54443V8.52102V8.49762V8.47423V8.45082V8.42742V8.40403V8.3807V8.3573V8.33397V8.31065V8.28732V8.264V8.24067V8.21735V8.1941V8.17078V8.14752V8.12428V8.10102V8.07778V8.0546V8.03135V8.00817V7.985V7.96182V7.93865V7.91555V7.89245V7.86935V7.84625V7.82315V7.80012V7.7771V7.75408V7.73105V7.7081V7.68515V7.6622V7.63925V7.61637V7.5935V7.57062V7.54783V7.52503V7.50222V7.47942V7.4567V7.43398V7.41133V7.3886V7.36602V7.34338V7.3208V7.29822V7.27565V7.25315V7.23065V7.20822V7.1858V7.16337V7.14103V7.11867V7.0964V7.07413V7.05185V7.02965V7.00745V6.98525V6.96313V6.94108V6.91902V6.89697V6.875V6.85303V6.83112V6.80923V6.7874V6.76558V6.74382V6.72207V6.70033V6.67865V6.65705V6.63545V6.61392V6.5924V6.57095V6.5495V6.52813V6.50675V6.48544V6.46418V6.44295V6.42177V6.40063V6.37953V6.35847V6.33746V6.3165V6.29557V6.27469V6.25386V6.23308V6.21235V6.19165V6.17101V6.15041V6.12986V6.10936V6.08891V6.0685V6.04815V6.02785V6.0076V5.9874V5.96725V5.94715V5.9271V5.90711V5.88717V5.86728V5.84745V5.82766V5.80794V5.78826V5.76865V5.74909V5.72959V5.71014V5.69075V5.67141V5.65214V5.63293V5.61376V5.59466V5.57562V5.55664V5.53772V5.51886V5.50006V5.48132V5.46265V5.44403V5.42548V5.40699V5.38856V5.3702V5.3519V5.33367V5.3155V5.29739V5.27935V5.26138V5.24348V5.22564V5.20787V5.19016V5.17253V5.15497V5.13747V5.12004V5.10267V5.08539V5.06818V5.05102V5.03395V5.01694V5.00002V4.98316V4.96637V4.94965V4.93302V4.91645V4.89996V4.88355V4.8672V4.85094V4.83475V4.81864V4.80261V4.78665V4.77077V4.75497V4.73925V4.7236V4.70804V4.69255V4.67715V4.66183V4.64658V4.63142V4.61634V4.60135V4.58643V4.5716V4.55685V4.54218V4.52761V4.51311V4.4987V4.48438V4.47013V4.45598V4.44192V4.42794V4.41405V4.40024V4.38652V4.37289V4.35936V4.34591V4.33255V4.31928V4.30611V4.29302V4.28002V4.26712V4.25431V4.24159V4.22896V4.21643V4.204V4.19165V4.1794V4.16724V4.15519V4.14323V4.13136V4.11959V4.10792V4.09634V4.08487V4.07349V4.06221V4.05103V4.03994V4.02896V4.01808V4.0073V3.99662V3.98604V3.97557V3.96519V3.95492V3.94475V3.93469V3.92473V3.91487V3.90512V3.89547V3.88593V3.8765V3.86717V3.85795V3.84883V3.83983V3.83093V3.82214V3.81346V3.80488V3.79642V3.78807V3.77982V3.77169V3.76367V3.75576V3.74796V3.74028V3.73271V3.72525V3.71791V3.71068V3.70356V3.69655V3.68967V3.68289V3.67624V3.6697V3.66328V3.65698V3.65079V3.64472V3.63876V3.63294V3.62722V3.62163V3.61615V3.61081V3.60557V3.60046V3.59547V3.59061V3.58586V3.58124V3.57674V3.57237V3.56811V3.56399V3.55998V3.55612V3.55236V3.54874V3.54524V3.54186V3.53862V3.5355V3.53252V3.52966V3.52693V3.52433V3.52185V3.51952V3.5173V3.51522V3.51328V3.51146V3.50977V3.50822V3.5068V3.50551V3.50436V3.50335V3.50246V3.50171V3.5011V3.50062V3.50028Z" stroke="#A1A1AA" stroke-width="2" stroke-linecap="round" stroke-linejoin="round" mask="url(#path-1-inside-1_683_21522)"/>
</svg>
