<svg width="13" height="13" viewBox="0 0 13 13" fill="none" xmlns="http://www.w3.org/2000/svg">
<path d="M2.08788 0.500077H10.2683H10.2682C10.8004 0.500077 11.3108 0.711531 11.6871 1.08781C12.0634 1.46409 12.2747 1.97443 12.2747 2.50663V7.13706C12.2747 7.66926 12.0634 8.17957 11.6871 8.55587C11.3108 8.93218 10.8004 9.14361 10.2682 9.14361H4.25635C3.97566 9.14522 3.70663 9.2559 3.50614 9.45228C3.06785 9.87668 2.42573 10.4895 1.88709 10.9958C1.57842 11.2813 1.34381 11.5051 1.17091 11.6594C0.930176 11.8786 0.748001 12.0407 0.544317 12.0407C0.466691 12.0389 0.390787 12.0177 0.323605 11.9789C0.249746 11.9389 0.188163 11.8796 0.14553 11.8072C0.102786 11.735 0.0806065 11.6524 0.081254 11.5684V2.50655C0.081254 1.97435 0.2926 1.46404 0.668878 1.08773C1.04516 0.711457 1.55561 0.5 2.08778 0.5L2.08788 0.500077ZM1.00747 10.5528C1.418 10.1684 2.02156 9.59276 2.85961 8.78086V8.78097C3.23181 8.41977 3.73008 8.21777 4.24869 8.21757H10.2683C10.5548 8.21757 10.8296 8.10377 11.0322 7.90116C11.2349 7.69854 11.3488 7.42379 11.3488 7.13717V2.50673C11.3488 2.22023 11.2349 1.94538 11.0322 1.74274C10.8296 1.54011 10.5549 1.42633 10.2683 1.42633H2.08782H2.08793C1.80134 1.42633 1.52657 1.54013 1.32393 1.74274C1.12131 1.94537 1.00741 2.22023 1.00741 2.50673L1.00747 10.5528Z" fill="#52525B"/>
</svg>
