<?xml version="1.0" encoding="UTF-8"?><svg xmlns="http://www.w3.org/2000/svg" viewBox="0 0 96 96"><defs><style>.d{fill:#3f3f46;}.e{fill:none;stroke:#fafafa;stroke-linecap:round;stroke-linejoin:round;stroke-width:6px;}</style></defs><g id="a"/><g id="b"><g id="c"><g><path class="d" d="M48,0h0c26.51,0,48,21.49,48,48h0c0,26.51-21.49,48-48,48h0C21.49,96,0,74.51,0,48H0C0,21.49,21.49,0,48,0Z"/><path class="e" d="M59.29,41.37h11.25v-11.25"/><path class="e" d="M33.42,33.42c1.91-1.92,4.19-3.43,6.69-4.47,2.5-1.04,5.19-1.57,7.89-1.57s5.39,.53,7.89,1.57c2.5,1.04,4.78,2.56,6.69,4.47l7.96,7.96"/><path class="e" d="M36.71,54.63h-11.25v11.25"/><path class="e" d="M62.59,62.59c-1.92,1.91-4.19,3.43-6.69,4.47-2.5,1.04-5.18,1.57-7.89,1.57s-5.39-.53-7.89-1.57c-2.5-1.04-4.78-2.56-6.69-4.47l-7.96-7.96"/></g></g></g></svg>