<?xml version="1.0" encoding="utf-8"?>
<!-- Generator: Adobe Illustrator 23.0.1, SVG Export Plug-In . SVG Version: 6.00 Build 0)  -->
<svg version="1.1" id="Layer_1" xmlns="http://www.w3.org/2000/svg" xmlns:xlink="http://www.w3.org/1999/xlink" x="0px" y="0px"
	 viewBox="0 0 1000 1000" style="enable-background:new 0 0 1000 1000;" xml:space="preserve">
<style type="text/css">
	.st0{fill:url(#SVGID_1_);}
	.st1{fill:#FFFFFF;}
</style>
<g>
	
		<linearGradient id="SVGID_1_" gradientUnits="userSpaceOnUse" x1="0.2" y1="999.981" x2="0.2" y2="999.6191" gradientTransform="matrix(2500 0 0 -2500 0 2500000)">
		<stop  offset="0" style="stop-color:#368DCC"/>
		<stop  offset="1" style="stop-color:#0B7ABF"/>
	</linearGradient>
	<path class="st0" d="M136.02,47.68h727.95c48.79,0,88.34,39.55,88.34,88.34v727.95c0,48.79-39.55,88.34-88.34,88.34H136.02
		c-48.79,0-88.34-39.55-88.34-88.34V136.02C47.68,87.23,87.23,47.68,136.02,47.68z"/>
	<path class="st1" d="M601.21,165.28h191.11c23.42,0,42.4,18.99,42.4,42.4v310.97c0,23.42-18.99,42.4-42.4,42.4H601.21
		c-23.42,0-42.41-18.99-42.41-42.4V207.69C558.8,184.27,577.79,165.28,601.21,165.28z"/>
	<path class="st1" d="M207.69,165.28h191.11c23.42,0,42.4,18.99,42.4,42.4v537.13c0,23.42-18.99,42.41-42.4,42.41H207.69
		c-23.42,0-42.4-18.99-42.4-42.41V207.69C165.28,184.27,184.27,165.28,207.69,165.28z"/>
</g>
</svg>
