<svg width="256" height="256" viewBox="0 0 256 256" fill="none" xmlns="http://www.w3.org/2000/svg">
<rect width="256" height="256" fill="black"/>
<path d="M61 128.388C61 134.004 64.348 138.36 69.532 138.36C72.016 138.36 74.104 137.244 75.616 135.228V138H80.188V112.152H75.22V121.26C73.78 119.424 71.836 118.416 69.532 118.416C64.348 118.416 61 122.7 61 128.388ZM66.148 128.388C66.148 124.716 68.2 122.844 70.648 122.844C73.096 122.844 75.184 124.68 75.184 128.316C75.184 131.952 73.132 133.896 70.648 133.896C68.2 133.896 66.148 131.988 66.148 128.388Z" fill="white"/>
<path d="M94.3025 138H98.3705V125.904C98.3705 121.188 95.4185 118.416 90.3785 118.416C85.7345 118.416 82.5305 121.296 82.2425 125.724H86.7425C86.9225 123.564 88.2185 122.304 90.3785 122.304C92.4665 122.304 93.6905 123.564 93.6905 125.724V126.876C92.5025 126.732 91.5665 126.66 90.4865 126.66C84.8705 126.66 81.8465 128.676 81.8465 132.42C81.8465 136.02 84.5105 138.36 88.5065 138.36C91.1345 138.36 93.0425 137.424 94.3025 135.624V138ZM86.5625 132.276C86.5625 130.548 87.9665 129.648 90.8105 129.648C91.6745 129.648 92.5025 129.72 93.6905 129.9V131.268C93.6905 133.5 92.1425 134.904 89.5865 134.904C87.7145 134.904 86.5625 133.896 86.5625 132.276Z" fill="white"/>
<path d="M105.923 138V112.152H100.883V138H105.923Z" fill="white"/>
<path d="M113.614 138V127.272C113.614 124.392 115.198 122.844 117.214 122.844C119.41 122.844 120.562 124.464 120.562 127.164V138H125.53V127.272C125.53 124.392 127.15 122.844 129.13 122.844C131.326 122.844 132.478 124.464 132.478 127.164V138H137.446V125.58C137.446 120.972 134.818 118.416 130.93 118.416C128.05 118.416 126.106 119.712 124.594 121.836C123.622 119.64 121.606 118.416 118.978 118.416C116.422 118.416 114.622 119.568 113.218 121.512V118.776H108.61V138H113.614Z" fill="white"/>
<path d="M151.375 138H155.443V125.904C155.443 121.188 152.491 118.416 147.451 118.416C142.807 118.416 139.603 121.296 139.315 125.724H143.815C143.995 123.564 145.291 122.304 147.451 122.304C149.539 122.304 150.763 123.564 150.763 125.724V126.876C149.575 126.732 148.639 126.66 147.559 126.66C141.943 126.66 138.919 128.676 138.919 132.42C138.919 136.02 141.583 138.36 145.579 138.36C148.207 138.36 150.115 137.424 151.375 135.624V138ZM143.635 132.276C143.635 130.548 145.039 129.648 147.883 129.648C148.747 129.648 149.575 129.72 150.763 129.9V131.268C150.763 133.5 149.215 134.904 146.659 134.904C144.787 134.904 143.635 133.896 143.635 132.276Z" fill="white"/>
<path d="M176.528 110L178.814 121.219L187.777 114.094L182.317 124.158L193.762 124.461L183.111 128.661L191.684 136.25L180.825 132.621L182.513 143.945L176.528 134.184L170.543 143.945L172.231 132.621L161.373 136.25L169.945 128.661L159.294 124.461L170.739 124.158L165.279 114.094L174.242 121.219L176.528 110Z" fill="#B6FF9C"/>
</svg>
