<svg width="13" height="13" viewBox="0 0 13 13" fill="none" xmlns="http://www.w3.org/2000/svg">
<path d="M0.913932 12.3332C1.02067 12.4401 1.16529 12.5 1.31627 12.5C1.46724 12.5 1.61206 12.4401 1.7188 12.3332L6.74717 7.30478L11.7755 12.3332C11.9977 12.5553 12.3582 12.5553 12.5804 12.3332C12.8026 12.111 12.8026 11.7505 12.5804 11.5283L7.55205 6.4999L12.5804 1.47153C12.8026 1.24933 12.8026 0.888842 12.5804 0.666647C12.3582 0.444451 11.9977 0.444451 11.7755 0.666647L6.74717 5.69502L1.7188 0.666647C1.4966 0.444451 1.13611 0.444451 0.913917 0.666647C0.691721 0.888842 0.691721 1.24933 0.913917 1.47153L5.94229 6.4999L0.913917 11.5283C0.806984 11.635 0.74707 11.7798 0.74707 11.9308C0.74707 12.0818 0.806984 12.2264 0.913917 12.3331L0.913932 12.3332Z" fill="#27272A"/>
</svg>
