<svg width="14" height="14" viewBox="0 0 14 14" fill="none" xmlns="http://www.w3.org/2000/svg">
<path d="M13.7933 13.794C13.5198 14.0676 13.0772 14.0676 12.8034 13.794L6.99989 7.98923L1.19507 13.794C0.921542 14.0676 0.478985 14.0676 0.205148 13.794C-0.0683826 13.5205 -0.0683826 13.078 0.205148 12.8041L6.01127 7.00062L0.206023 1.1958C-0.0675078 0.922274 -0.0675078 0.479717 0.206023 0.20588C0.479553 -0.0676502 0.92211 -0.0676502 1.19595 0.20588L6.99989 6.01201L12.8047 0.207193C13.0782 -0.066338 13.5208 -0.066338 13.7946 0.207193C14.0682 0.480723 14.0682 0.92328 13.7946 1.19712L7.9885 7.00062L13.7933 12.8054C14.0689 13.0766 14.0689 13.5228 13.7933 13.794Z" fill="#717179"/>
</svg>
