<svg width="444" height="404" viewBox="0 0 444 404" fill="none" xmlns="http://www.w3.org/2000/svg">
<g clip-path="url(#clip0_374_1010)">
<path d="M0 12C0 5.37258 5.37258 0 12 0H432C438.627 0 444 5.37258 444 12V404H0V12Z" fill="white"/>
<path d="M38.596 376.336C37.1587 376.336 35.8893 376.093 34.788 375.608C33.6867 375.104 32.8187 374.395 32.184 373.48C31.5493 372.547 31.2227 371.417 31.204 370.092H34.984C35.0213 371.007 35.348 371.781 35.964 372.416C36.5987 373.032 37.4667 373.34 38.568 373.34C39.52 373.34 40.276 373.116 40.836 372.668C41.396 372.201 41.676 371.585 41.676 370.82C41.676 370.017 41.424 369.392 40.92 368.944C40.4347 368.496 39.7813 368.132 38.96 367.852C38.1387 367.572 37.2613 367.273 36.328 366.956C34.816 366.433 33.6587 365.761 32.856 364.94C32.072 364.119 31.68 363.027 31.68 361.664C31.6613 360.507 31.932 359.517 32.492 358.696C33.0707 357.856 33.8547 357.212 34.844 356.764C35.8333 356.297 36.972 356.064 38.26 356.064C39.5667 356.064 40.7147 356.297 41.704 356.764C42.712 357.231 43.496 357.884 44.056 358.724C44.6347 359.564 44.9427 360.563 44.98 361.72H41.144C41.1253 361.029 40.8547 360.423 40.332 359.9C39.828 359.359 39.1187 359.088 38.204 359.088C37.42 359.069 36.7573 359.265 36.216 359.676C35.6933 360.068 35.432 360.647 35.432 361.412C35.432 362.065 35.6373 362.588 36.048 362.98C36.4587 363.353 37.0187 363.671 37.728 363.932C38.4373 364.193 39.2493 364.473 40.164 364.772C41.1347 365.108 42.0213 365.5 42.824 365.948C43.6267 366.396 44.2707 366.993 44.756 367.74C45.2413 368.468 45.484 369.411 45.484 370.568C45.484 371.595 45.2227 372.547 44.7 373.424C44.1773 374.301 43.4027 375.011 42.376 375.552C41.3493 376.075 40.0893 376.336 38.596 376.336ZM53.735 376.336C51.999 376.336 50.655 375.795 49.703 374.712C48.7697 373.629 48.303 372.043 48.303 369.952V362.112H51.859V369.616C51.859 370.811 52.1017 371.725 52.587 372.36C53.0724 372.995 53.8377 373.312 54.883 373.312C55.8724 373.312 56.6844 372.957 57.319 372.248C57.9724 371.539 58.299 370.549 58.299 369.28V362.112H61.883V376H58.719L58.439 373.648C58.0097 374.469 57.3844 375.123 56.563 375.608C55.7604 376.093 54.8177 376.336 53.735 376.336ZM73.7942 376.336C72.7489 376.336 71.8342 376.14 71.0502 375.748C70.2662 375.356 69.6315 374.805 69.1462 374.096L68.7542 376H65.5622V355.84H69.1462V364.1C69.5942 363.484 70.1822 362.943 70.9102 362.476C71.6569 362.009 72.6182 361.776 73.7942 361.776C75.1009 361.776 76.2675 362.093 77.2942 362.728C78.3209 363.363 79.1329 364.231 79.7302 365.332C80.3275 366.433 80.6262 367.684 80.6262 369.084C80.6262 370.484 80.3275 371.735 79.7302 372.836C79.1329 373.919 78.3209 374.777 77.2942 375.412C76.2675 376.028 75.1009 376.336 73.7942 376.336ZM73.0382 373.2C74.1769 373.2 75.1195 372.817 75.8662 372.052C76.6129 371.287 76.9862 370.297 76.9862 369.084C76.9862 367.871 76.6129 366.872 75.8662 366.088C75.1195 365.304 74.1769 364.912 73.0382 364.912C71.8809 364.912 70.9289 365.304 70.1822 366.088C69.4542 366.853 69.0902 367.843 69.0902 369.056C69.0902 370.269 69.4542 371.268 70.1822 372.052C70.9289 372.817 71.8809 373.2 73.0382 373.2ZM89.5678 376.336C88.3358 376.336 87.2531 376.14 86.3198 375.748C85.3865 375.337 84.6398 374.777 84.0798 374.068C83.5198 373.359 83.1838 372.537 83.0718 371.604H86.6838C86.7958 372.145 87.0945 372.612 87.5798 373.004C88.0838 373.377 88.7278 373.564 89.5118 373.564C90.2958 373.564 90.8651 373.405 91.2198 373.088C91.5931 372.771 91.7798 372.407 91.7798 371.996C91.7798 371.399 91.5185 370.997 90.9958 370.792C90.4731 370.568 89.7451 370.353 88.8118 370.148C88.2145 370.017 87.6078 369.859 86.9918 369.672C86.3758 369.485 85.8065 369.252 85.2838 368.972C84.7798 368.673 84.3691 368.3 84.0518 367.852C83.7345 367.385 83.5758 366.816 83.5758 366.144C83.5758 364.912 84.0611 363.876 85.0318 363.036C86.0211 362.196 87.4025 361.776 89.1758 361.776C90.8185 361.776 92.1251 362.159 93.0958 362.924C94.0851 363.689 94.6731 364.744 94.8598 366.088H91.4718C91.2665 365.061 90.4918 364.548 89.1478 364.548C88.4758 364.548 87.9531 364.679 87.5798 364.94C87.2251 365.201 87.0478 365.528 87.0478 365.92C87.0478 366.331 87.3185 366.657 87.8598 366.9C88.4011 367.143 89.1198 367.367 90.0158 367.572C90.9865 367.796 91.8731 368.048 92.6758 368.328C93.4971 368.589 94.1505 368.991 94.6358 369.532C95.1211 370.055 95.3638 370.811 95.3638 371.8C95.3825 372.659 95.1585 373.433 94.6918 374.124C94.2251 374.815 93.5531 375.356 92.6758 375.748C91.7985 376.14 90.7625 376.336 89.5678 376.336ZM105.343 376.336C103.924 376.336 102.673 376.028 101.591 375.412C100.508 374.796 99.6494 373.937 99.0148 372.836C98.3988 371.735 98.0908 370.475 98.0908 369.056C98.0908 367.637 98.3988 366.377 99.0148 365.276C99.6494 364.175 100.508 363.316 101.591 362.7C102.673 362.084 103.924 361.776 105.343 361.776C107.116 361.776 108.609 362.243 109.823 363.176C111.036 364.091 111.811 365.36 112.147 366.984H108.367C108.18 366.312 107.807 365.789 107.247 365.416C106.705 365.024 106.061 364.828 105.315 364.828C104.325 364.828 103.485 365.201 102.795 365.948C102.104 366.695 101.759 367.731 101.759 369.056C101.759 370.381 102.104 371.417 102.795 372.164C103.485 372.911 104.325 373.284 105.315 373.284C106.061 373.284 106.705 373.097 107.247 372.724C107.807 372.351 108.18 371.819 108.367 371.128H112.147C111.811 372.696 111.036 373.956 109.823 374.908C108.609 375.86 107.116 376.336 105.343 376.336ZM115.328 376V362.112H118.52L118.856 364.716C119.36 363.82 120.041 363.111 120.9 362.588C121.777 362.047 122.804 361.776 123.98 361.776V365.556H122.972C122.188 365.556 121.488 365.677 120.872 365.92C120.256 366.163 119.77 366.583 119.416 367.18C119.08 367.777 118.912 368.608 118.912 369.672V376H115.328ZM128.361 359.956C127.708 359.956 127.167 359.76 126.737 359.368C126.327 358.976 126.121 358.481 126.121 357.884C126.121 357.287 126.327 356.801 126.737 356.428C127.167 356.036 127.708 355.84 128.361 355.84C129.015 355.84 129.547 356.036 129.957 356.428C130.387 356.801 130.601 357.287 130.601 357.884C130.601 358.481 130.387 358.976 129.957 359.368C129.547 359.76 129.015 359.956 128.361 359.956ZM126.569 376V362.112H130.153V376H126.569ZM133.894 382.16V362.112H137.086L137.478 364.1C137.926 363.484 138.514 362.943 139.242 362.476C139.989 362.009 140.95 361.776 142.126 361.776C143.433 361.776 144.6 362.093 145.626 362.728C146.653 363.363 147.465 364.231 148.062 365.332C148.66 366.433 148.958 367.684 148.958 369.084C148.958 370.484 148.66 371.735 148.062 372.836C147.465 373.919 146.653 374.777 145.626 375.412C144.6 376.028 143.433 376.336 142.126 376.336C141.081 376.336 140.166 376.14 139.382 375.748C138.598 375.356 137.964 374.805 137.478 374.096V382.16H133.894ZM141.37 373.2C142.509 373.2 143.452 372.817 144.198 372.052C144.945 371.287 145.318 370.297 145.318 369.084C145.318 367.871 144.945 366.872 144.198 366.088C143.452 365.304 142.509 364.912 141.37 364.912C140.213 364.912 139.261 365.304 138.514 366.088C137.786 366.853 137.422 367.843 137.422 369.056C137.422 370.269 137.786 371.268 138.514 372.052C139.261 372.817 140.213 373.2 141.37 373.2ZM157.801 376C156.345 376 155.178 375.645 154.301 374.936C153.424 374.227 152.985 372.967 152.985 371.156V365.108H150.605V362.112H152.985L153.405 358.388H156.569V362.112H160.321V365.108H156.569V371.184C156.569 371.856 156.709 372.323 156.989 372.584C157.288 372.827 157.792 372.948 158.501 372.948H160.237V376H157.801ZM165.33 359.956C164.677 359.956 164.135 359.76 163.706 359.368C163.295 358.976 163.09 358.481 163.09 357.884C163.09 357.287 163.295 356.801 163.706 356.428C164.135 356.036 164.677 355.84 165.33 355.84C165.983 355.84 166.515 356.036 166.926 356.428C167.355 356.801 167.57 357.287 167.57 357.884C167.57 358.481 167.355 358.976 166.926 359.368C166.515 359.76 165.983 359.956 165.33 359.956ZM163.538 376V362.112H167.122V376H163.538ZM177.527 376.336C176.183 376.336 174.97 376.028 173.887 375.412C172.823 374.796 171.974 373.947 171.339 372.864C170.723 371.763 170.415 370.493 170.415 369.056C170.415 367.619 170.732 366.359 171.367 365.276C172.002 364.175 172.851 363.316 173.915 362.7C174.998 362.084 176.211 361.776 177.555 361.776C178.88 361.776 180.075 362.084 181.139 362.7C182.222 363.316 183.071 364.175 183.687 365.276C184.322 366.359 184.639 367.619 184.639 369.056C184.639 370.493 184.322 371.763 183.687 372.864C183.071 373.947 182.222 374.796 181.139 375.412C180.056 376.028 178.852 376.336 177.527 376.336ZM177.527 373.228C178.46 373.228 179.272 372.883 179.963 372.192C180.654 371.483 180.999 370.437 180.999 369.056C180.999 367.675 180.654 366.639 179.963 365.948C179.272 365.239 178.47 364.884 177.555 364.884C176.603 364.884 175.782 365.239 175.091 365.948C174.419 366.639 174.083 367.675 174.083 369.056C174.083 370.437 174.419 371.483 175.091 372.192C175.782 372.883 176.594 373.228 177.527 373.228ZM187.843 376V362.112H191.007L191.287 364.464C191.717 363.643 192.333 362.989 193.135 362.504C193.957 362.019 194.918 361.776 196.019 361.776C197.737 361.776 199.071 362.317 200.023 363.4C200.975 364.483 201.451 366.069 201.451 368.16V376H197.867V368.496C197.867 367.301 197.625 366.387 197.139 365.752C196.654 365.117 195.898 364.8 194.871 364.8C193.863 364.8 193.033 365.155 192.379 365.864C191.745 366.573 191.427 367.563 191.427 368.832V376H187.843ZM210.619 376.336C209.387 376.336 208.304 376.14 207.371 375.748C206.437 375.337 205.691 374.777 205.131 374.068C204.571 373.359 204.235 372.537 204.123 371.604H207.735C207.847 372.145 208.145 372.612 208.631 373.004C209.135 373.377 209.779 373.564 210.563 373.564C211.347 373.564 211.916 373.405 212.271 373.088C212.644 372.771 212.831 372.407 212.831 371.996C212.831 371.399 212.569 370.997 212.047 370.792C211.524 370.568 210.796 370.353 209.863 370.148C209.265 370.017 208.659 369.859 208.043 369.672C207.427 369.485 206.857 369.252 206.335 368.972C205.831 368.673 205.42 368.3 205.103 367.852C204.785 367.385 204.627 366.816 204.627 366.144C204.627 364.912 205.112 363.876 206.083 363.036C207.072 362.196 208.453 361.776 210.227 361.776C211.869 361.776 213.176 362.159 214.147 362.924C215.136 363.689 215.724 364.744 215.911 366.088H212.523C212.317 365.061 211.543 364.548 210.199 364.548C209.527 364.548 209.004 364.679 208.631 364.94C208.276 365.201 208.099 365.528 208.099 365.92C208.099 366.331 208.369 366.657 208.911 366.9C209.452 367.143 210.171 367.367 211.067 367.572C212.037 367.796 212.924 368.048 213.727 368.328C214.548 368.589 215.201 368.991 215.687 369.532C216.172 370.055 216.415 370.811 216.415 371.8C216.433 372.659 216.209 373.433 215.743 374.124C215.276 374.815 214.604 375.356 213.727 375.748C212.849 376.14 211.813 376.336 210.619 376.336Z" fill="black"/>
<line x1="29.5" y1="271" x2="29.5" y2="81" stroke="black" stroke-opacity="0.1"/>
<line x1="72.5" y1="271" x2="72.5" y2="81" stroke="black" stroke-opacity="0.1"/>
<line x1="115.5" y1="271" x2="115.5" y2="81" stroke="black" stroke-opacity="0.1"/>
<line x1="158.5" y1="271" x2="158.5" y2="81" stroke="black" stroke-opacity="0.1"/>
<line x1="201.5" y1="271" x2="201.5" y2="81" stroke="black" stroke-opacity="0.1"/>
<line x1="244.5" y1="271" x2="244.5" y2="81" stroke="black" stroke-opacity="0.1"/>
<line x1="287.5" y1="271" x2="287.5" y2="81" stroke="black" stroke-opacity="0.1"/>
<line x1="330.5" y1="271" x2="330.5" y2="81" stroke="black" stroke-opacity="0.1"/>
<line x1="373.5" y1="271" x2="373.5" y2="81" stroke="black" stroke-opacity="0.1"/>
<line x1="416.5" y1="271" x2="416.5" y2="81" stroke="black" stroke-opacity="0.1"/>
<path d="M30 271L60.8449 211.625C63.0946 207.295 68.9737 206.537 72.2477 210.156L74.0069 212.1C76.7168 215.096 81.3927 215.182 84.2116 212.289L89.038 207.335C91.1258 205.192 94.3448 204.613 97.0486 205.894L100.72 207.633C103.799 209.092 107.48 208.122 109.441 205.335L116.62 195.133C118.375 192.639 121.544 191.568 124.453 192.487L127.616 193.485C130.797 194.49 134.246 193.11 135.855 190.187L140.475 181.798C143.136 176.967 150.078 176.967 152.739 181.798L153.993 184.075C156.571 188.756 163.355 188.586 165.696 183.782V183.782C168.393 178.244 176.537 179.101 178.022 185.08L186.929 220.945C187.086 221.578 187.331 222.186 187.656 222.751L196.445 238.017C198.643 241.834 203.777 242.697 207.102 239.81L209.439 237.78C212.143 235.432 216.188 235.519 218.788 237.982V237.982C222.718 241.706 229.207 239.713 230.371 234.426L240.852 186.799C241.109 185.628 241.663 184.544 242.46 183.649L250.869 174.203C251.486 173.51 252.234 172.947 253.07 172.546L265.673 166.499C267.345 165.697 268.63 164.265 269.247 162.516L276.87 140.892C278.838 135.312 286.411 134.537 289.466 139.604L290.83 141.865C293.138 145.692 298.394 146.405 301.639 143.331L304.445 140.672C306.97 138.28 310.868 138.104 313.597 140.259L317.412 143.271C320.226 145.493 324.262 145.23 326.764 142.662L328.428 140.954C331.947 137.342 338.015 138.523 339.922 143.191L342.433 149.338C344.868 155.298 353.38 155.087 355.516 149.013L358.708 139.941C360.538 134.742 367.379 133.598 370.8 137.919L371.497 138.8C374.118 142.111 379.052 142.365 381.999 139.34L386.71 134.505C388.679 132.484 391.669 131.843 394.294 132.879L396.01 133.556C399.959 135.116 404.376 132.828 405.381 128.702L417 81" stroke="black"/>
<path d="M346.652 50V38.948H342.926V37.4H352.268V38.948H348.56V50H346.652ZM356.54 50.216C355.688 50.216 354.92 50.024 354.236 49.64C353.564 49.244 353.03 48.698 352.634 48.002C352.238 47.294 352.04 46.472 352.04 45.536C352.04 44.6 352.238 43.784 352.634 43.088C353.042 42.38 353.588 41.834 354.272 41.45C354.956 41.054 355.718 40.856 356.558 40.856C357.41 40.856 358.172 41.054 358.844 41.45C359.528 41.834 360.068 42.38 360.464 43.088C360.872 43.784 361.076 44.6 361.076 45.536C361.076 46.472 360.872 47.294 360.464 48.002C360.068 48.698 359.528 49.244 358.844 49.64C358.16 50.024 357.392 50.216 356.54 50.216ZM356.54 48.578C356.996 48.578 357.416 48.464 357.8 48.236C358.196 48.008 358.514 47.672 358.754 47.228C358.994 46.772 359.114 46.208 359.114 45.536C359.114 44.864 358.994 44.306 358.754 43.862C358.526 43.406 358.214 43.064 357.818 42.836C357.434 42.608 357.014 42.494 356.558 42.494C356.102 42.494 355.676 42.608 355.28 42.836C354.896 43.064 354.584 43.406 354.344 43.862C354.104 44.306 353.984 44.864 353.984 45.536C353.984 46.208 354.104 46.772 354.344 47.228C354.584 47.672 354.896 48.008 355.28 48.236C355.664 48.464 356.084 48.578 356.54 48.578ZM366.532 50C365.656 50 364.96 49.79 364.444 49.37C363.928 48.938 363.67 48.176 363.67 47.084V42.674H362.14V41.072H363.67L363.904 38.804H365.578V41.072H368.098V42.674H365.578V47.084C365.578 47.576 365.68 47.918 365.884 48.11C366.1 48.29 366.466 48.38 366.982 48.38H368.008V50H366.532ZM370.821 50.108C370.461 50.108 370.161 49.994 369.921 49.766C369.693 49.526 369.579 49.244 369.579 48.92C369.579 48.584 369.693 48.302 369.921 48.074C370.161 47.834 370.461 47.714 370.821 47.714C371.181 47.714 371.475 47.834 371.703 48.074C371.931 48.302 372.045 48.584 372.045 48.92C372.045 49.244 371.931 49.526 371.703 49.766C371.475 49.994 371.181 50.108 370.821 50.108ZM370.821 43.25C370.461 43.25 370.161 43.136 369.921 42.908C369.693 42.668 369.579 42.386 369.579 42.062C369.579 41.726 369.693 41.444 369.921 41.216C370.161 40.976 370.461 40.856 370.821 40.856C371.181 40.856 371.475 40.976 371.703 41.216C371.931 41.444 372.045 41.726 372.045 42.062C372.045 42.386 371.931 42.668 371.703 42.908C371.475 43.136 371.181 43.25 370.821 43.25ZM383.254 50.216C382.33 50.216 381.55 50.042 380.914 49.694C380.278 49.346 379.762 48.884 379.366 48.308C378.982 47.732 378.706 47.084 378.538 46.364C378.37 45.644 378.286 44.906 378.286 44.15C378.286 42.758 378.478 41.54 378.862 40.496C379.258 39.452 379.822 38.642 380.554 38.066C381.286 37.478 382.174 37.184 383.218 37.184C384.046 37.184 384.754 37.346 385.342 37.67C385.93 37.994 386.386 38.426 386.71 38.966C387.046 39.506 387.25 40.094 387.322 40.73H385.54C385.432 40.106 385.174 39.626 384.766 39.29C384.358 38.954 383.836 38.786 383.2 38.786C382.324 38.786 381.598 39.2 381.022 40.028C380.458 40.844 380.158 42.104 380.122 43.808C380.41 43.28 380.854 42.83 381.454 42.458C382.066 42.086 382.768 41.9 383.56 41.9C384.268 41.9 384.928 42.068 385.54 42.404C386.164 42.74 386.668 43.214 387.052 43.826C387.448 44.426 387.646 45.14 387.646 45.968C387.646 46.7 387.466 47.39 387.106 48.038C386.746 48.686 386.236 49.214 385.576 49.622C384.928 50.018 384.154 50.216 383.254 50.216ZM383.146 48.56C383.65 48.56 384.1 48.452 384.496 48.236C384.892 48.02 385.204 47.726 385.432 47.354C385.66 46.97 385.774 46.538 385.774 46.058C385.774 45.29 385.522 44.678 385.018 44.222C384.526 43.766 383.896 43.538 383.128 43.538C382.624 43.538 382.168 43.652 381.76 43.88C381.364 44.108 381.052 44.414 380.824 44.798C380.596 45.17 380.482 45.584 380.482 46.04C380.482 46.532 380.596 46.97 380.824 47.354C381.064 47.726 381.382 48.02 381.778 48.236C382.186 48.452 382.642 48.56 383.146 48.56ZM395.041 50.216C393.901 50.216 392.917 49.946 392.089 49.406C391.273 48.854 390.643 48.092 390.199 47.12C389.767 46.136 389.551 44.996 389.551 43.7C389.551 42.404 389.767 41.27 390.199 40.298C390.643 39.314 391.273 38.552 392.089 38.012C392.917 37.46 393.901 37.184 395.041 37.184C396.181 37.184 397.159 37.46 397.975 38.012C398.791 38.552 399.415 39.314 399.847 40.298C400.291 41.27 400.513 42.404 400.513 43.7C400.513 44.996 400.291 46.136 399.847 47.12C399.415 48.092 398.791 48.854 397.975 49.406C397.159 49.946 396.181 50.216 395.041 50.216ZM395.041 48.506C395.725 48.506 396.331 48.314 396.859 47.93C397.399 47.546 397.819 46.994 398.119 46.274C398.419 45.554 398.569 44.696 398.569 43.7C398.569 42.704 398.419 41.846 398.119 41.126C397.819 40.406 397.399 39.854 396.859 39.47C396.331 39.086 395.725 38.894 395.041 38.894C394.345 38.894 393.733 39.086 393.205 39.47C392.677 39.854 392.263 40.406 391.963 41.126C391.663 41.846 391.513 42.704 391.513 43.7C391.513 44.696 391.663 45.554 391.963 46.274C392.263 46.994 392.677 47.546 393.205 47.93C393.733 48.314 394.345 48.506 395.041 48.506ZM407.679 50.216C406.539 50.216 405.555 49.946 404.727 49.406C403.911 48.854 403.281 48.092 402.837 47.12C402.405 46.136 402.189 44.996 402.189 43.7C402.189 42.404 402.405 41.27 402.837 40.298C403.281 39.314 403.911 38.552 404.727 38.012C405.555 37.46 406.539 37.184 407.679 37.184C408.819 37.184 409.797 37.46 410.613 38.012C411.429 38.552 412.053 39.314 412.485 40.298C412.929 41.27 413.151 42.404 413.151 43.7C413.151 44.996 412.929 46.136 412.485 47.12C412.053 48.092 411.429 48.854 410.613 49.406C409.797 49.946 408.819 50.216 407.679 50.216ZM407.679 48.506C408.363 48.506 408.969 48.314 409.497 47.93C410.037 47.546 410.457 46.994 410.757 46.274C411.057 45.554 411.207 44.696 411.207 43.7C411.207 42.704 411.057 41.846 410.757 41.126C410.457 40.406 410.037 39.854 409.497 39.47C408.969 39.086 408.363 38.894 407.679 38.894C406.983 38.894 406.371 39.086 405.843 39.47C405.315 39.854 404.901 40.406 404.601 41.126C404.301 41.846 404.151 42.704 404.151 43.7C404.151 44.696 404.301 45.554 404.601 46.274C404.901 46.994 405.315 47.546 405.843 47.93C406.371 48.314 406.983 48.506 407.679 48.506Z" fill="black"/>
<path d="M74.278 38V25.4H78.364C79.84 25.4 81.052 25.658 82 26.174C82.96 26.69 83.668 27.422 84.124 28.37C84.592 29.306 84.826 30.422 84.826 31.718C84.826 33.002 84.592 34.118 84.124 35.066C83.668 36.002 82.96 36.728 82 37.244C81.052 37.748 79.84 38 78.364 38H74.278ZM76.186 36.38H78.292C79.432 36.38 80.332 36.194 80.992 35.822C81.664 35.45 82.144 34.916 82.432 34.22C82.732 33.524 82.882 32.69 82.882 31.718C82.882 30.746 82.732 29.906 82.432 29.198C82.144 28.49 81.664 27.95 80.992 27.578C80.332 27.194 79.432 27.002 78.292 27.002H76.186V36.38ZM89.8863 38.216C89.1303 38.216 88.5063 38.09 88.0143 37.838C87.5223 37.586 87.1563 37.256 86.9163 36.848C86.6763 36.428 86.5563 35.972 86.5563 35.48C86.5563 34.616 86.8923 33.932 87.5643 33.428C88.2363 32.924 89.1963 32.672 90.4443 32.672H92.7843V32.51C92.7843 31.814 92.5923 31.292 92.2083 30.944C91.8363 30.596 91.3503 30.422 90.7503 30.422C90.2223 30.422 89.7603 30.554 89.3643 30.818C88.9803 31.07 88.7463 31.448 88.6623 31.952H86.7543C86.8143 31.304 87.0303 30.752 87.4023 30.296C87.7863 29.828 88.2663 29.474 88.8423 29.234C89.4303 28.982 90.0723 28.856 90.7683 28.856C92.0163 28.856 92.9823 29.186 93.6663 29.846C94.3503 30.494 94.6923 31.382 94.6923 32.51V38H93.0363L92.8743 36.47C92.6223 36.962 92.2563 37.376 91.7763 37.712C91.2963 38.048 90.6663 38.216 89.8863 38.216ZM90.2643 36.668C90.7803 36.668 91.2123 36.548 91.5603 36.308C91.9203 36.056 92.1963 35.726 92.3883 35.318C92.5923 34.91 92.7183 34.46 92.7663 33.968H90.6423C89.8863 33.968 89.3463 34.1 89.0223 34.364C88.7103 34.628 88.5543 34.958 88.5543 35.354C88.5543 35.762 88.7043 36.086 89.0043 36.326C89.3163 36.554 89.7363 36.668 90.2643 36.668ZM96.9169 38V25.04H98.8249V38H96.9169ZM101.241 38V29.072H102.933L103.095 30.332C103.383 29.876 103.761 29.516 104.229 29.252C104.709 28.988 105.261 28.856 105.885 28.856C107.301 28.856 108.285 29.414 108.837 30.53C109.161 30.014 109.593 29.606 110.133 29.306C110.685 29.006 111.279 28.856 111.915 28.856C113.031 28.856 113.907 29.192 114.543 29.864C115.179 30.536 115.497 31.538 115.497 32.87V38H113.589V33.068C113.589 31.34 112.929 30.476 111.609 30.476C110.937 30.476 110.385 30.728 109.953 31.232C109.533 31.736 109.323 32.456 109.323 33.392V38H107.415V33.068C107.415 31.34 106.749 30.476 105.417 30.476C104.757 30.476 104.211 30.728 103.779 31.232C103.359 31.736 103.149 32.456 103.149 33.392V38H101.241ZM120.753 38.216C119.997 38.216 119.373 38.09 118.881 37.838C118.389 37.586 118.023 37.256 117.783 36.848C117.543 36.428 117.423 35.972 117.423 35.48C117.423 34.616 117.759 33.932 118.431 33.428C119.103 32.924 120.063 32.672 121.311 32.672H123.651V32.51C123.651 31.814 123.459 31.292 123.075 30.944C122.703 30.596 122.217 30.422 121.617 30.422C121.089 30.422 120.627 30.554 120.231 30.818C119.847 31.07 119.613 31.448 119.529 31.952H117.621C117.681 31.304 117.897 30.752 118.269 30.296C118.653 29.828 119.133 29.474 119.709 29.234C120.297 28.982 120.939 28.856 121.635 28.856C122.883 28.856 123.849 29.186 124.533 29.846C125.217 30.494 125.559 31.382 125.559 32.51V38H123.903L123.741 36.47C123.489 36.962 123.123 37.376 122.643 37.712C122.163 38.048 121.533 38.216 120.753 38.216ZM121.131 36.668C121.647 36.668 122.079 36.548 122.427 36.308C122.787 36.056 123.063 35.726 123.255 35.318C123.459 34.91 123.585 34.46 123.633 33.968H121.509C120.753 33.968 120.213 34.1 119.889 34.364C119.577 34.628 119.421 34.958 119.421 35.354C119.421 35.762 119.571 36.086 119.871 36.326C120.183 36.554 120.603 36.668 121.131 36.668Z" fill="black"/>
<circle cx="40" cy="42" r="20" fill="black"/>
<path d="M40.5 31L41.8717 37.7312L47.2493 33.4565L43.9733 39.4947L50.8405 39.6767L44.4497 42.1964L49.5933 46.75L43.078 44.5723L44.0912 51.3668L40.5 45.5106L36.9088 51.3668L37.922 44.5723L31.4067 46.75L36.5503 42.1964L30.1595 39.6767L37.0267 39.4947L33.7507 33.4565L39.1283 37.7312L40.5 31Z" fill="#B6FF9C"/>
<path opacity="0.6" d="M76.29 60V51.404H73.392V50.2H80.658V51.404H77.774V60H76.29ZM83.9809 60.168C83.3183 60.168 82.7209 60.0187 82.1889 59.72C81.6663 59.412 81.2509 58.9873 80.9429 58.446C80.6349 57.8953 80.4809 57.256 80.4809 56.528C80.4809 55.8 80.6349 55.1653 80.9429 54.624C81.2603 54.0733 81.6849 53.6487 82.2169 53.35C82.7489 53.042 83.3416 52.888 83.9949 52.888C84.6576 52.888 85.2503 53.042 85.7729 53.35C86.3049 53.6487 86.7249 54.0733 87.0329 54.624C87.3503 55.1653 87.5089 55.8 87.5089 56.528C87.5089 57.256 87.3503 57.8953 87.0329 58.446C86.7249 58.9873 86.3049 59.412 85.7729 59.72C85.2409 60.0187 84.6436 60.168 83.9809 60.168ZM83.9809 58.894C84.3356 58.894 84.6623 58.8053 84.9609 58.628C85.2689 58.4507 85.5163 58.1893 85.7029 57.844C85.8896 57.4893 85.9829 57.0507 85.9829 56.528C85.9829 56.0053 85.8896 55.5713 85.7029 55.226C85.5256 54.8713 85.2829 54.6053 84.9749 54.428C84.6763 54.2507 84.3496 54.162 83.9949 54.162C83.6403 54.162 83.3089 54.2507 83.0009 54.428C82.7023 54.6053 82.4596 54.8713 82.2729 55.226C82.0863 55.5713 81.9929 56.0053 81.9929 56.528C81.9929 57.0507 82.0863 57.4893 82.2729 57.844C82.4596 58.1893 82.7023 58.4507 83.0009 58.628C83.2996 58.8053 83.6263 58.894 83.9809 58.894ZM91.7523 60C91.071 60 90.5297 59.8367 90.1283 59.51C89.727 59.174 89.5263 58.5813 89.5263 57.732V54.302H88.3363V53.056H89.5263L89.7083 51.292H91.0103V53.056H92.9703V54.302H91.0103V57.732C91.0103 58.1147 91.0897 58.3807 91.2483 58.53C91.4163 58.67 91.701 58.74 92.1023 58.74H92.9003V60H91.7523ZM96.8525 60.168C96.2645 60.168 95.7792 60.07 95.3965 59.874C95.0138 59.678 94.7292 59.4213 94.5425 59.104C94.3558 58.7773 94.2625 58.4227 94.2625 58.04C94.2625 57.368 94.5238 56.836 95.0465 56.444C95.5692 56.052 96.3158 55.856 97.2865 55.856H99.1065V55.73C99.1065 55.1887 98.9572 54.7827 98.6585 54.512C98.3692 54.2413 97.9912 54.106 97.5245 54.106C97.1138 54.106 96.7545 54.2087 96.4465 54.414C96.1478 54.61 95.9658 54.904 95.9005 55.296H94.4165C94.4632 54.792 94.6312 54.3627 94.9205 54.008C95.2192 53.644 95.5925 53.3687 96.0405 53.182C96.4978 52.986 96.9972 52.888 97.5385 52.888C98.5092 52.888 99.2605 53.1447 99.7925 53.658C100.325 54.162 100.591 54.8527 100.591 55.73V60H99.3025L99.1765 58.81C98.9805 59.1927 98.6958 59.5147 98.3225 59.776C97.9492 60.0373 97.4592 60.168 96.8525 60.168ZM97.1465 58.964C97.5478 58.964 97.8838 58.8707 98.1545 58.684C98.4345 58.488 98.6492 58.2313 98.7985 57.914C98.9572 57.5967 99.0552 57.2467 99.0925 56.864H97.4405C96.8525 56.864 96.4325 56.9667 96.1805 57.172C95.9378 57.3773 95.8165 57.634 95.8165 57.942C95.8165 58.2593 95.9332 58.5113 96.1665 58.698C96.4092 58.8753 96.7358 58.964 97.1465 58.964ZM102.321 60V49.92H103.805V60H102.321ZM111.983 60.168C111.106 60.168 110.383 59.9533 109.813 59.524C109.244 59.0947 108.917 58.5253 108.833 57.816H110.331C110.406 58.1333 110.583 58.4087 110.863 58.642C111.143 58.866 111.512 58.978 111.969 58.978C112.417 58.978 112.744 58.8847 112.949 58.698C113.155 58.5113 113.257 58.2967 113.257 58.054C113.257 57.6993 113.113 57.4613 112.823 57.34C112.543 57.2093 112.151 57.0927 111.647 56.99C111.255 56.906 110.863 56.794 110.471 56.654C110.089 56.514 109.767 56.318 109.505 56.066C109.253 55.8047 109.127 55.4547 109.127 55.016C109.127 54.4093 109.361 53.9053 109.827 53.504C110.294 53.0933 110.947 52.888 111.787 52.888C112.562 52.888 113.187 53.0747 113.663 53.448C114.149 53.8213 114.433 54.3487 114.517 55.03H113.089C113.043 54.7313 112.903 54.498 112.669 54.33C112.445 54.162 112.142 54.078 111.759 54.078C111.386 54.078 111.097 54.1573 110.891 54.316C110.686 54.4653 110.583 54.6613 110.583 54.904C110.583 55.1467 110.723 55.338 111.003 55.478C111.293 55.618 111.671 55.744 112.137 55.856C112.604 55.9587 113.033 56.08 113.425 56.22C113.827 56.3507 114.149 56.5467 114.391 56.808C114.634 57.0693 114.755 57.452 114.755 57.956C114.765 58.5907 114.517 59.118 114.013 59.538C113.519 59.958 112.842 60.168 111.983 60.168ZM118.728 60.168C118.14 60.168 117.654 60.07 117.272 59.874C116.889 59.678 116.604 59.4213 116.418 59.104C116.231 58.7773 116.138 58.4227 116.138 58.04C116.138 57.368 116.399 56.836 116.922 56.444C117.444 56.052 118.191 55.856 119.162 55.856H120.982V55.73C120.982 55.1887 120.832 54.7827 120.534 54.512C120.244 54.2413 119.866 54.106 119.4 54.106C118.989 54.106 118.63 54.2087 118.322 54.414C118.023 54.61 117.841 54.904 117.776 55.296H116.292C116.338 54.792 116.506 54.3627 116.796 54.008C117.094 53.644 117.468 53.3687 117.916 53.182C118.373 52.986 118.872 52.888 119.414 52.888C120.384 52.888 121.136 53.1447 121.668 53.658C122.2 54.162 122.466 54.8527 122.466 55.73V60H121.178L121.052 58.81C120.856 59.1927 120.571 59.5147 120.198 59.776C119.824 60.0373 119.334 60.168 118.728 60.168ZM119.022 58.964C119.423 58.964 119.759 58.8707 120.03 58.684C120.31 58.488 120.524 58.2313 120.674 57.914C120.832 57.5967 120.93 57.2467 120.968 56.864H119.316C118.728 56.864 118.308 56.9667 118.056 57.172C117.813 57.3773 117.692 57.634 117.692 57.942C117.692 58.2593 117.808 58.5113 118.042 58.698C118.284 58.8753 118.611 58.964 119.022 58.964ZM124.196 60V49.92H125.68V60H124.196ZM130.807 60.168C130.126 60.168 129.519 60.0187 128.987 59.72C128.464 59.412 128.054 58.9873 127.755 58.446C127.456 57.9047 127.307 57.2747 127.307 56.556C127.307 55.828 127.452 55.1887 127.741 54.638C128.04 54.0873 128.45 53.658 128.973 53.35C129.505 53.042 130.121 52.888 130.821 52.888C131.502 52.888 132.095 53.042 132.599 53.35C133.103 53.6487 133.495 54.05 133.775 54.554C134.055 55.058 134.195 55.6133 134.195 56.22C134.195 56.3133 134.19 56.416 134.181 56.528C134.181 56.6307 134.176 56.7473 134.167 56.878H128.763C128.81 57.55 129.029 58.0633 129.421 58.418C129.822 58.7633 130.284 58.936 130.807 58.936C131.227 58.936 131.577 58.8427 131.857 58.656C132.146 58.46 132.361 58.1987 132.501 57.872H133.985C133.798 58.5253 133.425 59.0713 132.865 59.51C132.314 59.9487 131.628 60.168 130.807 60.168ZM130.807 54.106C130.312 54.106 129.874 54.2553 129.491 54.554C129.108 54.8433 128.875 55.282 128.791 55.87H132.711C132.683 55.3287 132.492 54.8993 132.137 54.582C131.782 54.2647 131.339 54.106 130.807 54.106ZM138.507 60.168C137.63 60.168 136.906 59.9533 136.337 59.524C135.768 59.0947 135.441 58.5253 135.357 57.816H136.855C136.93 58.1333 137.107 58.4087 137.387 58.642C137.667 58.866 138.036 58.978 138.493 58.978C138.941 58.978 139.268 58.8847 139.473 58.698C139.678 58.5113 139.781 58.2967 139.781 58.054C139.781 57.6993 139.636 57.4613 139.347 57.34C139.067 57.2093 138.675 57.0927 138.171 56.99C137.779 56.906 137.387 56.794 136.995 56.654C136.612 56.514 136.29 56.318 136.029 56.066C135.777 55.8047 135.651 55.4547 135.651 55.016C135.651 54.4093 135.884 53.9053 136.351 53.504C136.818 53.0933 137.471 52.888 138.311 52.888C139.086 52.888 139.711 53.0747 140.187 53.448C140.672 53.8213 140.957 54.3487 141.041 55.03H139.613C139.566 54.7313 139.426 54.498 139.193 54.33C138.969 54.162 138.666 54.078 138.283 54.078C137.91 54.078 137.62 54.1573 137.415 54.316C137.21 54.4653 137.107 54.6613 137.107 54.904C137.107 55.1467 137.247 55.338 137.527 55.478C137.816 55.618 138.194 55.744 138.661 55.856C139.128 55.9587 139.557 56.08 139.949 56.22C140.35 56.3507 140.672 56.5467 140.915 56.808C141.158 57.0693 141.279 57.452 141.279 57.956C141.288 58.5907 141.041 59.118 140.537 59.538C140.042 59.958 139.366 60.168 138.507 60.168Z" fill="black"/>
<path d="M198.68 305V298H201.07C201.89 298 202.563 298.147 203.09 298.44C203.623 298.727 204.017 299.133 204.27 299.66C204.53 300.18 204.66 300.793 204.66 301.5C204.66 302.207 204.53 302.823 204.27 303.35C204.017 303.87 203.623 304.277 203.09 304.57C202.563 304.857 201.89 305 201.07 305H198.68ZM199.96 303.9H201.01C201.597 303.9 202.06 303.807 202.4 303.62C202.74 303.427 202.983 303.153 203.13 302.8C203.277 302.44 203.35 302.007 203.35 301.5C203.35 301 203.277 300.57 203.13 300.21C202.983 299.85 202.74 299.573 202.4 299.38C202.06 299.187 201.597 299.09 201.01 299.09H199.96V303.9ZM205.89 305L208.45 298H209.89L212.45 305H211.09L210.53 303.38H207.8L207.23 305H205.89ZM208.15 302.38H210.18L209.16 299.47L208.15 302.38ZM215.351 305V302.51L213.001 298H214.451L216.001 301.23L217.541 298H218.971L216.631 302.51V305H215.351Z" fill="black"/>
<rect x="190" y="294" width="38" height="16" rx="8" stroke="black" stroke-opacity="0.1"/>
<path d="M38.23 305L40.79 298H42.23L44.79 305H43.43L42.87 303.38H40.14L39.57 305H38.23ZM40.49 302.38H42.52L41.5 299.47L40.49 302.38ZM46.6917 305V298H47.9717V304H51.0717V305H46.6917ZM53.1995 305V298H54.4795V304H57.5795V305H53.1995Z" fill="black"/>
<rect x="30" y="294" width="37" height="16" rx="8" stroke="black" stroke-opacity="0.1"/>
<rect x="73" y="294" width="57" height="16" rx="8" fill="black"/>
<path d="M81.68 305V298H83.2L85.43 302.44L87.63 298H89.15V305H87.87V300.17L85.92 304H84.91L82.96 300.17V305H81.68ZM94.7881 305.12C94.0881 305.12 93.4748 304.967 92.9481 304.66C92.4281 304.353 92.0181 303.93 91.7181 303.39C91.4248 302.843 91.2781 302.213 91.2781 301.5C91.2781 300.787 91.4248 300.16 91.7181 299.62C92.0181 299.073 92.4281 298.647 92.9481 298.34C93.4748 298.033 94.0881 297.88 94.7881 297.88C95.4815 297.88 96.0915 298.033 96.6181 298.34C97.1448 298.647 97.5548 299.073 97.8481 299.62C98.1415 300.16 98.2881 300.787 98.2881 301.5C98.2881 302.213 98.1415 302.843 97.8481 303.39C97.5548 303.93 97.1448 304.353 96.6181 304.66C96.0915 304.967 95.4815 305.12 94.7881 305.12ZM94.7881 303.97C95.4548 303.97 95.9848 303.75 96.3781 303.31C96.7781 302.87 96.9781 302.267 96.9781 301.5C96.9781 300.733 96.7781 300.13 96.3781 299.69C95.9848 299.25 95.4548 299.03 94.7881 299.03C94.1215 299.03 93.5881 299.25 93.1881 299.69C92.7881 300.13 92.5881 300.733 92.5881 301.5C92.5881 302.267 92.7881 302.87 93.1881 303.31C93.5881 303.75 94.1215 303.97 94.7881 303.97ZM100.418 305V298H101.698L104.988 302.93V298H106.268V305H104.988L101.698 300.08V305H100.418ZM110.255 305V299.03H108.215V298H113.585V299.03H111.535V305H110.255ZM115.534 305V298H116.814V300.91H119.954V298H121.234V305H119.954V301.95H116.814V305H115.534Z" fill="white"/>
<path d="M146.1 305L144.25 298H145.62L146.88 303.57L148.36 298H149.77L151.21 303.57L152.47 298H153.85L151.95 305H150.43L149.04 299.81L147.61 305H146.1ZM155.778 305V298H160.348V299.03H157.058V300.95H160.048V301.95H157.058V303.97H160.348V305H155.778ZM162.559 305V298H167.129V299.03H163.839V300.95H166.829V301.95H163.839V303.97H167.129V305H162.559ZM169.34 305V298H170.62V300.83L173.21 298H174.79L172.21 300.78L174.86 305H173.29L171.29 301.76L170.62 302.49V305H169.34Z" fill="black"/>
<rect x="136" y="294" width="48" height="16" rx="8" stroke="black" stroke-opacity="0.1"/>
</g>
<defs>
<clipPath id="clip0_374_1010">
<path d="M0 12C0 5.37258 5.37258 0 12 0H432C438.627 0 444 5.37258 444 12V404H0V12Z" fill="white"/>
</clipPath>
</defs>
</svg>
