<svg width="134" height="35" viewBox="0 0 134 35" fill="none" xmlns="http://www.w3.org/2000/svg">
<path d="M0 18.3881C0 24.0041 3.348 28.3601 8.532 28.3601C11.016 28.3601 13.104 27.2441 14.616 25.2281V28.0001H19.188V2.1521H14.22V11.2601C12.78 9.4241 10.836 8.4161 8.532 8.4161C3.348 8.4161 0 12.7001 0 18.3881ZM5.148 18.3881C5.148 14.7161 7.2 12.8441 9.648 12.8441C12.096 12.8441 14.184 14.6801 14.184 18.3161C14.184 21.9521 12.132 23.8961 9.648 23.8961C7.2 23.8961 5.148 21.9881 5.148 18.3881Z" fill="white"/>
<path d="M33.3025 28.0001H37.3705V15.9041C37.3705 11.1881 34.4185 8.4161 29.3785 8.4161C24.7345 8.4161 21.5305 11.2961 21.2425 15.7241H25.7425C25.9225 13.5641 27.2185 12.3041 29.3785 12.3041C31.4665 12.3041 32.6905 13.5641 32.6905 15.7241V16.8761C31.5025 16.7321 30.5665 16.6601 29.4865 16.6601C23.8705 16.6601 20.8465 18.6761 20.8465 22.4201C20.8465 26.0201 23.5105 28.3601 27.5065 28.3601C30.1345 28.3601 32.0425 27.4241 33.3025 25.6241V28.0001ZM25.5625 22.2761C25.5625 20.5481 26.9665 19.6481 29.8105 19.6481C30.6745 19.6481 31.5025 19.7201 32.6905 19.9001V21.2681C32.6905 23.5001 31.1425 24.9041 28.5865 24.9041C26.7145 24.9041 25.5625 23.8961 25.5625 22.2761Z" fill="white"/>
<path d="M44.9227 28.0001V2.1521H39.8827V28.0001H44.9227Z" fill="white"/>
<path d="M52.614 28.0001V17.2721C52.614 14.3921 54.198 12.8441 56.214 12.8441C58.41 12.8441 59.562 14.4641 59.562 17.1641V28.0001H64.53V17.2721C64.53 14.3921 66.15 12.8441 68.13 12.8441C70.326 12.8441 71.478 14.4641 71.478 17.1641V28.0001H76.446V15.5801C76.446 10.9721 73.818 8.4161 69.93 8.4161C67.05 8.4161 65.106 9.7121 63.594 11.8361C62.622 9.6401 60.606 8.4161 57.978 8.4161C55.422 8.4161 53.622 9.5681 52.218 11.5121V8.7761H47.61V28.0001H52.614Z" fill="white"/>
<path d="M90.3752 28.0001H94.4432V15.9041C94.4432 11.1881 91.4912 8.4161 86.4512 8.4161C81.8072 8.4161 78.6032 11.2961 78.3152 15.7241H82.8152C82.9952 13.5641 84.2912 12.3041 86.4512 12.3041C88.5392 12.3041 89.7632 13.5641 89.7632 15.7241V16.8761C88.5752 16.7321 87.6392 16.6601 86.5592 16.6601C80.9432 16.6601 77.9192 18.6761 77.9192 22.4201C77.9192 26.0201 80.5832 28.3601 84.5792 28.3601C87.2072 28.3601 89.1152 27.4241 90.3752 25.6241V28.0001ZM82.6352 22.2761C82.6352 20.5481 84.0392 19.6481 86.8832 19.6481C87.7472 19.6481 88.5752 19.7201 89.7632 19.9001V21.2681C89.7632 23.5001 88.2152 24.9041 85.6592 24.9041C83.7872 24.9041 82.6352 23.8961 82.6352 22.2761Z" fill="white"/>
<path d="M115.528 0L117.814 11.2187L126.777 4.09422L121.317 14.1578L132.762 14.4612L122.111 18.6607L130.683 26.25L119.825 22.6206L121.513 33.9446L115.528 24.1844L109.543 33.9446L111.231 22.6206L100.373 26.25L108.945 18.6607L98.2939 14.4612L109.739 14.1578L104.279 4.09422L113.242 11.2187L115.528 0Z" fill="#B6FF9C"/>
</svg>
