<svg width="156" height="30" viewBox="0 0 156 30" fill="none" xmlns="http://www.w3.org/2000/svg">
<path d="M4.48481 3.34064C6.59546 1.32549 9.46144 0.149288 12.3662 0.00298339C13.3603 0.00298339 14.3574 0.00894814 15.3516 0C15.3008 1.06579 15.3516 2.13456 15.3217 3.2003C15.1814 5.58263 14.3007 7.91121 12.817 9.78006C10.8884 12.2938 7.93889 13.9805 4.80724 14.4164C3.43995 14.6373 2.05172 14.4969 0.67548 14.5358C0.699342 13.3625 0.624723 12.1863 0.717288 11.016C0.985985 8.11424 2.35626 5.33486 4.48481 3.34064Z" fill="white" fill-opacity="0.6"/>
<path d="M16.2722 0C17.338 0.0119308 18.4038 -0.005966 19.4726 0.00596485C22.1325 0.194027 24.7567 1.21503 26.7597 2.98539C28.9689 4.88108 30.4825 7.59181 30.8708 10.4876C31.0406 11.831 30.9335 13.1894 30.9992 14.5387C30.0675 14.5358 29.1393 14.5328 28.2076 14.5387C25.918 14.4761 23.667 13.7357 21.7504 12.4878C20.8667 11.8549 19.9591 11.2131 19.2964 10.3354C17.8425 8.71134 16.8544 6.67233 16.4812 4.52285C16.2006 3.03013 16.314 1.50763 16.2722 0Z" fill="white"/>
<path d="M0.677534 15.3926C1.62391 15.4463 2.57327 15.3478 3.51662 15.4523C7.55582 15.5388 11.4757 17.8077 13.5684 21.2618C14.7685 23.1963 15.4133 25.4892 15.3298 27.7671C15.3267 28.5133 15.3387 29.2565 15.3178 30.0001C13.8192 29.9551 12.3056 30.0775 10.8218 29.7878C7.52599 29.2327 4.49586 27.2712 2.67175 24.4711C1.28954 22.4351 0.599931 19.9482 0.671567 17.4913C0.671567 16.7897 0.671568 16.0911 0.677534 15.3926Z" fill="white"/>
<path d="M25.9554 15.7088C27.5797 15.3475 29.2541 15.4072 30.9052 15.4072L30.977 15.4789C30.9411 17.0403 31.0634 18.6195 30.75 20.163C30.0902 23.626 27.7976 26.7191 24.7136 28.4177C22.794 29.4864 20.5907 30.0117 18.3965 29.9879C17.6949 29.9909 16.9904 29.9758 16.2888 29.997C16.2888 28.7043 16.2351 27.4056 16.3814 26.119C16.7217 23.005 18.4054 20.1062 20.8266 18.1479C22.3252 16.9656 24.0866 16.1088 25.9554 15.7088Z" fill="white" fill-opacity="0.3"/>
<path d="M43.2319 24.2177C43.2319 24.7433 43.0499 25.188 42.6864 25.5517C42.3426 25.8955 41.9078 26.0674 41.3826 26.0674C40.877 26.0674 40.4524 25.8955 40.1091 25.5517C39.7653 25.188 39.5934 24.7433 39.5934 24.2177V5.47898C39.5934 4.95342 39.7653 4.5188 40.1091 4.17518C40.4726 3.81134 40.9175 3.62939 41.4432 3.62939C41.9685 3.62939 42.3931 3.81134 42.7167 4.17518C43.06 4.5188 43.2319 4.95342 43.2319 5.47898V24.2177Z" fill="white"/>
<path d="M57.8362 9.84521C58.3614 9.84521 58.7962 10.0271 59.14 10.391C59.4832 10.7346 59.6551 11.1692 59.6551 11.6948V19.3965C59.6551 21.5392 59.0591 23.2372 57.8665 24.4905C56.6734 25.7437 54.9556 26.3706 52.7115 26.3706C50.4679 26.3706 48.7495 25.7437 47.5569 24.4905C46.3846 23.2372 45.7982 21.5392 45.7982 19.3965V11.6948C45.7982 11.1692 45.97 10.7346 46.3138 10.391C46.6576 10.0271 47.0918 9.84521 47.6176 9.84521C48.1434 9.84521 48.5776 10.0271 48.9214 10.391C49.2652 10.7346 49.4371 11.1692 49.4371 11.6948V19.3965C49.4371 20.6295 49.7101 21.5493 50.2555 22.1557C50.8015 22.742 51.62 23.035 52.7115 23.035C53.8237 23.035 54.6523 22.742 55.1982 22.1557C55.7437 21.5493 56.0167 20.6295 56.0167 19.3965V11.6948C56.0167 11.1692 56.1886 10.7346 56.5324 10.391C56.8756 10.0271 57.3104 9.84521 57.8362 9.84521Z" fill="white"/>
<path d="M70.5987 9.54199C72.2159 9.54199 73.4085 9.93616 74.1769 10.7245C74.9449 11.4927 75.4504 12.4933 75.6926 13.7263L75.1774 13.4534L75.4201 12.9683C75.6622 12.5034 76.0363 12.0081 76.5419 11.4826C77.0469 10.9368 77.6536 10.482 78.3608 10.1181C79.0888 9.734 79.8972 9.54199 80.7869 9.54199C82.2424 9.54199 83.344 9.85533 84.0917 10.482C84.8601 11.1086 85.3854 11.9475 85.6685 12.9987C85.9516 14.0296 86.0931 15.1818 86.0931 16.4553V24.2176C86.0931 24.7432 85.9212 25.1879 85.5775 25.5516C85.2337 25.8954 84.7994 26.0673 84.2737 26.0673C83.7484 26.0673 83.3136 25.8954 82.9699 25.5516C82.6261 25.1879 82.4542 24.7432 82.4542 24.2176V16.4553C82.4542 15.7882 82.3738 15.1919 82.2121 14.6663C82.0503 14.1205 81.7571 13.6859 81.3324 13.3625C80.9083 13.039 80.3016 12.8774 79.5135 12.8774C78.745 12.8774 78.0883 13.039 77.5423 13.3625C76.9964 13.6859 76.5823 14.1205 76.2992 14.6663C76.0363 15.1919 75.9049 15.7882 75.9049 16.4553V24.2176C75.9049 24.7432 75.733 25.1879 75.3897 25.5516C75.046 25.8954 74.6112 26.0673 74.0859 26.0673C73.5602 26.0673 73.1254 25.8954 72.7821 25.5516C72.4384 25.1879 72.2665 24.7432 72.2665 24.2176V16.4553C72.2665 15.7882 72.1856 15.1919 72.0238 14.6663C71.862 14.1205 71.5688 13.6859 71.1447 13.3625C70.72 13.039 70.1134 12.8774 69.3252 12.8774C68.5573 12.8774 67.9001 13.039 67.3541 13.3625C66.8086 13.6859 66.3941 14.1205 66.111 14.6663C65.8486 15.1919 65.7172 15.7882 65.7172 16.4553V24.2176C65.7172 24.7432 65.5453 25.1879 65.2015 25.5516C64.8577 25.8954 64.4235 26.0673 63.8977 26.0673C63.3719 26.0673 62.9377 25.8954 62.5939 25.5516C62.2501 25.1879 62.0782 24.7432 62.0782 24.2176V11.6948C62.0782 11.1692 62.2501 10.7346 62.5939 10.391C62.9377 10.0271 63.3719 9.84522 63.8977 9.84522C64.4235 9.84522 64.8577 10.0271 65.2015 10.391C65.5453 10.7346 65.7172 11.1692 65.7172 11.6948V12.9987L65.2622 12.9077C65.4442 12.564 65.6969 12.2001 66.02 11.8161C66.3435 11.4118 66.7378 11.0378 67.2029 10.6942C67.6675 10.3506 68.1832 10.0777 68.7489 9.8755C69.3151 9.65316 69.9319 9.54199 70.5987 9.54199Z" fill="white"/>
<path d="M91.9419 24.2177C91.9419 24.7432 91.77 25.188 91.4263 25.5517C91.083 25.8955 90.6482 26.0674 90.1225 26.0674C89.5972 26.0674 89.1624 25.8955 88.8187 25.5517C88.4754 25.188 88.3035 24.7432 88.3035 24.2177V11.6949C88.3035 11.1693 88.4754 10.7347 88.8187 10.3911C89.1624 10.0272 89.5972 9.8453 90.1225 9.8453C90.6482 9.8453 91.083 10.0272 91.4263 10.3911C91.77 10.7347 91.9419 11.1693 91.9419 11.6949V24.2177ZM90.0921 7.87439C89.4051 7.87439 88.9198 7.76322 88.6367 7.54083C88.3541 7.31849 88.2125 6.92432 88.2125 6.35831V5.78219C88.2125 5.19601 88.3642 4.80179 88.667 4.59967C88.9906 4.37733 89.4759 4.26611 90.1225 4.26611C90.8302 4.26611 91.3257 4.37733 91.6083 4.59967C91.8914 4.82201 92.0329 5.21618 92.0329 5.78219V6.35831C92.0329 6.94454 91.8813 7.34882 91.5779 7.57116C91.2751 7.77333 90.7797 7.87439 90.0921 7.87439Z" fill="white"/>
<path d="M102.837 9.54199C104.333 9.54199 105.464 9.85533 106.232 10.482C107.021 11.1086 107.556 11.9475 107.84 12.9987C108.143 14.0296 108.295 15.1818 108.295 16.4553V24.2176C108.295 24.7432 108.123 25.1879 107.779 25.5516C107.435 25.8954 107.001 26.0673 106.475 26.0673C105.95 26.0673 105.515 25.8954 105.171 25.5516C104.827 25.1879 104.656 24.7432 104.656 24.2176V16.4553C104.656 15.7882 104.565 15.1919 104.383 14.6663C104.221 14.1205 103.918 13.6859 103.473 13.3625C103.029 13.039 102.392 12.8774 101.563 12.8774C100.754 12.8774 100.067 13.039 99.5011 13.3625C98.9556 13.6859 98.5309 14.1205 98.2276 14.6663C97.9445 15.1919 97.803 15.7882 97.803 16.4553V24.2176C97.803 24.7432 97.6316 25.1879 97.2878 25.5516C96.944 25.8954 96.5093 26.0673 95.984 26.0673C95.4582 26.0673 95.0235 25.8954 94.6802 25.5516C94.3364 25.1879 94.1646 24.7432 94.1646 24.2176V11.6948C94.1646 11.1692 94.3364 10.7346 94.6802 10.391C95.0235 10.0271 95.4582 9.84522 95.984 9.84522C96.5093 9.84522 96.944 10.0271 97.2878 10.391C97.6316 10.7346 97.803 11.1692 97.803 11.6948V12.9987L97.3485 12.9077C97.5305 12.564 97.7928 12.2001 98.1366 11.8161C98.4804 11.4118 98.8848 11.0378 99.3494 10.6942C99.8145 10.3506 100.34 10.0777 100.926 9.8755C101.513 9.65316 102.149 9.54199 102.837 9.54199Z" fill="white"/>
<path d="M126.297 17.9713C126.297 19.6289 125.923 21.0945 125.175 22.368C124.447 23.6213 123.457 24.6017 122.203 25.309C120.97 26.0167 119.586 26.3706 118.049 26.3706C116.513 26.3706 115.118 26.0167 113.865 25.309C112.632 24.6017 111.642 23.6213 110.893 22.368C110.166 21.0945 109.802 19.6289 109.802 17.9713C109.802 16.3138 110.166 14.8583 110.893 13.6051C111.642 12.3315 112.632 11.3411 113.865 10.6336C115.118 9.90583 116.513 9.54199 118.049 9.54199C119.586 9.54199 120.97 9.90583 122.203 10.6336C123.457 11.3411 124.447 12.3315 125.175 13.6051C125.923 14.8583 126.297 16.3138 126.297 17.9713ZM122.658 17.9713C122.658 16.9404 122.446 16.051 122.021 15.3031C121.617 14.5349 121.061 13.9386 120.354 13.5141C119.667 13.0896 118.898 12.8774 118.049 12.8774C117.201 12.8774 116.422 13.0896 115.715 13.5141C115.027 13.9386 114.471 14.5349 114.047 15.3031C113.643 16.051 113.44 16.9404 113.44 17.9713C113.44 18.9821 113.643 19.8715 114.047 20.6397C114.471 21.3876 115.027 21.9738 115.715 22.3983C116.422 22.8228 117.201 23.035 118.049 23.035C118.898 23.035 119.667 22.8228 120.354 22.3983C121.061 21.9738 121.617 21.3876 122.021 20.6397C122.446 19.8715 122.658 18.9821 122.658 17.9713Z" fill="white"/>
<path d="M139.858 9.84521C140.384 9.84521 140.819 10.0271 141.163 10.391C141.506 10.7346 141.678 11.1692 141.678 11.6948V19.3965C141.678 21.5392 141.082 23.2372 139.889 24.4905C138.696 25.7437 136.978 26.3706 134.734 26.3706C132.491 26.3706 130.772 25.7437 129.58 24.4905C128.407 23.2372 127.821 21.5392 127.821 19.3965V11.6948C127.821 11.1692 127.993 10.7346 128.336 10.391C128.68 10.0271 129.114 9.84521 129.64 9.84521C130.166 9.84521 130.6 10.0271 130.944 10.391C131.288 10.7346 131.46 11.1692 131.46 11.6948V19.3965C131.46 20.6295 131.732 21.5493 132.278 22.1557C132.824 22.742 133.643 23.035 134.734 23.035C135.846 23.035 136.675 22.742 137.22 22.1557C137.766 21.5493 138.039 20.6295 138.039 19.3965V11.6948C138.039 11.1692 138.211 10.7346 138.555 10.391C138.898 10.0271 139.333 9.84521 139.858 9.84521Z" fill="white"/>
<path d="M143.161 23.5505C142.959 23.2675 142.868 22.9036 142.888 22.459C142.908 22.0142 143.171 21.6302 143.677 21.3067C144 21.1046 144.344 21.0237 144.708 21.0642C145.071 21.0844 145.425 21.2663 145.769 21.6099C146.355 22.1962 146.971 22.651 147.619 22.9744C148.265 23.2978 149.074 23.4595 150.044 23.4595C150.348 23.4393 150.681 23.3989 151.045 23.3383C151.409 23.2574 151.722 23.0957 151.984 22.8531C152.268 22.5903 152.409 22.1962 152.409 21.6706C152.409 21.2259 152.257 20.8721 151.954 20.6093C151.651 20.3465 151.247 20.1242 150.741 19.9423C150.257 19.7603 149.711 19.5885 149.104 19.4268C148.477 19.2449 147.83 19.0427 147.164 18.8204C146.516 18.598 145.92 18.315 145.374 17.9713C144.829 17.6075 144.384 17.1324 144.04 16.5463C143.697 15.96 143.525 15.2222 143.525 14.3328C143.525 13.322 143.808 12.463 144.374 11.7555C144.94 11.048 145.668 10.5022 146.557 10.1181C147.467 9.734 148.417 9.54199 149.407 9.54199C150.034 9.54199 150.691 9.62283 151.378 9.78455C152.065 9.92605 152.723 10.1686 153.349 10.5123C153.976 10.8357 154.502 11.2703 154.926 11.8161C155.148 12.1193 155.28 12.4831 155.32 12.9077C155.36 13.3322 155.168 13.7162 154.744 14.0599C154.441 14.3025 154.087 14.4136 153.683 14.3934C153.279 14.353 152.945 14.2115 152.682 13.9689C152.338 13.5242 151.874 13.1704 151.287 12.9077C150.721 12.6449 150.064 12.5135 149.316 12.5135C149.013 12.5135 148.68 12.5539 148.316 12.6348C147.972 12.6954 147.669 12.847 147.406 13.0896C147.143 13.3119 147.012 13.6758 147.012 14.1812C147.012 14.6461 147.164 15.0201 147.467 15.3031C147.77 15.5659 148.174 15.7882 148.68 15.9701C149.205 16.1319 149.761 16.2936 150.348 16.4553C150.954 16.617 151.57 16.809 152.197 17.0314C152.824 17.2538 153.399 17.5468 153.925 17.9107C154.451 18.2746 154.875 18.7496 155.199 19.3358C155.522 19.9018 155.684 20.6295 155.684 21.5189C155.684 22.5499 155.381 23.4292 154.774 24.1569C154.168 24.8847 153.41 25.4404 152.5 25.8246C151.591 26.1886 150.66 26.3706 149.711 26.3706C148.518 26.3706 147.325 26.1684 146.133 25.764C144.94 25.3393 143.949 24.6017 143.161 23.5505Z" fill="white"/>
</svg>
