<svg width="20" height="20" viewBox="0 0 20 20" fill="none" xmlns="http://www.w3.org/2000/svg">
<path d="M6.875 5H16.875" stroke="#52525B" stroke-width="1.5" stroke-linecap="round" stroke-linejoin="round"/>
<path d="M6.87549 10H16.875" stroke="#52525B" stroke-width="1.5" stroke-linecap="round" stroke-linejoin="round"/>
<path d="M6.87549 15H16.875" stroke="#52525B" stroke-width="1.5" stroke-linecap="round" stroke-linejoin="round"/>
<path d="M3.4375 11.25C4.12786 11.25 4.6875 10.6904 4.6875 10C4.6875 9.30964 4.12786 8.75 3.4375 8.75C2.74714 8.75 2.1875 9.30964 2.1875 10C2.1875 10.6904 2.74714 11.25 3.4375 11.25Z" fill="#52525B"/>
<path d="M3.4375 6.25C4.12786 6.25 4.6875 5.69036 4.6875 5C4.6875 4.30964 4.12786 3.75 3.4375 3.75C2.74714 3.75 2.1875 4.30964 2.1875 5C2.1875 5.69036 2.74714 6.25 3.4375 6.25Z" fill="#52525B"/>
<path d="M3.4375 16.25C4.12786 16.25 4.6875 15.6904 4.6875 15C4.6875 14.3096 4.12786 13.75 3.4375 13.75C2.74714 13.75 2.1875 14.3096 2.1875 15C2.1875 15.6904 2.74714 16.25 3.4375 16.25Z" fill="#52525B"/>
</svg>
